<svg width="758" height="349" viewBox="0 0 758 349" fill="none" xmlns="http://www.w3.org/2000/svg">
<g opacity="0.5">
<path d="M17.7954 12.9642C22.8781 12.6539 27.2221 17.2935 27.1334 22.923C27.0448 28.582 22.5531 33.6648 17.5147 33.8125C12.5502 33.9603 8.41313 29.5572 8.3688 24.0607C8.32448 18.4312 12.698 13.2597 17.7807 12.9495L17.7954 12.9642Z" fill="#627EEA"/>
<path d="M102.458 7.40865C97.3752 7.74848 93.0165 12.9494 93.0904 18.564C93.1643 24.2082 97.6412 28.7146 102.68 28.2271C107.644 27.7395 111.781 22.8045 111.855 17.3081C111.914 11.6787 107.541 7.06882 102.473 7.40865H102.458Z" fill="#627EEA"/>
<path d="M348.112 6.04919C349.619 9.43274 352.855 11.7672 356.49 11.5752C359.799 11.4126 362.814 9.15201 364.513 6.04919H348.112Z" fill="#627EEA"/>
<path d="M130.28 5.57644C129.571 5.63555 128.876 5.79807 128.211 6.04925H133.693C132.629 5.65032 131.477 5.47302 130.28 5.57644Z" fill="#627EEA"/>
<path d="M133.693 6.04919H128.211C124.222 7.4676 121.149 11.7376 121.06 16.4508C120.957 22.0801 125.301 26.7195 130.398 26.424C135.481 26.1285 139.854 20.972 139.825 15.3279C139.795 10.9988 137.18 7.3494 133.693 6.06397V6.04919Z" fill="#627EEA"/>
<path d="M290.489 6.04919C290.74 11.2501 294.832 15.4906 299.664 15.3133C304.2 15.1508 308.248 10.9989 309.076 6.04919H290.489Z" fill="#627EEA"/>
<path d="M215.327 0.00617854C211.825 0.139156 208.604 2.63618 206.934 6.04928H223.822C222.433 2.42933 219.109 -0.141575 215.327 0.00617854Z" fill="#627EEA"/>
<path d="M206.949 6.04919C206.225 7.5415 205.782 9.22589 205.767 10.9546C205.708 16.4215 209.771 20.9132 214.75 20.8688C219.774 20.8393 224.31 15.8452 224.517 10.142C224.561 8.69397 224.31 7.3051 223.837 6.04919H206.949Z" fill="#627EEA"/>
<path d="M83.8707 18.948C83.9298 24.5774 79.5563 29.7488 74.4883 30.0738C69.4056 30.3989 65.0469 25.7742 65.1208 20.1448C65.1947 14.6632 69.3613 9.71345 74.311 9.24064C79.3642 8.76783 83.8116 13.2743 83.8707 18.9332V18.948Z" fill="#627EEA"/>
<path d="M262.578 6.04919C262.534 6.44813 262.504 6.84706 262.489 7.26077C262.445 12.9049 266.833 17.4853 271.901 17.1307C276.836 16.7761 281.062 11.915 281.239 6.38903C281.239 6.27082 281.239 6.1674 281.239 6.04919H262.578Z" fill="#627EEA"/>
<path d="M377.988 6.04919C379.79 8.50189 382.598 9.97942 385.612 9.66914C388.094 9.40319 390.37 8.04386 392.024 6.04919H377.988Z" fill="#627EEA"/>
<path d="M418.029 6.04919H407.731C409.252 7.24599 411.114 7.92566 413.094 7.86656C414.867 7.80745 416.566 7.12779 418.029 6.04919Z" fill="#627EEA"/>
<path d="M234.978 6.04919C234.653 7.14255 234.49 8.295 234.534 9.44745C234.712 14.9585 238.923 19.2581 243.872 18.9626C248.955 18.6671 253.329 13.4958 253.299 7.86652C253.299 7.24597 253.225 6.6402 253.122 6.04919H234.992H234.978Z" fill="#627EEA"/>
<path d="M187.017 1.86796C184.298 2.10437 181.801 3.74443 180.087 6.04937H194.922C193.178 3.30117 190.223 1.57246 187.017 1.86796Z" fill="#627EEA"/>
<path d="M180.087 6.04919C178.61 8.05864 177.709 10.5704 177.782 13.1561C177.945 18.6673 182.171 22.9669 187.106 22.6862C192.188 22.3907 196.562 17.2341 196.532 11.5899C196.532 9.52139 195.912 7.61538 194.907 6.04919H180.073H180.087Z" fill="#627EEA"/>
<path d="M45.6469 11.1318C50.7149 10.7328 55.1179 15.3132 55.1031 20.9573C55.0883 26.6015 50.6557 31.7285 45.6026 31.9797C40.6676 32.2161 36.4715 27.8574 36.3533 22.361C36.2351 16.7612 40.5642 11.5307 45.6469 11.1318Z" fill="#627EEA"/>
<path d="M319.537 6.04919C320.571 10.452 324.28 13.6285 328.535 13.4069C332.465 13.2001 335.982 10.0679 337.371 6.04919H319.537Z" fill="#627EEA"/>
<path d="M159.343 3.67041C157.304 3.75906 155.383 4.64558 153.787 6.04923H165.43C163.79 4.49783 161.648 3.56698 159.328 3.67041H159.343Z" fill="#627EEA"/>
<path d="M165.445 6.04919H153.802C151.438 8.11774 149.842 11.2944 149.828 14.678C149.798 20.1448 153.891 24.6217 158.87 24.5479C163.894 24.474 168.415 19.4504 168.592 13.7619C168.681 10.7034 167.425 7.92566 165.46 6.04919H165.445Z" fill="#627EEA"/>
<path d="M563.61 19.3321C563.699 24.8433 559.887 29.5123 554.952 29.9408C549.987 30.3693 546.013 26.3947 545.924 20.9279C545.835 15.4167 549.647 10.7477 554.582 10.3192C559.547 9.89073 563.521 13.8653 563.61 19.3321Z" fill="#627EEA"/>
<path d="M385.376 21.4009C390.325 21.0906 394.211 25.1686 394.196 30.665C394.196 36.1614 390.281 40.727 385.331 41.0372C380.381 41.3475 376.496 37.2695 376.51 31.7731C376.51 26.2767 380.426 21.7111 385.376 21.4009Z" fill="#627EEA"/>
<path d="M506.873 23.4695C506.784 28.9511 502.795 33.4428 497.83 33.6645C492.895 33.8861 489.083 29.7047 489.187 24.1935C489.275 18.7119 493.265 14.2202 498.229 13.9985C503.164 13.7769 506.976 17.9583 506.873 23.4695Z" fill="#627EEA"/>
<path d="M461.217 26.0407C461.306 20.559 465.295 16.0672 470.26 15.8456C475.195 15.6239 479.007 19.8054 478.903 25.3167C478.814 30.7984 474.825 35.2902 469.861 35.5118C464.926 35.7335 461.114 31.552 461.217 26.0407Z" fill="#627EEA"/>
<path d="M667.274 2.91684C664.924 3.10891 662.826 4.29094 661.275 6.0492H674.321C672.681 3.90678 670.14 2.66566 667.274 2.91684Z" fill="#627EEA"/>
<path d="M661.275 6.04919C659.59 7.98476 658.556 10.6148 658.6 13.4959C658.689 18.9628 662.664 22.9521 667.613 22.5384C672.548 22.1247 676.36 17.4557 676.286 11.9593C676.257 9.65437 675.518 7.61538 674.321 6.04919H661.275Z" fill="#627EEA"/>
<path d="M610.536 6.6403C605.602 7.05401 601.789 11.723 601.863 17.2194C601.952 22.6863 605.927 26.6756 610.876 26.2619C615.811 25.8482 619.623 21.1792 619.549 15.6828C619.461 10.2159 615.486 6.2266 610.536 6.6403Z" fill="#627EEA"/>
<path d="M347.743 33.8119C347.684 28.3155 351.54 23.676 356.475 23.2919C361.425 22.9077 365.37 26.9266 365.429 32.4082C365.488 37.9046 361.632 42.5441 356.697 42.9282C351.747 43.3124 347.802 39.2935 347.743 33.8119Z" fill="#627EEA"/>
<path d="M17.8989 45.5144C22.8339 45.2632 26.6607 49.415 26.5868 54.9262C26.5129 60.4079 22.5531 64.9291 17.5886 65.1803C12.6537 65.4315 8.82689 61.2796 8.90077 55.7684C8.97465 50.2868 12.9344 45.7655 17.8989 45.5144Z" fill="#627EEA"/>
<path d="M206.299 42.8252C206.358 37.3436 210.318 32.8223 215.267 32.5564C220.202 32.3052 224.044 36.4423 223.97 41.9535C223.911 47.4351 219.951 51.9564 215.001 52.2223C210.066 52.4735 206.225 48.3364 206.299 42.8252Z" fill="#627EEA"/>
<path d="M413.168 19.5836C418.118 19.1847 422.092 23.174 422.166 28.6557C422.24 34.1521 418.398 38.8063 413.478 39.22C408.528 39.6189 404.554 35.6296 404.48 30.148C404.406 24.6516 408.233 19.9973 413.168 19.5836Z" fill="#627EEA"/>
<path d="M252.752 40.0769C252.693 45.5585 248.733 50.0798 243.784 50.3457C238.849 50.5969 235.007 46.4598 235.081 40.9486C235.14 35.467 239.1 30.9458 244.05 30.6798C248.985 30.4286 252.826 34.5657 252.752 40.0769Z" fill="#627EEA"/>
<path d="M54.5712 52.9462C54.5712 58.4426 50.6557 63.0082 45.706 63.3185C40.7563 63.6288 36.8704 59.5508 36.8852 54.0544C36.8852 48.558 40.8006 43.9924 45.7504 43.6821C50.7001 43.3718 54.586 47.4498 54.5712 52.9462Z" fill="#627EEA"/>
<path d="M337.459 34.4476C337.43 39.9441 333.499 44.495 328.55 44.7757C323.6 45.0565 319.744 40.9489 319.773 35.4523C319.803 29.9558 323.733 25.4049 328.683 25.1242C333.632 24.8435 337.489 28.9363 337.459 34.4476Z" fill="#627EEA"/>
<path d="M187.061 34.4178C192.011 34.0337 195.956 38.0526 196.015 43.5342C196.074 49.0306 192.218 53.6701 187.283 54.0542C182.333 54.4384 178.388 50.4195 178.329 44.9379C178.27 39.4415 182.126 34.802 187.061 34.4178Z" fill="#627EEA"/>
<path d="M639.599 4.73431C638.107 4.80819 636.703 5.281 635.462 6.04931H644.416C643.042 5.13325 641.402 4.63089 639.599 4.73431Z" fill="#627EEA"/>
<path d="M644.416 6.04908H635.462C632.611 7.82211 630.675 11.1761 630.631 15.0029C630.572 20.5141 634.413 24.6512 639.348 24.3852C644.298 24.1193 648.258 19.598 648.317 14.1016C648.346 10.5999 646.81 7.65959 644.401 6.0343L644.416 6.04908Z" fill="#627EEA"/>
<path d="M83.3387 51.2029C83.2648 56.6847 79.305 61.206 74.3405 61.4572C69.4056 61.7084 65.5788 57.5564 65.6527 52.0451C65.7265 46.5634 69.6863 42.042 74.6508 41.7908C79.5858 41.5397 83.4126 45.6916 83.3387 51.2029Z" fill="#627EEA"/>
<path d="M695.287 1.07017C692.17 1.32135 689.496 3.25692 687.959 6.04945H703.37C701.936 2.82843 698.878 0.789441 695.287 1.07017Z" fill="#627EEA"/>
<path d="M687.959 6.04919C687.058 7.67448 686.555 9.58049 686.57 11.6195C686.629 17.1011 690.589 21.1052 695.539 20.7063C700.474 20.3074 704.315 15.6679 704.256 10.1715C704.241 8.66442 703.916 7.27554 703.37 6.04919H687.959Z" fill="#627EEA"/>
<path d="M432.45 28.1089C432.45 22.6125 436.365 18.047 441.315 17.7367C446.265 17.4264 450.15 21.5044 450.136 27.0008C450.136 32.4972 446.22 37.0628 441.27 37.3731C436.321 37.6833 432.435 33.6054 432.45 28.1089Z" fill="#627EEA"/>
<path d="M280.707 38.7323C280.441 44.1696 276.275 48.4987 271.31 48.5283C266.434 48.5431 262.77 44.1696 263.051 38.6288C263.317 33.1915 267.483 28.8624 272.448 28.8328C277.324 28.818 280.988 33.1915 280.707 38.7323Z" fill="#627EEA"/>
<path d="M102.576 39.9586C107.511 39.6926 111.367 43.815 111.308 49.3263C111.249 54.8227 107.319 59.3441 102.354 59.61C97.4195 59.876 93.5632 55.7536 93.6223 50.2423C93.6814 44.7458 97.6116 40.2245 102.576 39.9586Z" fill="#627EEA"/>
<path d="M150.36 46.6815C150.345 41.1851 154.216 36.59 159.166 36.2354C164.115 35.8955 168.031 39.944 168.046 45.4404C168.06 50.9368 164.189 55.5319 159.239 55.8865C154.29 56.2264 150.374 52.1779 150.36 46.6815Z" fill="#627EEA"/>
<path d="M534.828 22.0659C534.562 27.5032 530.395 31.8323 525.431 31.8619C520.555 31.8767 516.89 27.5032 517.171 21.9624C517.437 16.5251 521.604 12.196 526.568 12.1664C531.444 12.1516 535.108 16.5251 534.828 22.0659Z" fill="#627EEA"/>
<path d="M299.886 27.0156C304.835 26.7053 308.706 30.798 308.692 36.3092C308.677 41.8056 304.761 46.3712 299.812 46.6667C294.862 46.977 290.991 42.8842 291.006 37.373C291.02 31.8766 294.936 27.3111 299.886 27.0156Z" fill="#627EEA"/>
<path d="M591.58 17.5297C591.653 23.0261 587.812 27.6803 582.892 28.094C577.942 28.493 573.967 24.5036 573.894 19.022C573.82 13.5256 577.661 8.87136 582.581 8.45765C587.546 8.05872 591.506 12.0481 591.58 17.5297Z" fill="#627EEA"/>
<path d="M130.309 38.1413C135.259 37.7572 139.219 41.7613 139.278 47.2429C139.337 52.7393 135.496 57.3788 130.561 57.7777C125.611 58.1618 121.651 54.1577 121.592 48.6761C121.533 43.1797 125.374 38.5403 130.309 38.1413Z" fill="#627EEA"/>
<path d="M102.473 71.3858C107.127 71.0903 111.116 75.375 110.983 80.5167C110.85 85.5402 106.95 90.017 102.458 90.3125C97.8037 90.608 93.8144 86.3232 93.9474 81.1816C94.0804 76.1581 97.981 71.6813 102.473 71.3858Z" fill="#627EEA"/>
<path d="M675.961 43.3865C675.873 48.5726 671.721 53.2121 667.111 53.2712C662.59 53.3303 658.837 49.1636 658.925 44.1991C659.014 39.013 663.166 34.3736 667.776 34.3145C672.297 34.2554 676.05 38.422 675.961 43.3865Z" fill="#627EEA"/>
<path d="M356.386 54.7339C361.011 54.2907 365.104 58.4721 365.104 63.6287C365.104 68.6227 361.292 73.2031 356.785 73.6316C352.161 74.0748 348.068 69.8934 348.068 64.7368C348.068 59.7428 351.88 55.1624 356.386 54.7339Z" fill="#627EEA"/>
<path d="M215.149 63.9983C219.803 63.7028 223.793 67.9876 223.66 73.1295C223.527 78.1531 219.626 82.63 215.134 82.9255C210.48 83.221 206.491 78.9361 206.624 73.7943C206.757 68.7707 210.658 64.2938 215.149 63.9983Z" fill="#627EEA"/>
<path d="M252.427 70.9278C252.486 76.0696 248.423 80.8273 243.784 81.0489C239.277 81.2558 235.436 77.2221 235.377 72.2281C235.318 67.0863 239.381 62.3286 244.02 62.107C248.527 61.9001 252.368 65.9338 252.427 70.9278Z" fill="#627EEA"/>
<path d="M130.25 69.5685C134.875 69.14 138.968 73.3214 138.953 78.478C138.953 83.472 135.126 88.0524 130.62 88.4661C125.995 88.8946 121.902 84.7131 121.917 79.5566C121.917 74.5625 125.744 69.9822 130.25 69.5685Z" fill="#627EEA"/>
<path d="M591.255 48.9861C591.136 54.1871 586.97 58.797 582.36 58.8265C577.839 58.8561 574.1 54.6894 574.219 49.7101C574.337 44.5092 578.503 39.8993 583.113 39.8698C587.635 39.8402 591.373 44.0069 591.255 48.9861Z" fill="#627EEA"/>
<path d="M404.805 61.2203C404.687 56.0932 408.706 51.2913 413.345 50.9958C417.837 50.715 421.723 54.7044 421.841 59.7132C421.959 64.8402 417.94 69.6422 413.301 69.9377C408.809 70.2184 404.923 66.2291 404.805 61.2203Z" fill="#627EEA"/>
<path d="M195.69 75.0795C195.483 80.2952 191.258 84.8312 186.662 84.7721C182.126 84.713 178.447 80.4873 178.639 75.5228C178.846 70.3071 183.057 65.7711 187.667 65.8302C192.203 65.8893 195.882 70.115 195.69 75.0795Z" fill="#627EEA"/>
<path d="M17.5738 76.9561C22.1985 76.5128 26.2913 80.6943 26.2765 85.8656C26.2765 90.8597 22.4645 95.44 17.9432 95.8685C13.3186 96.3118 9.2258 92.1303 9.24058 86.959C9.24058 81.9649 13.0526 77.3846 17.5738 76.9561Z" fill="#627EEA"/>
<path d="M546.249 51.8232C546.205 46.6814 550.283 41.9238 554.907 41.7169C559.414 41.5101 563.255 45.5585 563.285 50.5673C563.329 55.7092 559.251 60.4668 554.627 60.6737C550.12 60.8805 546.279 56.8321 546.249 51.8232Z" fill="#627EEA"/>
<path d="M393.871 61.7523C393.871 66.9236 389.764 71.6222 385.139 71.7847C380.633 71.9324 376.821 67.8397 376.835 62.8604C376.835 57.6891 380.943 52.9905 385.568 52.828C390.074 52.6802 393.886 56.773 393.871 61.7523Z" fill="#627EEA"/>
<path d="M159.225 67.6625C163.879 67.3669 167.868 71.6666 167.721 76.8084C167.573 81.832 163.672 86.3089 159.18 86.5896C154.526 86.8851 150.537 82.5855 150.685 77.4437C150.832 72.4201 154.733 67.9432 159.225 67.6625Z" fill="#627EEA"/>
<path d="M630.956 46.3415C630.867 41.1997 634.901 36.4273 639.54 36.1614C644.047 35.9102 647.918 39.9143 647.992 44.9231C648.08 50.0649 644.047 54.8373 639.407 55.1033C634.901 55.3545 631.03 51.3504 630.956 46.3415Z" fill="#627EEA"/>
<path d="M619.224 47.1838C619.091 52.3847 614.91 56.9798 610.315 56.9946C605.779 57.0094 602.07 52.828 602.188 47.8635C602.321 42.6626 606.503 38.0674 611.098 38.0527C615.634 38.0379 619.342 42.2193 619.224 47.1838Z" fill="#627EEA"/>
<path d="M525.963 43.6081C530.602 43.2683 534.621 47.5383 534.518 52.6948C534.414 57.7183 530.543 62.2099 526.036 62.535C521.397 62.8748 517.378 58.6048 517.482 53.4483C517.585 48.4248 521.456 43.9331 525.963 43.6081Z" fill="#627EEA"/>
<path d="M469.949 47.287C474.589 46.9028 478.637 51.1286 478.578 56.2851C478.519 61.294 474.678 65.83 470.171 66.1994C465.532 66.5835 461.483 62.3578 461.542 57.2012C461.601 52.1924 465.443 47.6564 469.949 47.287Z" fill="#627EEA"/>
<path d="M74.6952 73.2176C79.3642 73.0551 83.2649 77.4434 83.0137 82.5704C82.7625 87.6236 78.7732 92.0118 74.3111 92.1744C69.6421 92.3369 65.7414 87.9486 65.9926 82.8216C66.2438 77.7684 70.2331 73.3802 74.6952 73.2176Z" fill="#627EEA"/>
<path d="M299.841 58.4426C304.481 58.1323 308.5 62.4172 308.367 67.559C308.248 72.5826 304.348 77.0743 299.856 77.3698C295.217 77.6801 291.198 73.3952 291.331 68.2534C291.449 63.2298 295.35 58.7381 299.841 58.4426Z" fill="#627EEA"/>
<path d="M328.801 56.5511C333.47 56.3738 337.371 60.7621 337.134 65.8891C336.898 70.9422 332.908 75.3305 328.446 75.493C323.777 75.6703 319.877 71.2821 320.113 66.155C320.349 61.1019 324.339 56.7136 328.801 56.5511Z" fill="#627EEA"/>
<path d="M695.598 32.4823C691.121 32.6596 687.146 37.0478 686.91 42.101C686.674 47.2428 690.574 51.6163 695.243 51.439C699.72 51.2617 703.695 46.8734 703.931 41.8203C704.168 36.6784 700.267 32.305 695.598 32.4823Z" fill="#627EEA"/>
<path d="M45.706 75.1089C50.3454 74.7986 54.3643 79.0687 54.2461 84.2105C54.1279 89.2341 50.242 93.7258 45.7503 94.0361C41.1109 94.3464 37.092 90.0763 37.2102 84.9345C37.3284 79.9109 41.2143 75.4192 45.7208 75.1089H45.706Z" fill="#627EEA"/>
<path d="M498.052 45.4403C502.706 45.1448 506.696 49.4444 506.548 54.5862C506.4 59.6098 502.499 64.0867 498.008 64.3675C493.353 64.663 489.364 60.3633 489.512 55.2215C489.66 50.1979 493.56 45.721 498.052 45.4403Z" fill="#627EEA"/>
<path d="M449.811 58.0585C449.811 63.2151 445.733 67.9432 441.108 68.1057C436.601 68.2682 432.775 64.205 432.775 59.211C432.775 54.0544 436.853 49.3263 441.477 49.1638C445.984 49.0012 449.811 53.0645 449.811 58.0585Z" fill="#627EEA"/>
<path d="M271.68 60.2894C276.304 59.8461 280.397 64.0275 280.397 69.184C280.397 74.1779 276.585 78.7582 272.064 79.1867C267.439 79.63 263.346 75.4486 263.346 70.2921C263.346 65.2981 267.158 60.7178 271.68 60.2894Z" fill="#627EEA"/>
<path d="M667.259 65.9188C671.824 65.5199 675.429 69.0955 675.518 74.1191C675.607 79.187 672.179 83.4127 667.643 83.8117C663.077 84.2106 659.472 80.635 659.383 75.6114C659.295 70.5435 662.723 66.3177 667.259 65.9188Z" fill="#627EEA"/>
<path d="M405.263 92.2779C405.174 87.21 408.602 82.9842 413.138 82.5853C417.704 82.1864 421.309 85.762 421.398 90.7856C421.486 95.8535 418.058 100.079 413.522 100.478C408.957 100.877 405.352 97.3015 405.263 92.2779Z" fill="#627EEA"/>
<path d="M138.495 109.595C138.495 114.662 134.964 118.77 130.398 119.051C125.847 119.331 122.346 115.652 122.36 110.585C122.36 105.517 125.892 101.409 130.457 101.128C135.023 100.848 138.51 104.527 138.495 109.595Z" fill="#627EEA"/>
<path d="M263.819 101.187C263.893 96.1343 267.454 92.0711 272.019 91.8494C276.57 91.6278 280.013 95.366 279.939 100.449C279.865 105.502 276.304 109.565 271.739 109.787C267.188 110.008 263.745 106.27 263.819 101.187Z" fill="#627EEA"/>
<path d="M195.232 106.063C195.143 111.102 191.538 115.15 186.973 115.342C182.437 115.534 179.009 111.767 179.097 106.684C179.186 101.646 182.791 97.5972 187.357 97.4051C191.893 97.213 195.321 100.981 195.232 106.063Z" fill="#627EEA"/>
<path d="M574.677 81.0931C574.618 76.0252 578.06 71.829 582.611 71.4744C587.177 71.105 590.737 74.7102 590.811 79.7485C590.87 84.8165 587.428 88.9979 582.877 89.3673C578.311 89.7366 574.751 86.1315 574.677 81.0931Z" fill="#627EEA"/>
<path d="M470.097 78.8473C474.648 78.5666 478.15 82.2456 478.135 87.3136C478.135 92.3815 474.604 96.489 470.038 96.7698C465.487 97.0505 461.985 93.3714 462 88.3035C462 83.2356 465.532 79.128 470.097 78.8473Z" fill="#627EEA"/>
<path d="M151.143 108.767C151.143 103.699 154.615 99.5622 159.18 99.2519C163.746 98.9416 167.262 102.591 167.277 107.644C167.277 112.712 163.805 116.85 159.239 117.16C154.674 117.47 151.157 113.821 151.143 108.767Z" fill="#627EEA"/>
<path d="M110.525 111.264C110.584 116.332 107.127 120.514 102.576 120.883C98.0106 121.252 94.4497 117.647 94.3906 112.594C94.3315 107.526 97.789 103.345 102.34 102.975C106.905 102.606 110.466 106.211 110.525 111.264Z" fill="#627EEA"/>
<path d="M602.646 79.1428C602.646 74.0748 606.133 69.9377 610.684 69.6274C615.25 69.3171 618.766 72.9667 618.766 78.0347C618.766 83.1027 615.279 87.2398 610.728 87.5501C606.163 87.8604 602.646 84.2108 602.646 79.1428Z" fill="#627EEA"/>
<path d="M441.108 80.7533C445.674 80.3543 449.279 83.93 449.367 88.9536C449.456 94.0215 446.028 98.2472 441.492 98.6462C436.927 99.0451 433.321 95.4695 433.233 90.4459C433.144 85.3779 436.572 81.1522 441.108 80.7533Z" fill="#627EEA"/>
<path d="M695.302 64.0867C690.751 64.4413 687.294 68.6228 687.353 73.7055C687.412 78.7588 690.973 82.364 695.539 81.9946C700.09 81.64 703.547 77.4585 703.488 72.3757C703.429 67.3225 699.868 63.7173 695.302 64.0867Z" fill="#627EEA"/>
<path d="M53.7881 115.076C53.8029 120.144 50.3159 124.281 45.7651 124.606C41.1996 124.931 37.683 121.282 37.6683 116.229C37.6535 111.161 41.1405 107.024 45.6912 106.699C50.2568 106.374 53.7733 110.023 53.7881 115.076Z" fill="#627EEA"/>
<path d="M497.993 77.03C502.558 76.7049 506.075 80.3545 506.09 85.4078C506.105 90.4758 502.618 94.6129 498.067 94.938C493.501 95.2631 489.985 91.6135 489.97 86.5603C489.955 81.4922 493.442 77.3551 497.993 77.03Z" fill="#627EEA"/>
<path d="M328.653 88.1262C333.204 87.8455 336.691 91.5392 336.676 96.6071C336.661 101.675 333.13 105.782 328.564 106.048C324.014 106.329 320.527 102.635 320.541 97.5675C320.556 92.4996 324.088 88.3921 328.653 88.1262Z" fill="#627EEA"/>
<path d="M299.708 90.0322C304.274 89.6628 307.849 93.2532 307.909 98.2916C307.982 103.36 304.525 107.556 299.989 107.925C295.423 108.294 291.848 104.704 291.789 99.6657C291.715 94.5978 295.172 90.4016 299.708 90.0322Z" fill="#627EEA"/>
<path d="M534.059 83.5752C534.074 88.6433 530.587 92.7804 526.036 93.1055C521.471 93.4306 517.954 89.781 517.94 84.7277C517.925 79.6597 521.412 75.5225 525.963 75.1975C530.528 74.8724 534.045 78.522 534.059 83.5752Z" fill="#627EEA"/>
<path d="M215.282 95.5728C219.833 95.3511 223.276 99.0745 223.217 104.157C223.157 109.21 219.582 113.274 215.016 113.51C210.465 113.732 207.023 110.008 207.082 104.926C207.141 99.8724 210.717 95.8092 215.282 95.5728Z" fill="#627EEA"/>
<path d="M385.272 84.4175C389.838 84.0776 393.384 87.6976 393.428 92.7507C393.472 97.8187 390 101.985 385.449 102.325C380.884 102.665 377.338 99.045 377.293 93.9919C377.249 88.9239 380.721 84.7573 385.272 84.4175Z" fill="#627EEA"/>
<path d="M9.69861 118.164C9.62473 113.097 13.0822 108.9 17.6182 108.531C22.1837 108.162 25.7594 111.752 25.8185 116.79C25.8923 121.858 22.4349 126.054 17.8989 126.424C13.3333 126.793 9.75771 123.203 9.69861 118.164Z" fill="#627EEA"/>
<path d="M74.5327 104.793C79.0835 104.512 82.5704 108.206 82.5556 113.274C82.5409 118.342 79.0096 122.449 74.444 122.715C69.8932 122.996 66.4062 119.317 66.421 114.234C66.4358 109.166 69.9671 105.059 74.5327 104.793Z" fill="#627EEA"/>
<path d="M631.414 77.1334C631.458 72.0654 634.989 67.9873 639.57 67.7362C644.121 67.485 647.593 71.1936 647.548 76.2616C647.504 81.3296 643.958 85.4077 639.392 85.6589C634.842 85.91 631.369 82.2014 631.414 77.1334Z" fill="#627EEA"/>
<path d="M356.017 104.246C351.525 104.246 348.26 100.271 348.541 95.1591C348.807 90.1503 352.574 86.2792 357.169 86.2792C361.661 86.2792 364.926 90.2537 364.646 95.366C364.38 100.375 360.612 104.246 356.017 104.246Z" fill="#627EEA"/>
<path d="M562.842 81.5955C562.901 86.6635 559.443 90.845 554.893 91.2143C550.327 91.5837 546.766 87.9785 546.707 82.9253C546.648 77.8573 550.105 73.6758 554.656 73.3064C559.222 72.937 562.783 76.5422 562.842 81.5955Z" fill="#627EEA"/>
<path d="M243.784 93.6964C248.349 93.327 251.91 96.9323 251.969 101.985C252.028 107.054 248.571 111.235 244.02 111.604C239.455 111.974 235.894 108.369 235.835 103.315C235.776 98.2473 239.233 94.0658 243.784 93.6964Z" fill="#627EEA"/>
<path d="M469.994 111.205C474.101 110.895 477.677 114.5 477.78 119.08C477.884 123.794 474.19 128.167 469.935 128.359C465.812 128.536 462.325 124.813 462.355 120.248C462.37 115.667 465.886 111.53 470.009 111.205H469.994Z" fill="#627EEA"/>
<path d="M251.629 134.136C251.615 138.717 248.098 142.854 243.976 143.179C239.721 143.504 236.041 139.588 236.189 134.86C236.337 130.265 239.942 126.217 244.035 126.025C248.157 125.847 251.644 129.571 251.615 134.136H251.629Z" fill="#627EEA"/>
<path d="M610.581 101.985C614.673 101.63 618.279 105.206 618.426 109.786C618.574 114.485 614.895 118.888 610.64 119.124C606.517 119.346 603.016 115.667 603.001 111.087C602.986 106.521 606.458 102.34 610.581 101.985Z" fill="#627EEA"/>
<path d="M498.155 109.358C502.278 109.181 505.765 112.89 505.735 117.47C505.72 122.228 501.923 126.483 497.697 126.528C493.56 126.572 490.162 122.745 490.31 118.194C490.458 113.599 494.048 109.55 498.155 109.358Z" fill="#627EEA"/>
<path d="M575.031 112.949C575.002 108.383 578.474 104.202 582.596 103.832C586.852 103.448 590.56 107.319 590.457 112.047C590.368 116.642 586.807 120.72 582.7 120.957C578.577 121.193 575.061 117.514 575.031 112.949Z" fill="#627EEA"/>
<path d="M299.93 122.361C304.052 122.154 307.554 125.833 307.569 130.413C307.569 135.156 303.816 139.456 299.575 139.53C295.438 139.604 292.025 135.806 292.143 131.241C292.262 126.646 295.837 122.568 299.945 122.361H299.93Z" fill="#627EEA"/>
<path d="M526.036 107.526C530.159 107.275 533.675 110.939 533.72 115.52C533.764 120.248 530.011 124.577 525.77 124.681C521.633 124.784 518.205 121.016 518.279 116.451C518.368 111.87 521.914 107.763 526.022 107.511L526.036 107.526Z" fill="#627EEA"/>
<path d="M279.599 132.097C279.688 136.648 276.275 140.874 272.138 141.332C267.897 141.79 264.144 137.978 264.174 133.235C264.203 128.654 267.72 124.517 271.827 124.207C275.935 123.897 279.496 127.517 279.599 132.097Z" fill="#627EEA"/>
<path d="M151.482 140.726C151.453 136.161 154.91 131.979 159.047 131.595C163.303 131.211 167.011 135.082 166.923 139.81C166.834 144.405 163.273 148.498 159.166 148.734C155.043 148.971 151.527 145.306 151.497 140.726H151.482Z" fill="#627EEA"/>
<path d="M17.6625 140.874C21.77 140.549 25.3457 144.139 25.4639 148.72C25.5821 153.433 21.8882 157.806 17.633 158.013C13.5106 158.205 10.0237 154.497 10.0237 149.931C10.0237 145.366 13.5254 141.199 17.6477 140.874H17.6625Z" fill="#627EEA"/>
<path d="M38.0081 148.144C37.9933 143.578 41.4655 139.397 45.5878 139.042C49.8431 138.673 53.537 142.558 53.4335 147.287C53.3301 151.882 49.7545 155.96 45.6469 156.181C41.5246 156.403 38.0229 152.724 38.0081 148.144Z" fill="#627EEA"/>
<path d="M187.12 129.763C191.228 129.467 194.789 133.087 194.878 137.668C194.966 142.381 191.258 146.755 187.002 146.917C182.88 147.08 179.408 143.341 179.437 138.776C179.467 134.196 182.983 130.058 187.106 129.763H187.12Z" fill="#627EEA"/>
<path d="M82.2158 145.277C82.1863 149.857 78.6697 153.995 74.5474 154.29C70.2774 154.6 66.6279 150.67 66.7904 145.942C66.9529 141.332 70.5581 137.298 74.6656 137.136C78.7879 136.973 82.2601 140.711 82.2306 145.277H82.2158Z" fill="#627EEA"/>
<path d="M724.336 94.524C720.243 94.6866 716.638 98.7349 716.475 103.345C716.328 107.895 719.711 111.722 723.848 111.693C728.089 111.663 731.871 107.408 731.901 102.65C731.93 98.0848 728.458 94.3615 724.336 94.524Z" fill="#627EEA"/>
<path d="M110.185 143.711C109.993 148.306 106.359 152.339 102.266 152.472C97.9663 152.605 94.4645 148.557 94.7748 143.844C95.0851 139.189 98.7789 135.304 102.857 135.318C107.009 135.318 110.363 139.175 110.171 143.725L110.185 143.711Z" fill="#627EEA"/>
<path d="M695.376 96.4297C691.254 96.7252 687.737 100.862 687.708 105.443C687.678 110.186 691.431 114.012 695.672 113.554C699.809 113.111 703.237 108.885 703.148 104.335C703.059 99.7542 699.498 96.1342 695.391 96.4297H695.376Z" fill="#627EEA"/>
<path d="M393.073 124.887C393.029 129.468 389.513 133.59 385.39 133.9C381.12 134.21 377.471 130.265 377.633 125.552C377.796 120.942 381.401 116.909 385.508 116.761C389.631 116.598 393.103 120.336 393.059 124.902L393.073 124.887Z" fill="#627EEA"/>
<path d="M138.155 141.598C138.126 146.178 134.609 150.315 130.501 150.626C126.246 150.951 122.567 147.021 122.73 142.292C122.877 137.697 126.483 133.649 130.59 133.472C134.712 133.294 138.185 137.032 138.155 141.598Z" fill="#627EEA"/>
<path d="M207.422 137.062C207.392 132.496 210.864 128.315 214.987 127.945C219.242 127.561 222.951 131.432 222.847 136.16C222.758 140.756 219.198 144.834 215.09 145.07C210.968 145.306 207.451 141.627 207.422 137.062Z" fill="#627EEA"/>
<path d="M421.043 123.055C421.014 127.635 417.497 131.772 413.375 132.068C409.105 132.378 405.455 128.448 405.618 123.72C405.78 119.11 409.385 115.076 413.493 114.914C417.615 114.751 421.087 118.489 421.058 123.055H421.043Z" fill="#627EEA"/>
<path d="M667.569 98.2472C671.691 98.0551 675.178 101.779 675.163 106.344C675.163 111.102 671.366 115.372 667.126 115.416C662.989 115.46 659.59 111.634 659.723 107.098C659.856 102.503 663.447 98.4393 667.554 98.262L667.569 98.2472Z" fill="#627EEA"/>
<path d="M356.519 118.652C360.627 118.342 364.202 121.947 364.306 126.527C364.409 131.24 360.716 135.614 356.46 135.791C352.338 135.969 348.851 132.245 348.88 127.68C348.91 123.099 352.412 118.962 356.534 118.652H356.519Z" fill="#627EEA"/>
<path d="M441.211 113.096C445.319 112.771 448.895 116.362 449.013 120.942C449.131 125.655 445.437 130.028 441.182 130.235C437.06 130.427 433.573 126.719 433.573 122.153C433.573 117.588 437.074 113.421 441.197 113.096H441.211Z" fill="#627EEA"/>
<path d="M639.511 100.094C643.633 99.843 647.15 103.507 647.194 108.088C647.238 112.816 643.485 117.145 639.245 117.248C635.108 117.352 631.68 113.584 631.768 109.018C631.857 104.438 635.403 100.331 639.526 100.094H639.511Z" fill="#627EEA"/>
<path d="M554.715 105.65C558.823 105.339 562.384 108.959 562.487 113.54C562.59 118.253 558.882 122.626 554.627 122.804C550.504 122.981 547.032 119.243 547.062 114.677C547.091 110.097 550.608 105.96 554.715 105.65Z" fill="#627EEA"/>
<path d="M320.896 129.408C320.97 124.828 324.531 120.72 328.638 120.469C332.908 120.203 336.528 124.178 336.322 128.906C336.115 133.516 332.465 137.52 328.387 137.638C324.25 137.742 320.822 133.974 320.896 129.408Z" fill="#627EEA"/>
<path d="M695.42 128.034C691.357 128.3 688.151 132.127 688.195 136.633C688.24 140.963 691.328 144.228 695.214 144.08C699.277 143.932 702.587 140.18 702.631 135.688C702.69 131.167 699.469 127.768 695.406 128.034H695.42Z" fill="#627EEA"/>
<path d="M498.2 140.977C502.233 140.815 505.38 144.317 505.248 148.838C505.115 153.33 501.716 156.994 497.653 157.053C493.782 157.112 490.768 153.743 490.797 149.399C490.842 144.893 494.122 141.14 498.2 140.977Z" fill="#627EEA"/>
<path d="M81.7134 176.261C81.743 180.767 78.5072 184.579 74.4439 184.815C70.3807 185.052 67.1893 181.624 67.2632 177.103C67.337 172.774 70.4399 169.11 74.3405 168.785C78.4037 168.43 81.6839 171.754 81.7134 176.261Z" fill="#627EEA"/>
<path d="M575.519 143.888C575.534 139.382 578.814 135.614 582.877 135.422C586.925 135.23 590.087 138.717 589.969 143.238C589.851 147.567 586.718 151.187 582.818 151.468C578.755 151.778 575.519 148.394 575.534 143.888H575.519Z" fill="#627EEA"/>
<path d="M215.312 159.535C219.345 159.373 222.493 162.875 222.36 167.396C222.227 171.888 218.828 175.552 214.765 175.611C210.894 175.67 207.88 172.301 207.909 167.957C207.954 163.451 211.234 159.698 215.312 159.535Z" fill="#627EEA"/>
<path d="M639.496 131.713C643.559 131.462 646.751 134.89 646.692 139.396C646.632 143.888 643.308 147.626 639.245 147.774C635.359 147.907 632.286 144.627 632.241 140.298C632.197 135.791 635.433 131.964 639.496 131.713Z" fill="#627EEA"/>
<path d="M724.38 126.143C720.317 126.291 717.007 130.044 716.963 134.55C716.919 138.894 719.918 142.263 723.789 142.233C727.852 142.189 731.265 138.525 731.413 134.048C731.561 129.526 728.428 125.995 724.395 126.158L724.38 126.143Z" fill="#627EEA"/>
<path d="M406.105 155.088C406.09 150.581 409.326 146.769 413.389 146.548C417.453 146.311 420.629 149.754 420.556 154.275C420.482 158.604 417.364 162.254 413.463 162.579C409.4 162.919 406.12 159.579 406.105 155.073V155.088Z" fill="#627EEA"/>
<path d="M378.136 156.935C378.106 152.428 381.342 148.616 385.39 148.365C389.453 148.114 392.645 151.556 392.571 156.063C392.497 160.392 389.394 164.056 385.508 164.396C381.445 164.751 378.15 161.426 378.121 156.92L378.136 156.935Z" fill="#627EEA"/>
<path d="M299.945 153.98C303.993 153.773 307.17 157.23 307.066 161.751C306.963 166.243 303.609 169.952 299.546 170.04C295.675 170.129 292.616 166.805 292.616 162.475C292.616 157.969 295.882 154.186 299.945 153.965V153.98Z" fill="#627EEA"/>
<path d="M561.999 144.922C561.955 149.429 558.645 153.167 554.582 153.329C550.549 153.477 547.401 149.961 547.564 145.439C547.712 141.125 550.888 137.535 554.789 137.269C558.852 137.003 562.059 140.416 562.014 144.922H561.999Z" fill="#627EEA"/>
<path d="M518.782 147.538C518.841 143.031 522.136 139.293 526.199 139.145C530.233 138.998 533.38 142.514 533.217 147.035C533.069 151.35 529.893 154.94 525.992 155.206C521.929 155.472 518.723 152.059 518.767 147.553L518.782 147.538Z" fill="#627EEA"/>
<path d="M271.827 155.826C275.89 155.531 279.126 158.914 279.097 163.421C279.067 167.927 275.787 171.695 271.724 171.872C267.838 172.05 264.72 168.799 264.646 164.485C264.573 159.978 267.764 156.122 271.812 155.826H271.827Z" fill="#627EEA"/>
<path d="M667.569 129.866C671.617 129.674 674.779 133.161 674.661 137.668C674.543 142.159 671.174 145.853 667.111 145.942C663.24 146.015 660.196 142.676 660.211 138.347C660.211 133.841 663.491 130.058 667.554 129.866H667.569Z" fill="#627EEA"/>
<path d="M137.653 172.759C137.608 177.266 134.299 181.004 130.236 181.166C126.202 181.314 123.055 177.798 123.217 173.276C123.365 168.962 126.542 165.371 130.442 165.105C134.506 164.839 137.712 168.253 137.668 172.759H137.653Z" fill="#627EEA"/>
<path d="M45.7799 170.646C49.8431 170.41 53.0346 173.838 52.9607 178.359C52.8868 182.851 49.5476 186.589 45.4992 186.707C41.6133 186.825 38.5548 183.53 38.5252 179.201C38.4957 174.695 41.7315 170.883 45.7947 170.646H45.7799Z" fill="#627EEA"/>
<path d="M102.384 166.938C106.447 166.627 109.698 169.981 109.698 174.488C109.698 178.994 106.418 182.777 102.369 182.983C98.4687 183.176 95.3511 179.94 95.2624 175.64C95.1738 171.134 98.3505 167.263 102.399 166.938H102.384Z" fill="#627EEA"/>
<path d="M356.593 150.271C360.656 150.005 363.863 153.418 363.818 157.925C363.759 162.431 360.464 166.169 356.401 166.317C352.515 166.465 349.427 163.185 349.383 158.87C349.339 154.364 352.545 150.522 356.608 150.271H356.593Z" fill="#627EEA"/>
<path d="M462.842 151.483C462.769 146.976 465.96 143.12 470.023 142.825C474.086 142.529 477.322 145.927 477.293 150.434C477.263 154.763 474.205 158.472 470.319 158.856C466.255 159.255 462.931 155.975 462.857 151.483H462.842Z" fill="#627EEA"/>
<path d="M251.127 165.046C251.201 169.553 247.995 173.409 243.946 173.69C239.883 173.985 236.647 170.587 236.692 166.08C236.721 161.751 239.794 158.043 243.68 157.673C247.744 157.274 251.068 160.569 251.142 165.061L251.127 165.046Z" fill="#627EEA"/>
<path d="M179.954 169.819C179.984 165.312 183.264 161.544 187.327 161.367C191.376 161.19 194.523 164.677 194.405 169.198C194.287 173.527 191.139 177.132 187.239 177.413C183.175 177.709 179.94 174.325 179.969 169.819H179.954Z" fill="#627EEA"/>
<path d="M321.398 160.392C321.487 155.9 324.841 152.192 328.904 152.073C332.938 151.97 336.041 155.546 335.849 160.067C335.671 164.381 332.45 167.942 328.55 168.149C324.486 168.371 321.31 164.913 321.413 160.392H321.398Z" fill="#627EEA"/>
<path d="M17.6182 172.493C21.6814 172.153 24.9615 175.493 24.9763 179.999C24.9911 184.506 21.7553 188.318 17.6921 188.539C13.7914 188.761 10.6442 185.555 10.526 181.24C10.4078 176.734 13.5698 172.833 17.6182 172.493Z" fill="#627EEA"/>
<path d="M617.924 141.258C617.88 145.765 614.57 149.503 610.507 149.666C606.473 149.813 603.326 146.297 603.488 141.775C603.636 137.461 606.813 133.87 610.714 133.605C614.777 133.339 617.983 136.752 617.939 141.258H617.924Z" fill="#627EEA"/>
<path d="M441.167 144.715C445.23 144.376 448.51 147.715 448.525 152.221C448.54 156.728 445.289 160.525 441.241 160.761C437.34 160.983 434.193 157.777 434.09 153.462C433.971 148.956 437.133 145.055 441.182 144.715H441.167Z" fill="#627EEA"/>
<path d="M159.387 163.2C163.421 163.037 166.568 166.554 166.435 171.075C166.302 175.552 162.889 179.231 158.841 179.29C154.969 179.334 151.955 175.965 152 171.636C152.044 167.13 155.339 163.377 159.402 163.215L159.387 163.2Z" fill="#627EEA"/>
<path d="M300.019 186.5C303.801 186.352 306.697 189.588 306.564 193.814C306.431 198.01 303.284 201.393 299.487 201.438C295.881 201.467 293.104 198.364 293.133 194.331C293.163 190.12 296.221 186.648 300.004 186.5H300.019Z" fill="#627EEA"/>
<path d="M504.745 180.575C504.716 184.786 501.687 188.259 497.889 188.421C494.092 188.584 491.196 185.363 491.329 181.122C491.447 177.088 494.358 173.779 497.993 173.498C501.775 173.217 504.775 176.364 504.76 180.561L504.745 180.575Z" fill="#627EEA"/>
<path d="M695.228 160.584C691.446 160.939 688.55 164.588 688.713 168.799C688.86 172.803 691.786 175.729 695.421 175.493C699.203 175.241 702.188 171.695 702.128 167.484C702.069 163.273 699.026 160.23 695.228 160.584Z" fill="#627EEA"/>
<path d="M724.232 158.678C720.45 158.9 717.451 162.446 717.48 166.642C717.51 170.676 720.332 173.719 723.952 173.601C727.749 173.498 730.822 170.07 730.896 165.844C730.97 161.619 728.015 158.442 724.232 158.678Z" fill="#627EEA"/>
<path d="M137.15 204.541C137.195 208.737 134.21 212.298 130.428 212.534C126.793 212.756 123.867 209.83 123.734 205.826C123.587 201.615 126.483 197.98 130.265 197.626C134.062 197.271 137.106 200.33 137.15 204.541Z" fill="#627EEA"/>
<path d="M525.903 171.68C529.686 171.37 532.715 174.473 532.715 178.684C532.715 182.718 529.922 186.16 526.302 186.559C522.505 186.988 519.402 183.973 519.284 179.792C519.181 175.581 522.106 171.991 525.889 171.68H525.903Z" fill="#627EEA"/>
<path d="M45.9129 203.166C49.6954 203.019 52.5913 206.284 52.4436 210.51C52.2958 214.706 49.1487 218.09 45.3514 218.104C41.7462 218.134 38.9833 215.016 39.0128 210.983C39.0571 206.772 42.1156 203.314 45.8981 203.166H45.9129Z" fill="#627EEA"/>
<path d="M406.608 186.929C406.622 182.718 409.651 179.231 413.449 179.053C417.246 178.876 420.157 182.097 420.024 186.323C419.905 190.356 417.024 193.681 413.375 193.962C409.592 194.257 406.578 191.125 406.593 186.914L406.608 186.929Z" fill="#627EEA"/>
<path d="M674.159 169.317C674.203 173.513 671.219 177.073 667.436 177.31C663.801 177.546 660.876 174.621 660.743 170.617C660.595 166.406 663.491 162.771 667.274 162.417C671.071 162.062 674.129 165.12 674.174 169.317H674.159Z" fill="#627EEA"/>
<path d="M582.655 167.957C586.438 167.661 589.452 170.779 589.452 174.99C589.452 179.024 586.63 182.451 583.025 182.85C579.227 183.264 576.125 180.25 576.036 176.054C575.947 171.843 578.873 168.267 582.67 167.957H582.655Z" fill="#627EEA"/>
<path d="M237.194 198.069C237.194 193.858 240.223 190.356 244.005 190.164C247.788 189.972 250.713 193.178 250.61 197.404C250.507 201.438 247.625 204.777 243.991 205.073C240.208 205.383 237.179 202.265 237.179 198.054L237.194 198.069Z" fill="#627EEA"/>
<path d="M180.457 201.763C180.472 197.552 183.5 194.065 187.298 193.888C191.095 193.71 194.006 196.931 193.873 201.157C193.755 205.191 190.873 208.515 187.224 208.796C183.441 209.091 180.427 205.959 180.442 201.748L180.457 201.763Z" fill="#627EEA"/>
<path d="M321.901 192.661C321.827 188.45 324.797 184.889 328.579 184.623C332.199 184.372 335.154 187.283 335.317 191.272C335.494 195.469 332.613 199.133 328.83 199.517C325.033 199.901 321.96 196.872 321.886 192.661H321.901Z" fill="#627EEA"/>
<path d="M470.215 175.345C474.012 175.182 476.908 178.418 476.775 182.644C476.642 186.84 473.51 190.238 469.713 190.283C466.108 190.327 463.315 187.224 463.345 183.191C463.374 178.98 466.418 175.507 470.2 175.345H470.215Z" fill="#627EEA"/>
<path d="M102.473 199.458C106.255 199.207 109.24 202.369 109.181 206.595C109.122 210.806 106.063 214.263 102.266 214.396C98.6312 214.514 95.8091 211.515 95.75 207.481C95.6909 203.285 98.6755 199.724 102.458 199.473L102.473 199.458Z" fill="#627EEA"/>
<path d="M74.3849 201.305C78.1821 200.98 81.1963 204.082 81.2111 208.293C81.2111 212.327 78.4185 215.77 74.8133 216.183C71.0161 216.612 67.8985 213.612 67.7951 209.431C67.6769 205.22 70.6024 201.615 74.3849 201.305Z" fill="#627EEA"/>
<path d="M554.952 169.774C558.734 169.627 561.63 172.892 561.482 177.118C561.335 181.314 558.187 184.697 554.39 184.712C550.785 184.742 548.022 181.624 548.052 177.59C548.096 173.38 551.154 169.922 554.937 169.774H554.952Z" fill="#627EEA"/>
<path d="M17.8989 204.999C21.6961 204.837 24.5921 208.058 24.4591 212.298C24.3261 216.494 21.1938 219.893 17.3965 219.937C13.7913 219.981 10.9988 216.878 11.0284 212.845C11.0579 208.634 14.0869 205.162 17.8841 204.999H17.8989Z" fill="#627EEA"/>
<path d="M603.991 173.646C604.168 169.464 607.345 166.095 611.127 166.11C614.895 166.11 617.658 169.479 617.377 173.719C617.111 177.768 614.127 180.93 610.463 181.048C606.695 181.166 603.814 177.871 603.976 173.646H603.991Z" fill="#627EEA"/>
<path d="M215.194 192.07C218.991 191.849 221.931 195.026 221.857 199.251C221.783 203.462 218.71 206.89 214.898 206.994C211.278 207.097 208.456 204.053 208.426 200.02C208.397 195.823 211.411 192.277 215.179 192.07H215.194Z" fill="#627EEA"/>
<path d="M159.092 195.749C162.889 195.424 165.903 198.527 165.918 202.738C165.918 206.772 163.125 210.214 159.52 210.628C155.723 211.057 152.605 208.057 152.502 203.876C152.384 199.665 155.309 196.06 159.092 195.749Z" fill="#627EEA"/>
<path d="M272.034 188.332C275.831 188.17 278.727 191.405 278.594 195.631C278.461 199.827 275.329 203.225 271.532 203.27C267.927 203.314 265.134 200.211 265.164 196.178C265.193 191.967 268.222 188.495 272.019 188.332H272.034Z" fill="#627EEA"/>
<path d="M434.577 184.963C434.651 180.752 437.739 177.325 441.536 177.221C445.304 177.118 448.185 180.413 447.993 184.638C447.816 188.657 444.861 191.937 441.241 192.144C437.444 192.366 434.503 189.174 434.577 184.963Z" fill="#627EEA"/>
<path d="M639.141 179.172C635.388 179.231 632.552 175.877 632.773 171.666C632.995 167.455 636.186 164.175 639.998 164.249C643.633 164.308 646.307 167.455 646.189 171.518C646.071 175.714 642.939 179.127 639.141 179.172Z" fill="#627EEA"/>
<path d="M392.069 188.288C391.891 192.47 388.715 195.839 384.932 195.824C381.165 195.824 378.402 192.455 378.682 188.214C378.948 184.166 381.933 181.004 385.597 180.886C389.365 180.767 392.246 184.062 392.084 188.288H392.069Z" fill="#627EEA"/>
<path d="M356.756 182.776C360.538 182.629 363.434 185.865 363.301 190.09C363.168 194.286 360.021 197.67 356.224 197.714C352.619 197.744 349.841 194.641 349.87 190.607C349.9 186.396 352.958 182.924 356.741 182.776H356.756Z" fill="#627EEA"/>
<path d="M406.933 217.661C407.095 213.79 410.065 210.569 413.537 210.466C417.024 210.362 419.787 213.421 419.728 217.292C419.669 221.34 416.551 224.739 412.917 224.709C409.444 224.679 406.755 221.532 406.933 217.661Z" fill="#627EEA"/>
<path d="M328.299 230.279C324.826 230.324 322.093 227.206 322.211 223.335C322.329 219.464 325.24 216.198 328.727 216.036C332.362 215.873 335.243 219.139 335.007 223.187C334.785 227.058 331.771 230.235 328.299 230.279Z" fill="#627EEA"/>
<path d="M548.377 208.752C548.377 204.881 551.169 201.512 554.656 201.216C558.306 200.906 561.275 204.053 561.172 208.102C561.069 211.973 558.173 215.253 554.686 215.43C551.199 215.608 548.377 212.623 548.377 208.752Z" fill="#627EEA"/>
<path d="M180.782 232.761C180.826 228.89 183.663 225.566 187.15 225.315C190.785 225.063 193.725 228.255 193.577 232.303C193.43 236.174 190.489 239.41 187.002 239.528C183.515 239.647 180.738 236.618 180.782 232.747V232.761Z" fill="#627EEA"/>
<path d="M96.075 238.317C96.1193 234.446 98.9562 231.121 102.443 230.87C106.078 230.619 109.018 233.81 108.87 237.859C108.723 241.73 105.782 244.966 102.295 245.084C98.8084 245.202 96.0307 242.173 96.075 238.302V238.317Z" fill="#627EEA"/>
<path d="M215.312 223.483C218.799 223.365 221.576 226.394 221.532 230.265C221.488 234.314 218.4 237.727 214.765 237.727C211.293 237.727 208.589 234.594 208.737 230.723C208.884 226.852 211.825 223.616 215.312 223.498V223.483Z" fill="#627EEA"/>
<path d="M74.6952 232.703C78.1822 232.599 80.9451 235.628 80.9008 239.514C80.8417 243.562 77.7389 246.961 74.1042 246.946C70.632 246.946 67.9429 243.784 68.1054 239.913C68.2679 236.042 71.2082 232.806 74.6952 232.703Z" fill="#627EEA"/>
<path d="M434.902 215.829C435.065 211.958 438.035 208.737 441.507 208.634C444.994 208.53 447.757 211.589 447.698 215.46C447.639 219.508 444.521 222.906 440.886 222.877C437.414 222.847 434.725 219.7 434.902 215.829Z" fill="#627EEA"/>
<path d="M639.319 195.661C642.806 195.336 645.731 198.187 645.879 202.044C646.027 206.078 643.086 209.653 639.452 209.86C635.965 210.067 633.128 207.112 633.098 203.241C633.069 199.369 635.846 195.986 639.333 195.661H639.319Z" fill="#627EEA"/>
<path d="M724.04 190.106C720.553 190.416 717.761 193.799 717.79 197.67C717.82 201.542 720.642 204.511 724.129 204.305C727.764 204.098 730.719 200.537 730.586 196.503C730.453 192.647 727.527 189.78 724.04 190.091V190.106Z" fill="#627EEA"/>
<path d="M362.976 220.971C362.947 224.842 360.11 228.166 356.623 228.418C352.988 228.684 350.048 225.492 350.196 221.444C350.343 217.573 353.269 214.337 356.756 214.204C360.243 214.071 363.02 217.1 362.991 220.971H362.976Z" fill="#627EEA"/>
<path d="M52.1185 241.125C52.1924 244.981 49.4442 248.424 45.972 248.793C42.3373 249.192 39.2936 246.104 39.3379 242.055C39.3674 238.184 42.2043 234.845 45.6913 234.594C49.1782 234.343 52.0594 237.253 52.1333 241.11L52.1185 241.125Z" fill="#627EEA"/>
<path d="M237.519 229.038C237.563 225.167 240.415 221.842 243.902 221.606C247.537 221.355 250.477 224.561 250.314 228.609C250.152 232.481 247.212 235.716 243.725 235.835C240.238 235.953 237.46 232.909 237.519 229.038Z" fill="#627EEA"/>
<path d="M504.435 211.81C504.346 215.681 501.45 218.961 497.963 219.153C494.329 219.345 491.433 216.095 491.64 212.047C491.846 208.176 494.831 204.984 498.303 204.925C501.79 204.866 504.524 207.939 504.42 211.825L504.435 211.81Z" fill="#627EEA"/>
<path d="M159.402 227.147C162.889 227.044 165.652 230.072 165.608 233.958C165.548 238.007 162.446 241.405 158.811 241.39C155.339 241.39 152.65 238.228 152.812 234.357C152.975 230.486 155.915 227.25 159.402 227.147Z" fill="#627EEA"/>
<path d="M589.142 205.9C589.216 209.756 586.467 213.199 582.995 213.568C579.36 213.967 576.317 210.879 576.361 206.831C576.391 202.96 579.228 199.62 582.714 199.369C586.201 199.118 589.083 202.029 589.156 205.885L589.142 205.9Z" fill="#627EEA"/>
<path d="M17.7659 250.64C14.279 250.876 11.4126 247.951 11.3535 244.08C11.2944 240.031 14.2938 236.544 17.9433 236.411C21.4302 236.293 24.208 239.337 24.1489 243.208C24.1046 247.079 21.2529 250.404 17.7659 250.64Z" fill="#627EEA"/>
<path d="M695.45 191.982C691.963 192.189 689.097 195.484 689.023 199.37C688.949 203.241 691.712 206.299 695.184 206.211C698.819 206.122 701.848 202.635 701.803 198.586C701.759 194.715 698.922 191.76 695.435 191.982H695.45Z" fill="#627EEA"/>
<path d="M519.609 210.407C519.713 206.535 522.623 203.255 526.095 203.093C529.73 202.916 532.611 206.181 532.39 210.229C532.168 214.1 529.184 217.292 525.711 217.336C522.239 217.381 519.506 214.293 519.609 210.421V210.407Z" fill="#627EEA"/>
<path d="M299.93 217.927C303.417 217.75 306.239 220.72 306.254 224.591C306.268 228.639 303.225 232.097 299.59 232.156C296.103 232.215 293.37 229.142 293.473 225.256C293.562 221.385 296.458 218.105 299.945 217.912L299.93 217.927Z" fill="#627EEA"/>
<path d="M136.825 235.923C136.737 239.794 133.841 243.074 130.354 243.267C126.719 243.459 123.823 240.208 124.03 236.16C124.237 232.289 127.221 229.097 130.694 229.038C134.181 228.979 136.914 232.052 136.811 235.938L136.825 235.923Z" fill="#627EEA"/>
<path d="M391.758 219.079C391.729 222.951 388.892 226.275 385.405 226.526C381.77 226.792 378.83 223.601 378.978 219.552C379.126 215.681 382.051 212.445 385.538 212.312C389.025 212.179 391.803 215.208 391.773 219.079H391.758Z" fill="#627EEA"/>
<path d="M470.023 206.772C473.51 206.521 476.377 209.431 476.45 213.302C476.524 217.336 473.525 220.852 469.89 220.985C466.403 221.118 463.625 218.089 463.655 214.218C463.685 210.347 466.521 207.023 470.008 206.772H470.023Z" fill="#627EEA"/>
<path d="M617.111 204.112C617.17 207.983 614.408 211.382 610.921 211.736C607.286 212.106 604.272 209.003 604.316 204.954C604.375 201.083 607.227 197.774 610.714 197.537C614.201 197.301 617.052 200.241 617.111 204.112Z" fill="#627EEA"/>
<path d="M667.14 208.057C663.668 208.102 660.935 204.984 661.053 201.113C661.171 197.242 664.082 193.976 667.569 193.814C671.204 193.651 674.085 196.917 673.848 200.965C673.627 204.836 670.613 208.013 667.14 208.057Z" fill="#627EEA"/>
<path d="M271.901 219.759C275.388 219.552 278.225 222.492 278.269 226.364C278.314 230.397 275.285 233.884 271.65 233.988C268.163 234.076 265.415 231.018 265.489 227.147C265.563 223.276 268.429 219.966 271.916 219.759H271.901Z" fill="#627EEA"/>
<path d="M695.657 223.66C692.318 223.748 689.747 226.497 689.57 230.161C689.392 234.047 691.889 236.854 695.362 236.647C698.701 236.455 701.183 233.618 701.242 229.939C701.316 226.231 698.937 223.571 695.642 223.66H695.657Z" fill="#627EEA"/>
<path d="M441.27 240.341C444.595 240.105 447.077 242.631 447.136 246.31C447.195 250.167 444.61 253.21 441.123 253.329C437.813 253.447 435.419 250.832 435.449 247.123C435.479 243.429 437.946 240.563 441.27 240.341Z" fill="#627EEA"/>
<path d="M74.5474 264.395C77.8719 264.203 80.3098 266.774 80.3393 270.453C80.3689 274.324 77.7389 277.309 74.2371 277.398C70.9422 277.471 68.5782 274.797 68.6521 271.103C68.726 267.409 71.223 264.587 74.5474 264.395Z" fill="#627EEA"/>
<path d="M17.9137 268.119C21.2234 267.986 23.6317 270.587 23.6022 274.295C23.5726 278.152 20.8983 281.092 17.4113 281.121C14.1164 281.151 11.7967 278.432 11.9297 274.724C12.0479 271.059 14.604 268.252 17.9285 268.119H17.9137Z" fill="#627EEA"/>
<path d="M554.701 232.909C558.04 232.658 560.522 235.14 560.611 238.819C560.699 242.691 558.128 245.734 554.641 245.897C551.332 246.045 548.909 243.459 548.923 239.75C548.923 236.056 551.376 233.175 554.686 232.909H554.701Z" fill="#627EEA"/>
<path d="M582.714 231.063C586.039 230.826 588.521 233.353 588.58 237.032C588.639 240.888 586.054 243.932 582.567 244.05C579.257 244.168 576.863 241.553 576.893 237.859C576.923 234.165 579.39 231.299 582.7 231.063H582.714Z" fill="#627EEA"/>
<path d="M187.224 257.008C190.548 256.816 192.986 259.372 193.016 263.051C193.045 266.922 190.415 269.907 186.928 269.995C183.634 270.084 181.255 267.41 181.329 263.716C181.402 260.022 183.885 257.2 187.209 257.008H187.224Z" fill="#627EEA"/>
<path d="M102.443 262.563C105.768 262.327 108.25 264.854 108.309 268.532C108.368 272.389 105.782 275.432 102.295 275.551C98.9858 275.669 96.5922 273.054 96.6217 269.345C96.6513 265.651 99.1188 262.785 102.443 262.563Z" fill="#627EEA"/>
<path d="M667.554 225.507C670.879 225.359 673.287 227.945 673.287 231.639C673.287 235.495 670.627 238.465 667.141 238.509C663.846 238.554 661.511 235.864 661.615 232.156C661.718 228.477 664.245 225.67 667.569 225.507H667.554Z" fill="#627EEA"/>
<path d="M526.022 234.786C529.346 234.579 531.799 237.12 531.843 240.799C531.887 244.67 529.272 247.67 525.785 247.773C522.49 247.877 520.097 245.232 520.156 241.523C520.215 237.829 522.682 234.993 526.007 234.771L526.022 234.786Z" fill="#627EEA"/>
<path d="M497.86 236.633C501.184 236.322 503.741 238.775 503.873 242.425C504.021 246.296 501.48 249.384 498.008 249.605C494.683 249.812 492.231 247.256 492.201 243.577C492.171 239.883 494.565 236.943 497.875 236.633H497.86Z" fill="#627EEA"/>
<path d="M419.167 248.408C419.108 252.102 416.64 254.954 413.316 255.161C409.843 255.382 407.332 252.605 407.479 248.719C407.627 245.055 410.198 242.277 413.522 242.173C416.817 242.07 419.211 244.715 419.152 248.408H419.167Z" fill="#627EEA"/>
<path d="M391.197 250.034C391.227 253.728 388.848 256.668 385.523 256.978C382.036 257.303 379.451 254.614 379.51 250.743C379.569 247.049 382.051 244.213 385.376 244.006C388.7 243.799 391.153 246.355 391.197 250.034Z" fill="#627EEA"/>
<path d="M616.55 235.347C616.55 239.041 614.112 241.937 610.802 242.203C607.315 242.484 604.759 239.75 604.877 235.864C604.981 232.185 607.507 229.378 610.832 229.215C614.156 229.053 616.565 231.639 616.565 235.347H616.55Z" fill="#627EEA"/>
<path d="M356.46 245.912C359.785 245.616 362.311 248.098 362.429 251.763C362.548 255.634 360.006 258.707 356.519 258.884C353.195 259.062 350.757 256.491 350.757 252.812C350.757 249.118 353.151 246.207 356.475 245.912H356.46Z" fill="#627EEA"/>
<path d="M220.986 261.204C221.015 264.898 218.636 267.838 215.312 268.149C211.825 268.474 209.239 265.785 209.298 261.913C209.357 258.22 211.84 255.383 215.164 255.176C218.488 254.969 220.941 257.525 220.986 261.204Z" fill="#627EEA"/>
<path d="M153.359 265.903C153.27 262.209 155.634 259.224 158.929 258.855C162.416 258.471 165.061 261.101 165.046 264.972C165.046 268.666 162.593 271.547 159.284 271.813C155.945 272.064 153.462 269.582 153.374 265.903H153.359Z" fill="#627EEA"/>
<path d="M328.594 247.729C331.918 247.493 334.401 250.004 334.46 253.698C334.519 257.554 331.933 260.598 328.446 260.716C325.137 260.834 322.743 258.219 322.772 254.526C322.802 250.832 325.27 247.966 328.579 247.729H328.594Z" fill="#627EEA"/>
<path d="M124.591 267.498C124.636 263.804 127.103 260.953 130.428 260.731C133.9 260.495 136.426 263.272 136.279 267.158C136.131 270.823 133.575 273.6 130.236 273.719C126.926 273.822 124.547 271.192 124.591 267.498Z" fill="#627EEA"/>
<path d="M724.38 221.769C721.056 221.887 718.485 224.665 718.337 228.329C718.189 232.038 720.494 234.771 723.789 234.771C727.143 234.771 729.758 232.097 729.995 228.433C730.246 224.532 727.823 221.651 724.38 221.769Z" fill="#627EEA"/>
<path d="M39.8845 273.143C39.8845 269.449 42.3225 266.553 45.6321 266.287C49.1191 266.006 51.6752 268.739 51.557 272.625C51.4536 276.304 48.927 279.112 45.6026 279.274C42.2781 279.422 39.8698 276.836 39.8698 273.143H39.8845Z" fill="#627EEA"/>
<path d="M271.96 251.452C275.285 251.275 277.708 253.846 277.723 257.54C277.723 261.411 275.093 264.381 271.606 264.454C268.311 264.528 265.947 261.839 266.035 258.145C266.124 254.466 268.621 251.644 271.946 251.467L271.96 251.452Z" fill="#627EEA"/>
<path d="M299.856 249.62C303.181 249.413 305.633 251.955 305.678 255.634C305.722 259.505 303.107 262.504 299.62 262.607C296.325 262.711 293.931 260.066 293.99 256.357C294.049 252.664 296.517 249.827 299.841 249.605L299.856 249.62Z" fill="#627EEA"/>
<path d="M475.904 244.73C475.83 248.423 473.333 251.245 470.008 251.437C466.536 251.63 464.039 248.822 464.231 244.936C464.409 241.272 466.979 238.524 470.319 238.435C473.614 238.361 475.978 241.036 475.904 244.73Z" fill="#627EEA"/>
<path d="M238.066 259.992C238.14 256.299 240.637 253.477 243.961 253.284C247.433 253.092 249.915 255.9 249.738 259.786C249.561 263.45 246.99 266.198 243.651 266.272C240.356 266.346 237.992 263.686 238.066 259.978V259.992Z" fill="#627EEA"/>
<path d="M751.98 219.966C748.671 220.277 746.277 223.217 746.307 226.911C746.336 230.59 748.804 233.146 752.128 232.939C755.6 232.732 758.142 229.629 757.994 225.758C757.861 222.109 755.305 219.656 751.98 219.966Z" fill="#627EEA"/>
<path d="M639.673 227.324C642.983 227.221 645.362 229.851 645.317 233.544C645.273 237.401 642.584 240.326 639.082 240.326C635.802 240.326 633.497 237.593 633.63 233.884C633.778 230.22 636.334 227.442 639.673 227.324Z" fill="#627EEA"/>
<path d="M271.753 283.781C274.694 283.5 277.383 286.233 277.383 289.514C277.383 292.779 274.723 296.014 271.798 296C268.606 295.97 266.7 294.005 266.39 290.503C266.109 287.283 268.798 284.062 271.753 283.781Z" fill="#627EEA"/>
<path d="M470.038 270.779C472.978 270.572 475.623 273.349 475.579 276.63C475.534 279.924 472.816 283.101 469.89 283.013C466.714 282.909 464.822 280.929 464.571 277.398C464.35 274.147 467.068 270.985 470.023 270.779H470.038Z" fill="#627EEA"/>
<path d="M549.248 271.739C549.248 268.474 551.893 265.356 554.833 265.223C557.789 265.075 560.492 267.927 560.241 271.192C559.96 274.738 558.069 276.969 554.878 277.442C551.938 277.885 549.263 275.034 549.248 271.739Z" fill="#627EEA"/>
<path d="M582.714 263.391C585.655 263.184 588.3 265.962 588.255 269.242C588.211 272.537 585.492 275.714 582.567 275.625C579.39 275.522 577.499 273.542 577.248 270.01C577.026 266.76 579.745 263.598 582.7 263.391H582.714Z" fill="#627EEA"/>
<path d="M238.391 292.188C238.346 288.923 240.991 285.79 243.931 285.613C246.887 285.436 249.62 288.243 249.384 291.523C249.132 295.084 247.256 297.315 244.064 297.832C241.139 298.305 238.42 295.483 238.376 292.203L238.391 292.188Z" fill="#627EEA"/>
<path d="M610.802 261.544C613.757 261.411 616.343 264.248 616.225 267.528C616.107 270.823 613.329 273.97 610.433 273.793C607.271 273.6 605.395 271.606 605.232 268.06C605.084 264.794 607.862 261.692 610.802 261.559V261.544Z" fill="#627EEA"/>
<path d="M633.955 266.287C633.881 263.021 636.496 259.874 639.452 259.667C642.407 259.461 645.155 262.253 644.948 265.518C644.726 269.079 642.85 271.31 639.673 271.872C636.762 272.374 634.014 269.567 633.955 266.287Z" fill="#627EEA"/>
<path d="M215.327 287.489C218.282 287.416 220.823 290.326 220.66 293.592C220.483 296.887 217.646 299.975 214.765 299.738C211.618 299.487 209.771 297.448 209.668 293.887C209.579 290.607 212.401 287.549 215.341 287.489H215.327Z" fill="#627EEA"/>
<path d="M661.925 264.499C661.836 261.234 664.422 258.072 667.377 257.835C670.332 257.599 673.095 260.362 672.918 263.642C672.726 267.218 670.849 269.449 667.687 270.04C664.776 270.572 662.014 267.779 661.925 264.499Z" fill="#627EEA"/>
<path d="M695.347 256.003C692.392 256.254 689.688 259.446 689.939 262.667C690.22 266.183 692.111 268.148 695.302 268.222C698.243 268.281 700.917 265.075 700.932 261.795C700.947 258.515 698.287 255.767 695.347 256.003Z" fill="#627EEA"/>
<path d="M181.654 295.616C181.772 292.321 184.535 289.321 187.46 289.321C190.415 289.321 193.031 292.291 192.646 295.527C192.233 299.058 190.297 301.23 187.076 301.555C184.121 301.851 181.535 298.881 181.654 295.616Z" fill="#627EEA"/>
<path d="M724.114 254.112C721.159 254.348 718.44 257.54 718.706 260.776C718.987 264.292 720.878 266.272 724.07 266.331C727.01 266.39 729.684 263.184 729.714 259.904C729.729 256.624 727.069 253.876 724.129 254.112H724.114Z" fill="#627EEA"/>
<path d="M752.246 252.265C749.306 252.398 746.513 255.501 746.676 258.766C746.839 262.327 748.715 264.322 751.877 264.499C754.773 264.676 757.565 261.529 757.669 258.234C757.787 254.969 755.201 252.117 752.246 252.25V252.265Z" fill="#627EEA"/>
<path d="M159.18 291.169C162.121 290.962 164.765 293.754 164.721 297.02C164.677 300.314 161.958 303.491 159.033 303.402C155.856 303.299 153.965 301.319 153.728 297.788C153.507 294.537 156.225 291.375 159.195 291.169H159.18Z" fill="#627EEA"/>
<path d="M130.62 293.045C133.575 292.986 136.116 295.896 135.939 299.147C135.762 302.442 132.925 305.53 130.043 305.293C126.896 305.027 125.049 303.003 124.946 299.442C124.857 296.162 127.679 293.119 130.62 293.045Z" fill="#627EEA"/>
<path d="M17.8102 300.447C20.7653 300.285 23.3658 303.107 23.2771 306.372C23.1885 309.667 20.4255 312.829 17.5147 312.681C14.3528 312.519 12.4616 310.539 12.2695 306.993C12.0922 303.742 14.8552 300.61 17.7955 300.447H17.8102Z" fill="#627EEA"/>
<path d="M45.5582 298.615C48.4985 298.305 51.2024 301.009 51.2467 304.289C51.2911 307.554 48.6463 310.819 45.706 310.819C42.4998 310.819 40.5938 308.869 40.2539 305.382C39.9289 302.176 42.6032 298.925 45.5582 298.615Z" fill="#627EEA"/>
<path d="M74.5474 296.724C77.5025 296.561 80.1029 299.383 80.0143 302.664C79.9256 305.958 77.1627 309.106 74.2519 308.958C71.09 308.795 69.2135 306.801 69.0067 303.269C68.8294 300.019 71.5924 296.886 74.5474 296.724Z" fill="#627EEA"/>
<path d="M96.9468 301.216C97.0354 297.921 99.7836 294.906 102.709 294.877C105.664 294.847 108.309 297.802 107.94 301.038C107.541 304.57 105.62 306.756 102.414 307.111C99.4586 307.436 96.8581 304.496 96.9468 301.216Z" fill="#627EEA"/>
<path d="M390.872 282.111C390.872 285.391 388.198 288.479 385.257 288.597C382.302 288.716 379.598 285.864 379.879 282.599C380.175 279.053 382.081 276.836 385.272 276.378C388.212 275.965 390.887 278.831 390.872 282.111Z" fill="#627EEA"/>
<path d="M351.067 284.889C350.979 281.623 353.564 278.461 356.519 278.225C359.474 277.989 362.237 280.752 362.06 284.032C361.868 287.607 359.992 289.838 356.83 290.429C353.919 290.961 351.156 288.169 351.067 284.889Z" fill="#627EEA"/>
<path d="M407.804 280.781C407.923 277.487 410.686 274.487 413.611 274.487C416.566 274.487 419.181 277.457 418.797 280.693C418.384 284.224 416.448 286.396 413.227 286.721C410.272 287.017 407.686 284.047 407.804 280.781Z" fill="#627EEA"/>
<path d="M435.774 279.171C435.774 275.905 438.419 272.788 441.359 272.655C444.314 272.507 447.018 275.359 446.767 278.624C446.486 282.17 444.595 284.401 441.403 284.874C438.463 285.317 435.789 282.465 435.774 279.171Z" fill="#627EEA"/>
<path d="M328.535 280.057C331.475 279.806 334.149 282.554 334.135 285.834C334.135 289.114 331.446 292.321 328.505 292.276C325.314 292.217 323.423 290.252 323.127 286.736C322.861 283.5 325.565 280.308 328.52 280.057H328.535Z" fill="#627EEA"/>
<path d="M492.511 275.093C492.703 271.798 495.525 268.858 498.436 268.931C501.391 269.005 503.947 272.049 503.489 275.27C503.002 278.787 501.037 280.929 497.816 281.18C494.861 281.402 492.319 278.343 492.511 275.093Z" fill="#627EEA"/>
<path d="M299.679 281.949C302.619 281.638 305.323 284.342 305.367 287.622C305.412 290.888 302.767 294.153 299.826 294.153C296.62 294.153 294.714 292.203 294.374 288.716C294.049 285.509 296.724 282.259 299.679 281.949Z" fill="#627EEA"/>
<path d="M531.518 272.743C531.592 276.009 528.977 279.156 526.022 279.362C523.081 279.569 520.318 276.777 520.51 273.512C520.717 269.951 522.609 267.72 525.77 267.158C528.681 266.656 531.429 269.463 531.503 272.743H531.518Z" fill="#627EEA"/>
<path d="M408.351 312.238C408.573 308.751 410.065 306.505 413.257 306.268C416.404 306.032 418.191 307.909 418.206 311.41C418.206 314.691 416.522 316.744 413.582 317.099C410.42 317.468 408.765 315.592 408.351 312.238Z" fill="#627EEA"/>
<path d="M723.907 285.908C720.967 286.263 719.283 288.332 719.297 291.612C719.312 295.113 721.1 296.975 724.262 296.724C727.453 296.488 728.946 294.227 729.153 290.74C728.739 287.401 727.069 285.524 723.907 285.908Z" fill="#627EEA"/>
<path d="M356.224 309.889C359.593 309.992 361.484 311.573 361.454 315.119C361.425 318.621 359.607 320.69 356.46 320.852C353.505 321 351.806 319.212 351.688 315.932C351.555 312.356 353.535 310.613 356.224 309.889Z" fill="#627EEA"/>
<path d="M525.8 298.792C528.918 298.837 530.853 300.373 530.883 303.919C530.898 307.421 529.124 309.519 525.963 309.726C523.008 309.933 521.249 308.175 521.116 304.909C520.969 301.408 522.756 299.442 525.8 298.792Z" fill="#627EEA"/>
<path d="M497.83 300.625C500.948 300.669 502.883 302.205 502.913 305.752C502.928 309.253 501.155 311.351 497.993 311.558C495.038 311.765 493.28 310.007 493.147 306.741C492.999 303.24 494.787 301.275 497.83 300.625Z" fill="#627EEA"/>
<path d="M390.355 313.139C389.926 316.803 388.286 318.931 385.124 318.975C381.962 319.005 380.308 316.966 380.485 313.494C380.647 310.214 382.45 308.293 385.405 308.101C388.641 307.894 390.03 310.036 390.37 313.139H390.355Z" fill="#627EEA"/>
<path d="M17.692 332.125C20.78 332.229 22.6861 333.825 22.6417 337.371C22.5974 340.887 20.7653 342.926 17.6181 343.074C14.6631 343.207 12.9491 341.404 12.8753 338.139C12.7866 334.623 14.6187 332.717 17.692 332.125Z" fill="#627EEA"/>
<path d="M276.851 320.483C276.614 323.955 275.093 326.186 271.901 326.393C268.754 326.6 266.981 324.708 266.996 321.207C267.01 317.927 268.71 315.888 271.665 315.562C274.841 315.223 276.467 317.114 276.851 320.483Z" fill="#627EEA"/>
<path d="M182.2 326.614C182.614 323.216 184.269 321.103 187.431 321.088C190.593 321.088 192.233 323.127 192.041 326.614C191.863 329.894 190.046 331.83 187.091 331.963C183.899 332.111 182.407 330.072 182.186 326.629L182.2 326.614Z" fill="#627EEA"/>
<path d="M577.765 301.171C577.957 297.684 579.449 295.424 582.641 295.158C585.788 294.906 587.59 296.753 587.62 300.255C587.649 303.536 585.98 305.604 583.025 305.974C579.863 306.373 578.193 304.496 577.765 301.157V301.171Z" fill="#627EEA"/>
<path d="M662.472 295.261C662.826 291.833 664.437 289.676 667.613 289.588C670.775 289.499 672.46 291.508 672.327 294.995C672.209 298.276 670.435 300.241 667.48 300.448C664.289 300.669 662.752 298.689 662.472 295.261Z" fill="#627EEA"/>
<path d="M210.17 325.27C210.377 321.783 211.869 319.522 215.061 319.286C218.208 319.049 220.01 320.896 220.025 324.398C220.04 327.678 218.37 329.747 215.415 330.101C212.253 330.485 210.584 328.609 210.17 325.27Z" fill="#627EEA"/>
<path d="M135.422 329.422C135.2 333.175 133.708 335.435 130.516 335.672C127.369 335.908 125.567 334.061 125.552 330.559C125.537 327.279 127.207 325.24 130.162 324.856C133.368 324.442 134.89 326.481 135.422 329.437V329.422Z" fill="#627EEA"/>
<path d="M695.155 287.785C692.214 288.124 690.53 290.193 690.53 293.473C690.53 296.975 692.318 298.837 695.465 298.615C698.656 298.379 700.149 296.133 700.37 292.661C699.957 289.307 698.316 287.43 695.14 287.799L695.155 287.785Z" fill="#627EEA"/>
<path d="M159.136 322.847C162.224 322.95 164.13 324.546 164.086 328.092C164.041 331.608 162.209 333.647 159.062 333.795C156.107 333.928 154.393 332.125 154.319 328.86C154.231 325.344 156.063 323.438 159.136 322.847Z" fill="#627EEA"/>
<path d="M639.26 291.36C642.377 291.39 644.328 292.927 644.357 296.458C644.387 299.96 642.614 302.058 639.452 302.294C636.497 302.501 634.738 300.757 634.591 297.492C634.428 293.99 636.216 292.025 639.26 291.36Z" fill="#627EEA"/>
<path d="M299.93 313.612C303.003 313.804 304.835 315.474 304.717 319.005C304.599 322.521 302.693 324.516 299.575 324.575C296.635 324.634 294.965 322.773 294.965 319.492C294.965 315.946 296.842 314.114 299.93 313.612Z" fill="#627EEA"/>
<path d="M605.734 298.94C606.104 295.527 607.729 293.37 610.906 293.311C614.068 293.252 615.737 295.261 615.59 298.748C615.457 302.028 613.669 303.993 610.714 304.17C607.522 304.362 606 302.368 605.734 298.94Z" fill="#627EEA"/>
<path d="M40.7267 336.484C41.037 332.731 42.6032 330.529 45.7798 330.382C48.9418 330.234 50.6705 332.169 50.5966 335.656C50.5375 338.937 48.8088 340.916 45.8537 341.227C42.6179 341.552 41.1847 339.439 40.7119 336.484H40.7267Z" fill="#627EEA"/>
<path d="M97.4935 332.465C97.789 329.008 99.3404 326.821 102.532 326.659C105.694 326.511 107.423 328.447 107.349 331.934C107.29 335.214 105.561 337.223 102.606 337.489C99.4291 337.785 97.8334 335.849 97.4935 332.451V332.465Z" fill="#627EEA"/>
<path d="M238.937 323.187C239.233 319.729 240.784 317.542 243.976 317.38C247.138 317.232 248.866 319.168 248.793 322.655C248.733 325.935 247.005 327.944 244.05 328.21C240.873 328.506 239.277 326.57 238.937 323.172V323.187Z" fill="#627EEA"/>
<path d="M333.573 317.38C333.071 320.734 331.342 322.788 328.195 322.684C325.033 322.595 323.467 320.468 323.762 316.996C324.028 313.701 325.905 311.854 328.845 311.81C332.037 311.765 333.47 313.863 333.588 317.38H333.573Z" fill="#627EEA"/>
<path d="M559.739 302.073C559.428 305.515 557.862 307.717 554.686 307.85C551.524 307.983 549.81 306.032 549.884 302.545C549.958 299.265 551.701 297.256 554.641 297.005C557.818 296.724 559.414 298.674 559.724 302.073H559.739Z" fill="#627EEA"/>
<path d="M470.274 302.442C473.303 302.708 475.121 304.437 474.943 307.953C474.766 311.47 472.816 313.42 469.698 313.42C466.758 313.42 465.133 311.499 465.177 308.219C465.236 304.673 467.157 302.885 470.274 302.442Z" fill="#627EEA"/>
<path d="M440.857 304.348C444.226 304.392 446.161 305.929 446.176 309.475C446.191 312.977 444.403 315.075 441.256 315.281C438.301 315.474 436.572 313.73 436.409 310.465C436.232 306.904 438.168 305.116 440.857 304.348Z" fill="#627EEA"/>
<path d="M751.921 284.061C748.981 284.386 747.282 286.44 747.282 289.72C747.282 293.222 749.055 295.099 752.202 294.877C755.393 294.655 756.901 292.424 757.137 288.937C756.738 285.583 755.098 283.692 751.936 284.046L751.921 284.061Z" fill="#627EEA"/>
<path d="M74.1928 328.387C77.5468 328.52 79.4381 330.131 79.379 333.677C79.3199 337.193 77.473 339.232 74.3406 339.351C71.3855 339.469 69.7011 337.666 69.6125 334.386C69.5091 330.796 71.5037 329.082 74.1928 328.387Z" fill="#627EEA"/>
</g>
</svg>
