<svg width="2384" height="1241" viewBox="0 0 2384 1241" fill="none" xmlns="http://www.w3.org/2000/svg">
<g opacity="0.5">
<path d="M916.276 1182.41L1042.25 1188.91L1035.31 850.806L916.276 1182.41Z" fill="#F0B90B"/>
<path d="M1287.32 1201.6L1432.32 1209.13L1181.94 850.806L1287.32 1201.6Z" fill="#F0B90B"/>
<path d="M1743.43 1225.22L2041 1240.63L1308.07 803.898C1308.07 803.898 1531.54 1020.56 1743.43 1225.22Z" fill="#F0B90B"/>
<path d="M2383.35 1195L2328.07 954.84L1384.01 727.553L2383.35 1195Z" fill="#F0B90B"/>
<path d="M2287.63 779.21L2250.78 619.205L1490.92 664.988L2287.63 779.21Z" fill="#F0B90B"/>
<path d="M2217.91 476.358L2187.91 346.073L1578.3 551.328L2217.91 476.358Z" fill="#F0B90B"/>
<path d="M2149.19 177.88L2108.22 0L1372.57 454.888L2149.19 177.88Z" fill="#F0B90B"/>
<path d="M1662.17 29.2197L1469.85 41.9389L1237.66 419.7L1662.17 29.2197Z" fill="#F0B90B"/>
<path d="M1217.69 58.5955L1096.88 66.5957V387.449L1217.69 58.5955Z" fill="#F0B90B"/>
<path d="M858.181 82.3774L724.927 91.1902L950.246 402.105L858.181 82.3774Z" fill="#F0B90B"/>
<path d="M474.92 107.691L279.352 120.629L803.617 419.7L474.92 107.691Z" fill="#F0B90B"/>
<path d="M0 216.662V357.479L621.424 498.108L0 216.662Z" fill="#F0B90B"/>
<path d="M0 505.452V631.143L612.799 617.893L0 505.452Z" fill="#F0B90B"/>
<path d="M0 758.803V897.276L665.769 703.895L0 758.803Z" fill="#F0B90B"/>
<path d="M0 1078.81V1134.97L183.443 1144.44L761.084 771.616L0 1078.81Z" fill="#F0B90B"/>
<path d="M507.608 1161.25L662.707 1169.28L876.932 830.274L507.608 1161.25Z" fill="#F0B90B"/>
</g>
</svg>
