<svg width="390" height="580" viewBox="0 0 390 580" fill="none" xmlns="http://www.w3.org/2000/svg">
<g opacity="0.5">
<path d="M265.038 232.055C252.476 227.617 247.197 220.566 248.378 209.848C249.291 201.67 256.18 194.566 264.322 193.439C275.041 191.935 282.324 197.25 287.066 210.027C293.454 196.498 300.719 191.578 310.686 194.011C319.741 196.23 325.861 204.122 325.521 213.122C325.181 222.105 318.435 229.693 309.398 231.231C299.681 232.896 292.112 227.348 287.066 214.339C284.4 224.664 278.548 230.909 267.919 232.072C273.234 233.307 278.262 235.043 281.823 239.427C285.42 243.847 287.048 248.875 286.135 254.512C284.668 263.584 276.991 270.295 268.008 270.599C259.008 270.903 251.152 264.748 248.951 255.675C246.553 245.762 251.295 238.801 265.002 232.055H265.038Z" fill="#677B9E"/>
<path d="M248.271 168.78C252.727 156.254 262.121 150.474 272.768 153.677C281.608 156.343 287.03 164.163 286.529 173.54C286.064 182.218 279.157 189.859 270.621 191.13C261.459 192.508 253.049 187.73 249.577 179.194C249.094 177.995 248.718 176.743 248.289 175.526V168.798L248.271 168.78Z" fill="#677B9E"/>
<path d="M230.52 193.277C243.028 197.733 248.808 207.128 245.605 217.793C242.956 226.632 235.136 232.072 225.76 231.553C217.081 231.088 209.458 224.181 208.188 215.627C206.81 206.465 211.57 198.037 220.123 194.566C221.322 194.083 222.575 193.707 223.791 193.277H230.52Z" fill="#677B9E"/>
<path d="M246.321 175.508C244.138 183.847 238.859 189.126 230.52 191.309H223.792C211.516 186.925 205.754 177.888 208.51 167.366C210.55 159.565 217.35 153.713 225.134 153.069C233.83 152.335 241.507 156.809 244.835 164.593C245.426 165.953 245.82 167.384 246.321 168.78V175.508Z" fill="#677B9E"/>
<path d="M267.543 114.059C277.761 114.131 286.386 122.845 286.314 133.063C286.243 143.245 277.403 152.031 267.328 151.959C257.2 151.87 248.486 143.03 248.557 132.866C248.629 122.63 257.343 114.005 267.543 114.077V114.059Z" fill="#677B9E"/>
<path d="M227.138 232.591C237.212 232.573 245.981 241.288 246.088 251.452C246.195 261.867 237.32 270.724 226.923 270.563C216.687 270.402 208.188 261.723 208.259 251.506C208.331 241.342 217.045 232.609 227.156 232.591H227.138Z" fill="#677B9E"/>
<path d="M188.092 191.023C177.893 191.076 169.178 182.433 169.124 172.216C169.071 162.016 177.714 153.284 187.931 153.248C198.077 153.194 206.917 161.927 206.989 172.055C207.06 182.129 198.256 190.969 188.092 191.023Z" fill="#677B9E"/>
<path d="M325.503 172.412C325.342 182.648 316.645 191.165 306.445 191.076C296.281 190.986 287.567 182.254 287.549 172.162C287.549 161.855 296.657 152.961 306.964 153.212C317.2 153.462 325.646 162.23 325.485 172.412H325.503Z" fill="#677B9E"/>
<path d="M187.878 193.546C198.024 193.474 206.881 202.171 206.971 212.317C207.078 222.391 198.292 231.249 188.128 231.338C177.928 231.428 169.196 222.803 169.124 212.567C169.035 202.367 177.66 193.635 187.878 193.546Z" fill="#677B9E"/>
<path d="M227.066 114.059C237.266 113.987 245.981 122.63 246.052 132.866C246.106 143.012 237.409 151.87 227.281 151.959C217.206 152.049 208.367 143.245 208.295 133.063C208.224 122.863 216.849 114.131 227.066 114.059Z" fill="#677B9E"/>
<path d="M187.752 114.453C197.898 114.292 206.327 122.505 206.488 132.705C206.649 142.851 198.435 151.297 188.235 151.458C178.089 151.619 169.661 143.406 169.5 133.206C169.339 123.06 177.552 114.614 187.752 114.453Z" fill="#677B9E"/>
<path d="M325.181 132.705C325.36 142.761 317.146 151.261 306.982 151.548C296.747 151.834 287.996 143.227 288.014 132.92C288.032 122.791 296.353 114.435 306.499 114.363C316.574 114.292 325.002 122.559 325.181 132.723V132.705Z" fill="#677B9E"/>
<path d="M169.428 251.667C169.411 241.556 177.713 233.164 187.842 233.039C198.131 232.913 206.774 241.61 206.595 251.881C206.416 262.028 197.97 270.313 187.895 270.223C177.767 270.134 169.446 261.777 169.428 251.649V251.667Z" fill="#677B9E"/>
<path d="M306.571 270.313C296.317 270.295 287.71 261.527 287.943 251.327C288.175 241.216 296.603 232.931 306.624 232.967C316.878 232.985 325.485 241.753 325.252 251.953C325.02 262.063 316.591 270.348 306.571 270.313Z" fill="#677B9E"/>
<path d="M363.994 172.341C363.886 182.684 355.655 190.611 345.276 190.378C335.202 190.146 327.436 182.075 327.525 171.929C327.632 161.586 335.864 153.659 346.243 153.892C356.317 154.124 364.083 162.195 363.994 172.341Z" fill="#677B9E"/>
<path d="M245.39 290.82C245.39 301.181 237.248 309.197 226.869 309.072C216.759 308.947 208.921 300.966 208.921 290.82C208.921 280.459 217.063 272.442 227.442 272.567C237.552 272.692 245.39 280.673 245.39 290.82Z" fill="#677B9E"/>
<path d="M363.994 212.657C363.886 223 355.655 230.927 345.276 230.694C335.202 230.462 327.436 222.391 327.525 212.245C327.632 201.902 335.864 193.975 346.243 194.208C356.317 194.44 364.083 202.511 363.994 212.657Z" fill="#677B9E"/>
<path d="M285.67 290.855C285.67 301.198 277.492 309.233 267.132 309.072C257.021 308.929 249.184 300.948 249.201 290.802C249.201 280.459 257.379 272.424 267.74 272.585C277.85 272.728 285.688 280.709 285.67 290.855Z" fill="#677B9E"/>
<path d="M165.85 171.948C165.921 182.112 158.155 190.129 148.063 190.272C137.666 190.415 129.578 182.434 129.614 172.055C129.649 161.927 137.541 154.035 147.687 154.017C157.833 153.999 165.778 161.837 165.85 171.966V171.948Z" fill="#677B9E"/>
<path d="M165.85 212.299C165.903 222.463 158.101 230.462 148.009 230.569C137.612 230.694 129.542 222.678 129.614 212.299C129.667 202.171 137.594 194.297 147.723 194.297C157.869 194.297 165.778 202.153 165.85 212.281V212.299Z" fill="#677B9E"/>
<path d="M285.545 92.6391C285.545 102.785 277.689 110.712 267.579 110.784C257.2 110.856 249.201 102.785 249.309 92.3886C249.416 82.2783 257.397 74.4764 267.561 74.5301C277.689 74.5837 285.545 82.511 285.545 92.657V92.6391Z" fill="#677B9E"/>
<path d="M245.283 92.3886C245.39 102.57 237.642 110.623 227.567 110.784C217.153 110.945 209.047 103 209.047 92.6391C209.047 82.493 216.92 74.5837 227.048 74.5301C237.194 74.4764 245.175 82.2962 245.283 92.4065V92.3886Z" fill="#677B9E"/>
<path d="M147.454 150.885C137.451 150.76 129.56 142.475 129.81 132.4C130.061 122.63 138.149 114.9 148.009 115.025C158.012 115.15 165.903 123.435 165.653 133.51C165.402 143.28 157.314 151.01 147.454 150.885Z" fill="#677B9E"/>
<path d="M345.795 269.668C335.667 269.686 327.74 261.795 327.722 251.667C327.704 241.538 335.595 233.593 345.706 233.575C355.834 233.558 363.761 241.449 363.779 251.577C363.779 261.705 355.906 269.65 345.795 269.668Z" fill="#677B9E"/>
<path d="M306.642 272.782C316.735 272.8 324.626 280.763 324.608 290.873C324.59 300.983 316.645 308.875 306.517 308.857C296.425 308.839 288.533 300.894 288.551 290.766C288.569 280.656 296.514 272.764 306.642 272.782Z" fill="#677B9E"/>
<path d="M346.064 114.954C356.049 115.079 363.869 123.167 363.743 133.26C363.618 143.262 355.53 151.082 345.455 150.957C335.47 150.832 327.65 142.743 327.776 132.651C327.901 122.648 335.989 114.828 346.064 114.954Z" fill="#677B9E"/>
<path d="M188.253 272.817C198.256 272.925 206.094 280.977 205.987 291.07C205.879 301.091 197.827 308.928 187.752 308.821C177.749 308.714 169.912 300.661 170.019 290.569C170.126 280.548 178.179 272.71 188.253 272.817Z" fill="#677B9E"/>
<path d="M205.915 92.6753C205.915 102.714 197.755 110.731 187.681 110.588C177.892 110.445 170.055 102.446 170.073 92.6216C170.073 82.5828 178.232 74.566 188.307 74.7092C198.095 74.8523 205.933 82.8511 205.915 92.6753Z" fill="#677B9E"/>
<path d="M306.642 110.605C296.586 110.623 288.605 102.624 288.641 92.5499C288.677 82.5111 296.747 74.566 306.821 74.6733C316.61 74.7628 324.465 82.6543 324.555 92.4425C324.644 102.517 316.699 110.587 306.66 110.605H306.642Z" fill="#677B9E"/>
<path d="M165.688 251.845C165.599 261.866 157.475 269.758 147.383 269.615C137.398 269.471 129.56 261.276 129.775 251.165C129.971 241.395 137.952 233.647 147.794 233.683C157.833 233.719 165.778 241.771 165.688 251.863V251.845Z" fill="#677B9E"/>
<path d="M328.008 289.996C328.563 280.297 337.063 272.531 346.565 273.068C356.263 273.623 364.029 282.14 363.475 291.642C362.92 301.341 354.42 309.107 344.918 308.57C335.22 308.016 327.453 299.498 328.008 289.996Z" fill="#677B9E"/>
<path d="M386.111 154.429C395.738 154.482 403.88 162.786 403.719 172.377C403.558 182.04 395.202 190.128 385.646 189.86C376.18 189.609 368.342 181.61 368.306 172.198C368.271 162.589 376.502 154.375 386.093 154.429H386.111Z" fill="#677B9E"/>
<path d="M285.133 330.957C285.259 340.548 277.081 348.815 267.472 348.851C257.88 348.869 249.667 340.62 249.738 331.028C249.81 321.598 257.683 313.635 267.132 313.42C276.705 313.205 285.026 321.312 285.151 330.957H285.133Z" fill="#677B9E"/>
<path d="M403.719 212.406C403.755 222.016 395.506 230.229 385.932 230.175C376.305 230.104 368.163 221.801 368.324 212.227C368.485 202.797 376.413 194.87 385.843 194.745C395.416 194.619 403.701 202.797 403.737 212.406H403.719Z" fill="#677B9E"/>
<path d="M226.923 348.851C217.278 348.672 209.19 340.297 209.458 330.742C209.727 321.079 218.191 313.044 227.693 313.42C237.159 313.778 244.943 321.866 244.871 331.243C244.799 340.888 236.496 349.03 226.923 348.851Z" fill="#677B9E"/>
<path d="M126.16 172.359C125.999 181.843 117.893 189.806 108.48 189.735C98.8173 189.663 90.6038 181.181 90.9796 171.625C91.3554 162.088 99.5688 154.268 108.928 154.518C118.429 154.787 126.321 162.946 126.16 172.341V172.359Z" fill="#677B9E"/>
<path d="M227.478 35.8606C218.119 35.628 209.906 43.4837 209.566 53.0036C209.226 62.5592 217.457 71.0413 227.12 71.0592C236.55 71.0771 244.621 63.0961 244.746 53.63C244.871 44.2353 236.962 36.0933 227.478 35.8606Z" fill="#677B9E"/>
<path d="M147.472 273.158C157.046 272.979 165.402 281.21 165.367 290.855C165.349 300.286 157.421 308.302 147.973 308.499C138.4 308.678 130.043 300.447 130.079 290.802C130.097 281.371 138.024 273.355 147.472 273.158Z" fill="#677B9E"/>
<path d="M386.004 269.149C376.573 269.149 368.61 261.204 368.521 251.738C368.432 242.093 376.735 233.879 386.326 234.094C395.828 234.309 403.648 242.361 403.54 251.774C403.415 261.24 395.434 269.149 386.004 269.131V269.149Z" fill="#677B9E"/>
<path d="M165.313 92.8005C165.187 102.267 157.135 110.266 147.705 110.248C138.042 110.248 129.81 101.766 130.132 92.1922C130.455 82.6723 138.65 74.8165 148.027 75.0313C157.511 75.2639 165.438 83.4059 165.313 92.8005Z" fill="#677B9E"/>
<path d="M108.784 194.834C118.251 194.995 126.214 203.083 126.16 212.514C126.106 222.194 117.624 230.408 108.087 230.05C98.5668 229.692 90.7291 221.461 90.9796 212.102C91.2301 202.6 99.3899 194.691 108.784 194.852V194.834Z" fill="#677B9E"/>
<path d="M324.107 331.028C324.179 340.459 316.323 348.475 306.839 348.654C297.23 348.833 288.963 340.584 289.088 330.957C289.213 321.491 297.194 313.581 306.625 313.599C316.055 313.617 324.018 321.562 324.107 331.01V331.028Z" fill="#677B9E"/>
<path d="M346.028 74.9778C355.691 75.1746 363.797 83.6744 363.403 93.1942C363.01 102.714 354.85 110.498 345.491 110.301C335.828 110.104 327.722 101.605 328.116 92.0848C328.509 82.565 336.669 74.7809 346.028 74.9778Z" fill="#677B9E"/>
<path d="M267.686 35.8607C258.31 35.6818 250.132 43.5733 249.846 53.0753C249.559 62.4342 257.379 70.6656 266.917 71.0593C276.455 71.453 284.954 63.2393 285.026 53.5584C285.098 44.1459 277.153 36.0218 267.686 35.8429V35.8607Z" fill="#677B9E"/>
<path d="M403.451 132.705C403.63 142.189 395.81 150.224 386.272 150.403C376.806 150.581 368.772 142.762 368.593 133.206C368.414 123.722 376.234 115.687 385.771 115.508C395.237 115.329 403.272 123.149 403.451 132.705Z" fill="#677B9E"/>
<path d="M187.842 348.565C178.304 348.457 170.466 340.458 170.574 330.957C170.681 321.419 178.68 313.563 188.164 313.671C197.702 313.778 205.539 321.777 205.432 331.279C205.325 340.816 197.326 348.672 187.842 348.565Z" fill="#677B9E"/>
<path d="M108.785 150.188C99.1395 150.313 91.3912 142.672 91.3375 133.027C91.3017 123.382 98.9784 115.687 108.623 115.705C118.054 115.741 125.605 123.167 125.784 132.58C125.981 142.243 118.412 150.062 108.785 150.17V150.188Z" fill="#677B9E"/>
<path d="M306.696 36.1291C297.302 36.0754 289.589 43.5016 289.285 52.9319C288.981 62.5233 296.568 70.5578 306.213 70.7726C315.804 71.0052 323.767 63.3106 323.91 53.6835C324.054 44.0742 316.323 36.1828 306.696 36.1112V36.1291Z" fill="#677B9E"/>
<path d="M188.969 36.2545C179.27 35.7355 171.254 42.9828 170.824 52.6279C170.395 62.3087 177.696 70.3074 187.341 70.6653C196.789 71.0232 204.627 63.9549 205.199 54.5425C205.79 44.8258 198.632 36.7555 188.987 36.2545H188.969Z" fill="#677B9E"/>
<path d="M125.891 251.846C125.766 261.473 117.821 269.167 108.23 268.971C98.6026 268.756 90.9796 260.757 91.2659 251.148C91.5522 241.718 99.2289 234.273 108.641 234.309C118.269 234.345 126.017 242.236 125.891 251.846Z" fill="#677B9E"/>
<path d="M91.6597 290.515C91.7849 281.049 99.3184 273.766 108.874 273.891C118.34 274.017 125.605 281.55 125.48 291.124C125.355 300.59 117.821 307.873 108.266 307.748C98.7995 307.622 91.5344 300.089 91.6597 290.515Z" fill="#677B9E"/>
<path d="M386.219 307.783C376.627 307.855 369.147 300.536 369.076 290.998C369.004 281.407 376.305 273.909 385.843 273.837C395.434 273.766 402.914 281.085 402.986 290.622C403.057 300.214 395.756 307.711 386.219 307.783Z" fill="#677B9E"/>
<path d="M362.705 330.992C362.759 340.584 355.422 348.046 345.885 348.099C336.293 348.153 328.849 340.816 328.796 331.261C328.742 321.669 336.061 314.207 345.616 314.154C355.208 314.1 362.652 321.437 362.705 330.992Z" fill="#677B9E"/>
<path d="M147.973 314.207C157.457 314.315 164.74 321.83 164.633 331.386C164.526 340.87 157.028 348.171 147.472 348.064C137.988 347.956 130.705 340.441 130.813 330.885C130.92 321.401 138.418 314.1 147.973 314.207Z" fill="#677B9E"/>
<path d="M345.652 36.5408C336.15 36.5766 328.796 44.0385 328.849 53.5762C328.885 63.0781 336.329 70.4328 345.867 70.397C355.369 70.3612 362.723 62.8992 362.67 53.3615C362.634 43.8596 355.19 36.505 345.652 36.5408Z" fill="#677B9E"/>
<path d="M148.009 36.6125C138.471 36.4873 130.884 43.9313 130.884 53.4511C130.884 62.7561 138.167 70.1822 147.436 70.3075C156.974 70.4328 164.561 62.9888 164.561 53.469C164.561 44.1639 157.278 36.7378 148.027 36.6125H148.009Z" fill="#677B9E"/>
<path d="M267.436 353.468C276.956 353.468 284.4 361.055 284.257 370.593C284.131 379.862 276.705 387.163 267.418 387.163C257.898 387.163 250.454 379.576 250.597 370.038C250.723 360.769 258.149 353.468 267.436 353.468Z" fill="#677B9E"/>
<path d="M386.165 75.7115C395.667 75.7652 403.003 83.2272 402.932 92.7648C402.878 102.267 395.416 109.603 385.878 109.55C376.377 109.496 369.04 102.034 369.111 92.4964C369.165 82.9945 376.627 75.6578 386.165 75.7115Z" fill="#677B9E"/>
<path d="M91.7314 92.7647C91.6777 83.227 99.1933 75.7292 108.731 75.8008C118 75.8724 125.355 83.2449 125.409 92.5321C125.462 102.07 117.947 109.567 108.409 109.496C99.1396 109.424 91.785 102.052 91.7314 92.7647Z" fill="#677B9E"/>
<path d="M227.138 353.468C236.658 353.468 244.102 361.037 243.994 370.575C243.887 379.844 236.479 387.145 227.174 387.163C217.654 387.163 210.21 379.593 210.317 370.056C210.424 360.786 217.833 353.486 227.138 353.468Z" fill="#677B9E"/>
<path d="M211.176 9.18005C210.657 10.7905 210.389 12.5083 210.389 14.2977C210.389 23.4953 217.851 30.993 227.048 31.0645C236.246 31.1182 243.797 23.728 243.941 14.5483C243.941 13.3315 243.833 12.1505 243.601 10.9874L211.176 9.19797V9.18005Z" fill="#677B9E"/>
<path d="M250.919 11.3811C250.776 12.1685 250.687 12.9738 250.651 13.7969C250.418 22.9946 257.666 30.725 266.81 31.0471C275.989 31.3513 283.791 24.1577 284.167 15.0137C284.185 14.4053 284.167 13.8148 284.149 13.2243L250.902 11.3811H250.919Z" fill="#677B9E"/>
<path d="M69.3454 195.657C78.5431 195.621 86.0766 203.03 86.1839 212.227C86.2913 221.64 78.6147 229.334 69.2022 229.227C60.0225 229.119 52.5963 221.568 52.6321 212.37C52.6679 203.173 60.1477 195.693 69.3275 195.657H69.3454Z" fill="#677B9E"/>
<path d="M306.517 387.073C297.427 387.037 289.893 379.486 289.857 370.378C289.822 361.055 297.641 353.36 306.946 353.557C316.037 353.754 323.445 361.43 323.338 370.521C323.212 379.629 315.625 387.091 306.517 387.055V387.073Z" fill="#677B9E"/>
<path d="M69.4705 188.893C60.3623 188.929 52.7751 181.449 52.6677 172.341C52.5604 163.018 60.3086 155.27 69.6137 155.377C78.7219 155.502 86.1838 163.089 86.1302 172.198C86.0944 181.306 78.5609 188.839 69.4526 188.875L69.4705 188.893Z" fill="#677B9E"/>
<path d="M204.698 370.342C204.698 379.414 197.04 387.055 187.967 387.037C178.895 387.037 171.272 379.379 171.29 370.306C171.29 361.234 178.948 353.593 188.021 353.611C197.093 353.611 204.716 361.269 204.698 370.342Z" fill="#677B9E"/>
<path d="M69.2202 149.579C60.2014 149.454 52.5785 141.562 52.7932 132.615C53.0258 123.561 60.953 116.009 69.8823 116.332C78.7221 116.654 86.0588 124.223 86.023 133.009C85.9872 142.028 78.1853 149.722 69.2202 149.579Z" fill="#677B9E"/>
<path d="M386.469 314.494C395.524 314.798 403.021 322.797 402.628 331.708C402.216 340.781 394.182 348.225 385.288 347.724C376.413 347.223 369.201 339.546 369.398 330.796C369.613 321.741 377.54 314.172 386.469 314.476V314.494Z" fill="#677B9E"/>
<path d="M173.133 7.0686C172.041 9.25171 171.397 11.6853 171.397 14.2263C171.379 23.2272 179.127 30.9576 188.11 30.886C197.129 30.8144 204.788 22.9946 204.627 14.0116C204.591 12.1685 204.233 10.397 203.607 8.75068L173.133 7.0686Z" fill="#677B9E"/>
<path d="M289.965 13.5466C289.965 13.6719 289.947 13.7793 289.929 13.9045C289.696 22.9233 297.284 30.7967 306.374 30.9399C315.053 31.083 322.586 23.997 323.195 15.3898L289.965 13.5466Z" fill="#677B9E"/>
<path d="M86.0767 251.863C85.9335 260.953 78.06 268.541 69.0413 268.308C59.9688 268.075 52.4174 260.113 52.7395 251.13C53.0616 242.254 60.6667 234.899 69.4886 234.953C78.5432 235.007 86.2198 242.827 86.0588 251.863H86.0767Z" fill="#677B9E"/>
<path d="M385.521 36.9521C376.394 37.31 368.897 45.4878 369.559 54.3813C370.221 63.3644 378.112 70.4864 386.791 69.9496C395.738 69.3948 402.95 61.5391 402.502 52.8245C402.037 43.8773 394.253 36.5942 385.521 36.9521Z" fill="#677B9E"/>
<path d="M362.186 371.058C361.65 380.041 353.848 387.216 345.133 386.787C335.971 386.322 328.599 378.18 329.314 369.286C330.048 360.267 337.94 353.235 346.618 353.861C355.601 354.506 362.705 362.361 362.168 371.058H362.186Z" fill="#677B9E"/>
<path d="M108.176 36.9701C99.2828 37.2564 91.9103 44.9331 92.1071 53.7192C92.304 62.5948 99.8912 70.0388 108.695 69.9494C117.535 69.8599 125.033 62.3264 125.051 53.4865C125.051 44.4499 117.141 36.6837 108.176 36.9879V36.9701Z" fill="#677B9E"/>
<path d="M108.767 347.634C99.9805 347.777 92.3218 340.351 92.0891 331.457C91.8565 322.474 99.6406 314.547 108.677 314.619C117.517 314.69 125.051 322.242 125.086 331.081C125.122 339.903 117.642 347.508 108.785 347.634H108.767Z" fill="#677B9E"/>
<path d="M85.6471 290.998C85.5398 300.035 78.0778 307.264 69.0948 307.05C60.0582 306.853 52.9005 299.319 53.1868 290.336C53.4731 281.497 60.6666 274.536 69.4527 274.554C78.4715 274.589 85.7545 281.98 85.6292 290.981L85.6471 290.998Z" fill="#677B9E"/>
<path d="M329.583 15.7476C330.317 24.0147 337.295 30.5283 345.777 30.5104C353.615 30.4925 360.147 24.9095 361.65 17.5191L329.583 15.7476Z" fill="#677B9E"/>
<path d="M147.472 353.969C156.348 353.79 163.881 361.09 164.06 370.056C164.239 378.949 156.938 386.483 147.991 386.662C139.116 386.841 131.582 379.54 131.403 370.575C131.224 361.681 138.525 354.147 147.472 353.969Z" fill="#677B9E"/>
<path d="M134.534 4.92139C132.745 7.48028 131.671 10.576 131.618 13.9759C131.457 23.102 138.614 30.385 147.723 30.385C156.634 30.385 163.684 23.4421 163.845 14.5486C163.899 11.5781 163.165 8.82242 161.859 6.44247L134.534 4.92139Z" fill="#677B9E"/>
<path d="M69.4169 108.78C60.2908 108.78 53.151 101.497 53.2941 92.3711C53.4373 83.4597 60.5055 76.5167 69.399 76.5167C78.5251 76.5167 85.665 83.7997 85.5218 92.9258C85.3787 101.837 78.3104 108.78 69.4169 108.78Z" fill="#677B9E"/>
<path d="M267.704 425.403C258.685 425.51 251.671 418.728 251.546 409.763C251.438 400.744 258.22 393.712 267.167 393.587C276.186 393.479 283.201 400.261 283.326 409.226C283.433 418.245 276.651 425.277 267.704 425.403Z" fill="#677B9E"/>
<path d="M243.046 409.352C243.117 418.353 236.282 425.349 227.317 425.421C218.316 425.492 211.337 418.639 211.265 409.674C211.194 400.673 218.03 393.676 226.995 393.605C235.995 393.533 242.974 400.387 243.046 409.352Z" fill="#677B9E"/>
<path d="M401.805 370.288C401.805 379.217 394.844 386.161 385.914 386.125C377.003 386.071 370.132 379.056 370.239 370.073C370.346 361.395 377.182 354.595 385.861 354.523C394.808 354.452 401.805 361.359 401.822 370.288H401.805Z" fill="#677B9E"/>
<path d="M13.3539 212.478C13.3539 203.548 20.3148 196.605 29.2441 196.659C38.1555 196.713 45.0269 203.727 44.9195 212.71C44.8122 221.389 37.9765 228.189 29.2978 228.261C20.3506 228.332 13.3539 221.407 13.3539 212.496V212.478Z" fill="#677B9E"/>
<path d="M306.66 393.712C315.572 393.748 322.461 400.762 322.372 409.71C322.282 418.603 315.214 425.439 306.231 425.296C297.588 425.152 290.824 418.263 290.788 409.566C290.752 400.637 297.713 393.676 306.642 393.694L306.66 393.712Z" fill="#677B9E"/>
<path d="M28.8683 187.891C19.9927 187.765 13.157 180.554 13.4075 171.589C13.6402 162.982 20.7084 156.272 29.423 156.379C38.2986 156.504 45.1342 163.716 44.8837 172.681C44.6511 181.288 37.5828 187.998 28.8683 187.891Z" fill="#677B9E"/>
<path d="M172.256 409.298C172.345 400.404 179.521 393.533 188.486 393.748C197.093 393.944 203.839 400.995 203.75 409.709C203.66 418.603 196.485 425.474 187.52 425.26C178.913 425.063 172.166 418.012 172.256 409.298Z" fill="#677B9E"/>
<path d="M124.281 370.217C124.335 379.056 117.248 386.125 108.409 386.035C99.8194 385.964 92.9301 379.038 92.8764 370.431C92.8227 361.592 99.9089 354.523 108.749 354.613C117.338 354.684 124.227 361.609 124.281 370.217Z" fill="#677B9E"/>
<path d="M28.8861 117.262C37.4754 117.137 44.6153 124.008 44.7942 132.562C44.9911 141.384 37.887 148.649 29.083 148.631C20.5116 148.631 13.497 141.634 13.4433 133.063C13.3896 124.474 20.2968 117.387 28.8682 117.28L28.8861 117.262Z" fill="#677B9E"/>
<path d="M97.8152 2.89917C94.7553 5.79809 92.8585 9.89598 92.8943 14.4412C92.9659 23.0127 99.9984 29.9737 108.588 29.9558C117.159 29.9558 124.174 22.9769 124.245 14.3875C124.281 10.4864 122.849 6.90758 120.523 4.15181L97.8331 2.89917H97.8152Z" fill="#677B9E"/>
<path d="M370.776 18.0203C372.44 24.8738 378.542 29.9379 385.914 29.9737C392.786 30.0095 398.548 25.7327 400.767 19.6844L370.794 18.0203H370.776Z" fill="#677B9E"/>
<path d="M69.2559 315.406C78.0957 315.334 85.1818 322.403 85.1281 331.243C85.0744 339.85 78.1851 346.775 69.5959 346.847C60.7561 346.918 53.6699 339.85 53.7236 331.01C53.7773 322.403 60.6666 315.478 69.2559 315.406Z" fill="#677B9E"/>
<path d="M69.7033 37.7751C61.1141 37.632 53.9563 44.4855 53.7416 53.0212C53.5269 61.8431 60.5951 69.1261 69.3991 69.1261C77.9705 69.1261 85.003 62.1652 85.0746 53.5938C85.1462 45.0045 78.2568 37.9005 69.7033 37.7573V37.7751Z" fill="#677B9E"/>
<path d="M44.8122 251.756C44.7407 260.327 37.7261 267.306 29.1547 267.306C20.3685 267.306 13.2645 260.041 13.4792 251.219C13.6761 242.666 20.8338 235.812 29.4231 235.955C37.9766 236.08 44.8838 243.167 44.8301 251.774L44.8122 251.756Z" fill="#677B9E"/>
<path d="M29.1189 275.323C37.5471 275.323 44.8122 282.677 44.6333 291.07C44.4543 299.337 37.3861 306.298 29.1725 306.316C20.7443 306.334 13.4792 298.961 13.6581 290.569C13.8371 282.302 20.9054 275.341 29.1189 275.323Z" fill="#677B9E"/>
<path d="M147.508 425.08C138.99 424.937 131.94 417.618 132.172 409.154C132.387 400.637 139.777 393.64 148.224 393.944C156.527 394.249 163.326 401.317 163.291 409.584C163.237 418.101 155.99 425.205 147.526 425.08H147.508Z" fill="#677B9E"/>
<path d="M361.346 409.405C361.399 417.905 354.349 425.063 345.849 425.117C337.367 425.171 330.209 418.12 330.138 409.602C330.084 401.102 337.134 393.945 345.634 393.891C354.116 393.837 361.274 400.888 361.346 409.405Z" fill="#677B9E"/>
<path d="M29.0651 108.082C20.8337 108.029 13.7655 100.925 13.7118 92.711C13.6581 84.2649 21.1201 76.9461 29.4946 77.2146C37.7797 77.4651 44.7227 84.6765 44.5616 92.8721C44.4185 101.121 37.2608 108.154 29.0472 108.1L29.0651 108.082Z" fill="#677B9E"/>
<path d="M69.6853 355.203C78.1314 355.364 84.8239 362.45 84.4839 370.879C84.1618 379.128 77.3262 385.606 69.1127 385.427C60.6665 385.266 53.974 378.179 54.314 369.751C54.6361 361.502 61.4718 355.024 69.6853 355.203Z" fill="#677B9E"/>
<path d="M252.458 449.381C252.691 441.078 259.419 434.672 267.74 434.815C276.258 434.976 282.789 441.955 282.413 450.526C282.038 458.829 275.22 465.092 266.881 464.806C258.596 464.502 252.243 457.72 252.476 449.381H252.458Z" fill="#677B9E"/>
<path d="M401.017 409.584C400.963 417.905 394.396 424.472 386.075 424.49C377.54 424.526 370.847 417.673 371.044 409.119C371.241 400.816 377.951 394.374 386.254 394.499C394.557 394.625 401.053 401.263 401.017 409.584Z" fill="#677B9E"/>
<path d="M77.6483 1.77205L62.6707 0.948975C57.8392 3.34682 54.5825 8.24985 54.5288 14.1192C54.4572 22.458 60.8276 29.043 69.1127 29.1683C77.6662 29.3115 84.3587 22.6906 84.305 14.155C84.2692 8.89408 81.6566 4.38462 77.6483 1.77205Z" fill="#677B9E"/>
<path d="M227.281 434.905C235.602 434.959 242.044 441.454 242.044 449.775C242.044 458.329 235.334 464.896 226.762 464.699C218.495 464.52 212.142 457.881 212.268 449.543C212.393 441.24 218.942 434.851 227.281 434.905Z" fill="#677B9E"/>
<path d="M123.458 409.37C123.53 417.708 117.141 424.276 108.838 424.401C100.285 424.526 93.6103 417.905 93.6818 409.352C93.7534 401.031 100.249 394.589 108.57 394.589C116.891 394.589 123.386 401.031 123.458 409.352V409.37Z" fill="#677B9E"/>
<path d="M43.9534 330.92C44.0428 339.331 37.7082 345.862 29.3516 345.952C20.9591 346.041 14.4277 339.689 14.3203 331.35C14.2309 322.939 20.5654 316.408 28.9221 316.319C37.3146 316.229 43.846 322.582 43.9534 330.92Z" fill="#677B9E"/>
<path d="M4.72878 172.305C4.6572 180.697 -1.89215 187.014 -10.3204 186.889C-18.6592 186.763 -24.9401 180.143 -24.7612 171.679C-24.5822 163.573 -18.1581 157.363 -9.9804 157.381C-1.58794 157.381 4.80035 163.877 4.72878 172.305Z" fill="#677B9E"/>
<path d="M202.748 449.811C202.748 458.221 196.27 464.628 187.86 464.556C179.485 464.484 173.133 457.953 173.258 449.507C173.383 441.365 179.718 435.102 187.878 435.048C196.306 434.995 202.766 441.401 202.748 449.811Z" fill="#677B9E"/>
<path d="M29.3336 38.7058C20.9053 38.6163 14.4275 45.0225 14.4096 53.415C14.3917 61.8432 20.8158 68.2672 29.2441 68.2136C37.6365 68.1778 43.989 61.6642 43.8996 53.2181C43.8101 45.0582 37.4934 38.7773 29.3336 38.6879V38.7058Z" fill="#677B9E"/>
<path d="M321.334 449.972C321.262 458.364 314.731 464.699 306.285 464.573C297.946 464.448 291.647 457.827 291.844 449.381C292.023 441.275 298.429 435.048 306.607 435.066C314.999 435.066 321.405 441.561 321.334 449.99V449.972Z" fill="#677B9E"/>
<path d="M4.72896 212.55C4.67527 220.942 -1.82038 227.313 -10.2665 227.205C-18.6232 227.098 -24.922 220.513 -24.761 212.066C-24.5999 203.942 -18.2295 197.715 -10.0518 197.697C-1.64145 197.697 4.76475 204.121 4.72896 212.567V212.55Z" fill="#677B9E"/>
<path d="M4.62148 251.398C4.72885 259.755 -1.73103 266.304 -10.0698 266.286C-18.1759 266.268 -24.5642 259.952 -24.6716 251.863C-24.779 243.507 -18.3191 236.957 -9.98032 236.975C-1.87417 236.993 4.51411 243.31 4.62148 251.398Z" fill="#677B9E"/>
<path d="M4.62142 133.045C4.58563 141.384 -1.99952 147.772 -10.392 147.611C-18.4444 147.45 -24.7075 140.99 -24.6717 132.866C-24.6359 124.527 -18.0508 118.139 -9.6583 118.3C-1.60584 118.461 4.6572 124.921 4.62142 133.045Z" fill="#677B9E"/>
<path d="M147.562 464.341C139.563 464.251 133.103 457.631 133.21 449.632C133.3 441.633 139.921 435.173 147.902 435.263C155.9 435.352 162.36 441.973 162.253 449.972C162.163 457.971 155.542 464.43 147.562 464.341Z" fill="#677B9E"/>
<path d="M360.308 449.668C360.379 457.72 354.045 464.252 346.028 464.395C337.761 464.538 331.104 457.953 331.176 449.686C331.247 441.651 337.689 435.245 345.724 435.245C353.758 435.245 360.218 441.633 360.29 449.668H360.308Z" fill="#677B9E"/>
<path d="M4.49612 290.873C4.46033 298.836 -2.12479 305.385 -10.0699 305.35C-18.015 305.314 -24.5643 298.729 -24.5464 290.766C-24.5106 282.803 -17.9255 276.253 -9.98041 276.289C-2.03532 276.325 4.51401 282.91 4.49612 290.873Z" fill="#677B9E"/>
<path d="M29.2083 355.883C37.0639 355.937 43.7922 362.862 43.5596 370.682C43.3269 378.358 36.6881 384.818 29.0651 384.765C21.1916 384.711 14.4813 377.786 14.7139 369.966C14.9465 362.289 21.5853 355.829 29.2083 355.883Z" fill="#677B9E"/>
<path d="M-10.2308 107.134C-18.1222 107.008 -24.7074 100.155 -24.4926 92.2991C-24.2779 84.3898 -17.3707 77.8584 -9.53295 78.1626C-1.83838 78.4489 4.4962 85.0519 4.46041 92.7286C4.42463 100.638 -2.35732 107.277 -10.2308 107.151V107.134Z" fill="#677B9E"/>
<path d="M83.8397 409.781C83.6608 417.655 76.6283 424.293 68.8622 423.936C61.1676 423.578 54.8151 416.831 54.994 409.226C55.173 401.353 62.2055 394.714 69.9716 395.072C77.6662 395.43 84.0187 402.176 83.8397 409.781Z" fill="#677B9E"/>
<path d="M29.0831 0.000325064C21.4423 0.0361138 14.8392 6.69283 14.875 14.3337C14.9108 21.9925 21.5675 28.5955 29.1905 28.5418C36.8314 28.5061 43.4344 21.8493 43.3986 14.2084C43.3628 6.54966 36.7061 -0.053358 29.0831 0.000325064Z" fill="#677B9E"/>
<path d="M385.968 435.639C393.663 435.603 400.248 442.224 400.194 449.9C400.14 457.613 393.466 464.144 385.807 464.001C378.291 463.858 371.993 457.523 371.867 450.008C371.742 442.331 378.273 435.674 385.986 435.639H385.968Z" fill="#677B9E"/>
<path d="M122.581 450.634C122.044 458.525 115.173 464.502 107.46 463.804C99.8015 463.124 94.0396 456.503 94.5406 448.97C95.0774 441.078 101.949 435.102 109.661 435.8C117.32 436.48 123.082 443.101 122.581 450.634Z" fill="#677B9E"/>
<path d="M267.364 502.939C259.688 502.903 253.532 496.747 253.496 489.071C253.46 481.161 259.885 474.862 267.776 475.059C275.453 475.256 281.483 481.519 281.358 489.214C281.25 496.909 275.041 502.993 267.364 502.957V502.939Z" fill="#677B9E"/>
<path d="M3.90587 331.207C3.85219 338.901 -2.28557 345.039 -9.98014 345.057C-17.8715 345.093 -24.1704 338.651 -23.9735 330.741C-23.7767 323.065 -17.4958 317.034 -9.8191 317.16C-2.14242 317.285 3.94167 323.494 3.88799 331.189L3.90587 331.207Z" fill="#677B9E"/>
<path d="M3.7983 53.6655C3.69094 61.378 -2.37526 67.319 -10.1056 67.2832C-18.0328 67.2474 -24.099 60.9128 -23.8485 52.9677C-23.5979 45.291 -17.4065 39.4396 -9.67615 39.6185C-1.98157 39.7974 3.90567 45.9352 3.7983 53.6655Z" fill="#677B9E"/>
<path d="M320.367 488.874C320.421 496.694 314.498 502.724 306.714 502.778C298.912 502.831 292.882 496.908 292.828 489.125C292.774 481.305 298.697 475.275 306.481 475.221C314.283 475.167 320.314 481.09 320.367 488.874Z" fill="#677B9E"/>
<path d="M240.988 489.232C240.863 496.945 234.797 502.886 227.066 502.832C219.139 502.778 213.073 496.444 213.341 488.481C213.592 480.804 219.801 474.97 227.532 475.167C235.226 475.364 241.096 481.502 240.988 489.232Z" fill="#677B9E"/>
<path d="M174.35 488.534C174.546 480.786 180.72 475.078 188.611 475.346C196.342 475.614 201.978 481.842 201.638 489.751C201.316 497.249 195.322 502.814 187.681 502.671C179.915 502.528 174.153 496.408 174.367 488.534H174.35Z" fill="#677B9E"/>
<path d="M29.1546 396.002C36.6344 396.002 42.5754 401.89 42.629 409.369C42.6827 417.1 36.5808 423.13 28.8504 422.987C21.3884 422.862 15.5907 416.849 15.6444 409.334C15.7159 401.854 21.6569 395.984 29.1367 395.984L29.1546 396.002Z" fill="#677B9E"/>
<path d="M345.885 475.507C353.364 475.561 359.234 481.502 359.252 488.999C359.252 496.712 353.096 502.707 345.366 502.51C337.922 502.331 332.16 496.265 332.285 488.749C332.41 481.269 338.387 475.453 345.903 475.525L345.885 475.507Z" fill="#677B9E"/>
<path d="M147.275 502.456C139.885 502.223 134.051 495.996 134.284 488.534C134.517 481.143 140.744 475.31 148.188 475.525C155.578 475.757 161.412 481.984 161.179 489.446C160.947 496.837 154.719 502.67 147.275 502.456Z" fill="#677B9E"/>
<path d="M69.2378 463.231C61.8475 463.124 55.835 456.879 56.0139 449.489C56.1928 442.116 62.5096 436.139 69.882 436.39C77.0398 436.64 82.8554 442.671 82.8376 449.847C82.8197 457.237 76.6282 463.321 69.2557 463.231H69.2378Z" fill="#677B9E"/>
<path d="M-10.034 383.691C-17.3885 383.691 -23.5621 377.356 -23.3832 370.02C-23.2221 362.88 -17.138 356.921 -10.0161 356.939C-2.6615 356.939 3.51206 363.274 3.33312 370.61C3.17207 377.75 -2.91201 383.709 -10.034 383.691Z" fill="#677B9E"/>
<path d="M-9.96247 0.949135C-17.0128 0.913347 -23.1327 6.85418 -23.3296 13.9403C-23.5443 21.1876 -17.3349 27.558 -10.0698 27.5937C-3.01945 27.6295 3.10042 21.6887 3.29725 14.6025C3.51199 7.35532 -2.69736 0.984924 -9.96247 0.949135Z" fill="#677B9E"/>
<path d="M121.615 488.821C121.74 495.907 115.728 502.027 108.623 502.063C101.501 502.098 95.4711 496.032 95.5248 488.91C95.5785 481.985 101.305 476.151 108.248 475.937C115.316 475.722 121.49 481.663 121.615 488.803V488.821Z" fill="#677B9E"/>
<path d="M385.789 502.152C378.703 501.991 372.726 495.782 372.869 488.767C373.03 481.681 379.24 475.686 386.254 475.847C393.341 476.008 399.317 482.218 399.174 489.232C399.013 496.318 392.804 502.313 385.789 502.152Z" fill="#677B9E"/>
<path d="M214.54 527.955C214.648 520.78 220.32 515.375 227.532 515.554C234.689 515.733 240.022 521.46 239.789 528.707C239.556 535.632 234.063 540.875 227.066 540.839C219.873 540.786 214.415 535.184 214.54 527.973V527.955Z" fill="#677B9E"/>
<path d="M267.49 540.821C260.278 540.839 254.767 535.31 254.82 528.099C254.856 520.905 260.457 515.447 267.668 515.555C274.629 515.662 279.98 521.03 280.069 528.009C280.159 535.221 274.683 540.804 267.49 540.839V540.821Z" fill="#677B9E"/>
<path d="M69.4528 501.328C62.5813 501.346 57.0341 495.781 57.0878 488.91C57.1415 482.039 62.7603 476.563 69.6317 476.67C76.2705 476.796 81.6209 482.164 81.7103 488.802C81.7998 495.674 76.3063 501.293 69.4349 501.31L69.4528 501.328Z" fill="#677B9E"/>
<path d="M200.475 528.331C200.404 535.471 194.785 540.857 187.573 540.66C180.702 540.481 175.459 534.988 175.531 528.027C175.602 520.887 181.221 515.501 188.432 515.698C195.304 515.877 200.547 521.37 200.475 528.331Z" fill="#677B9E"/>
<path d="M319.061 528.439C318.936 535.579 313.263 540.911 306.052 540.66C299.18 540.428 294.009 534.899 294.116 527.92C294.242 520.78 299.914 515.447 307.125 515.698C313.997 515.931 319.168 521.46 319.061 528.439Z" fill="#677B9E"/>
<path d="M29.2619 437.32C36.4017 437.374 41.7879 443.011 41.609 450.204C41.43 457.094 35.9543 462.337 29.0113 462.283C21.8715 462.229 16.4853 456.592 16.6642 449.399C16.8432 442.51 22.3188 437.267 29.2619 437.32Z" fill="#677B9E"/>
<path d="M2.45626 409.656C2.38468 416.796 -3.23416 422.182 -10.4456 421.985C-17.317 421.806 -22.5601 416.312 -22.4885 409.352C-22.4169 402.212 -16.7981 396.825 -9.58663 397.022C-2.7152 397.201 2.52784 402.695 2.45626 409.656Z" fill="#677B9E"/>
<path d="M345.849 515.894C352.685 515.948 358.232 521.746 358.017 528.564C357.802 535.185 352.255 540.517 345.634 540.463C338.799 540.41 333.251 534.612 333.466 527.794C333.681 521.173 339.228 515.841 345.849 515.894Z" fill="#677B9E"/>
<path d="M159.98 528.045C160.07 534.827 154.379 540.535 147.597 540.445C141.03 540.374 135.554 534.898 135.483 528.331C135.393 521.549 141.084 515.841 147.866 515.93C154.433 516.002 159.909 521.478 159.98 528.045Z" fill="#677B9E"/>
<path d="M385.592 540.088C379.043 539.802 373.71 533.915 374.158 527.473C374.605 521.12 380.206 516.002 386.451 516.271C393.001 516.557 398.333 522.444 397.886 528.886C397.438 535.239 391.837 540.357 385.592 540.088Z" fill="#677B9E"/>
<path d="M108.767 516.36C115.155 516.485 120.416 521.871 120.38 528.242C120.344 534.845 114.636 540.285 108.087 539.998C101.698 539.712 96.5447 534.183 96.7415 527.83C96.9384 521.424 102.396 516.217 108.767 516.342V516.36Z" fill="#677B9E"/>
<path d="M-10.2845 438.18C-3.7888 438.037 1.45425 443.047 1.59741 449.525C1.74056 456.038 -3.26988 461.281 -9.74765 461.424C-16.2433 461.567 -21.4864 456.557 -21.6295 450.079C-21.7727 443.566 -16.7622 438.323 -10.2845 438.18Z" fill="#677B9E"/>
<path d="M40.5534 488.767C40.6608 495.423 35.7219 500.434 29.101 500.416C22.6949 500.398 17.8455 495.62 17.7381 489.232C17.6307 482.575 22.5696 477.565 29.1905 477.583C35.5967 477.601 40.446 482.378 40.5534 488.767Z" fill="#677B9E"/>
<path d="M317.791 568.361C317.862 574.588 312.816 579.706 306.589 579.706C300.362 579.706 295.315 574.588 295.387 568.343C295.458 562.33 300.326 557.409 306.32 557.266C312.548 557.123 317.719 562.116 317.791 568.343V568.361Z" fill="#677B9E"/>
<path d="M278.655 568.307C278.745 574.641 273.806 579.705 267.489 579.723C261.155 579.741 256.18 574.731 256.216 568.396C256.252 562.294 261.03 557.409 267.114 557.248C273.448 557.087 278.566 561.972 278.655 568.289V568.307Z" fill="#677B9E"/>
<path d="M238.376 568.486C238.376 574.821 233.347 579.795 227.03 579.724C220.714 579.652 215.793 574.552 215.936 568.235C216.061 562.151 220.911 557.356 227.013 557.266C233.347 557.195 238.376 562.151 238.393 568.486H238.376Z" fill="#677B9E"/>
<path d="M188.128 557.356C194.087 557.427 199.115 562.509 199.115 568.468C199.115 574.642 193.729 579.849 187.591 579.616C181.632 579.384 176.729 574.158 176.873 568.218C177.034 562.259 182.169 557.284 188.128 557.356Z" fill="#677B9E"/>
<path d="M69.2916 539.318C63.3328 539.247 58.3045 534.165 58.3045 528.206C58.3045 522.032 63.6907 516.825 69.8284 517.058C75.7873 517.29 80.6903 522.516 80.5472 528.456C80.3861 534.415 75.2505 539.39 69.2916 539.318Z" fill="#677B9E"/>
<path d="M356.693 568.415C356.747 574.248 351.522 579.473 345.688 579.437C339.819 579.402 334.683 574.123 334.808 568.289C334.933 562.617 339.872 557.678 345.527 557.553C351.36 557.41 356.621 562.545 356.675 568.415H356.693Z" fill="#677B9E"/>
<path d="M147.938 579.276C142.193 579.402 137.165 574.642 136.95 568.844C136.718 562.903 141.818 557.66 147.794 557.714C153.556 557.749 158.459 562.652 158.495 568.414C158.549 574.176 153.717 579.133 147.938 579.276Z" fill="#677B9E"/>
<path d="M-10.2307 499.468C-16.1895 499.36 -20.6631 494.636 -20.4842 488.642C-20.3053 482.683 -15.5274 478.281 -9.53284 478.531C-3.80666 478.782 0.470076 483.291 0.434286 489.071C0.398499 495.048 -4.25403 499.575 -10.2486 499.468H-10.2307Z" fill="#677B9E"/>
<path d="M385.932 578.757C380.134 578.704 375.804 574.338 375.786 568.54C375.768 562.527 380.385 558.054 386.415 558.233C392.142 558.412 396.4 562.921 396.293 568.737C396.186 574.499 391.73 578.811 385.95 578.757H385.932Z" fill="#677B9E"/>
<path d="M28.9041 538.37C23.1958 538.262 18.8475 533.717 18.9727 527.955C19.0801 522.247 23.6253 517.898 29.3873 518.006C35.0956 518.113 39.4439 522.658 39.3186 528.42C39.2113 534.129 34.6661 538.477 28.9041 538.37Z" fill="#677B9E"/>
<path d="M118.752 568.432C118.788 574.194 114.386 578.65 108.641 578.668C102.879 578.704 98.4416 574.302 98.4059 568.54C98.3701 562.778 102.772 558.322 108.516 558.304C114.278 558.268 118.716 562.67 118.752 568.432Z" fill="#677B9E"/>
<path d="M69.5602 558.841C74.7854 558.93 79.1337 563.422 79.0621 568.629C78.9726 573.854 74.4811 578.22 69.2739 578.131C64.0487 578.041 59.7004 573.55 59.772 568.343C59.8615 563.118 64.3529 558.751 69.5602 558.841Z" fill="#677B9E"/>
<path d="M37.8514 568.611C37.7798 573.085 33.7715 577.129 29.2979 577.219C24.6454 577.326 20.3507 573.049 20.4223 568.379C20.4938 563.691 24.8959 559.521 29.5305 559.771C34.0041 560.004 37.923 564.173 37.8514 568.611Z" fill="#677B9E"/>
</g>
</svg>
