<svg width="390" height="397" viewBox="0 0 390 397" fill="none" xmlns="http://www.w3.org/2000/svg">
<g opacity="0.5">
<path d="M55.2 378.36L95.51 380.44L93.29 272.25L55.2 378.36Z" fill="#677B9E"/>
<path d="M173.93 384.5L220.33 386.91L140.21 272.25L173.93 384.5Z" fill="#677B9E"/>
<path d="M319.88 392.06L415.1 396.99L180.57 257.24C180.57 257.24 252.08 326.57 319.88 392.06Z" fill="#677B9E"/>
<path d="M524.65 382.39L506.96 305.54L204.87 232.81L524.65 382.39Z" fill="#677B9E"/>
<path d="M494.02 249.34L482.23 198.14L239.08 212.79L494.02 249.34Z" fill="#677B9E"/>
<path d="M471.71 152.43L462.11 110.74L267.04 176.42L471.71 152.43Z" fill="#677B9E"/>
<path d="M449.72 56.92L436.61 0L201.21 145.56L449.72 56.92Z" fill="#677B9E"/>
<path d="M293.88 9.34998L232.34 13.42L158.04 134.3L293.88 9.34998Z" fill="#677B9E"/>
<path d="M151.65 18.75L112.99 21.31V123.98L151.65 18.75Z" fill="#677B9E"/>
<path d="M36.61 26.36L-6.03003 29.18L66.07 128.67L36.61 26.36Z" fill="#677B9E"/>
<path d="M-86.03 34.46L-148.61 38.6L19.15 134.3L-86.03 34.46Z" fill="#677B9E"/>
<path d="M-238 345.21V363.18L-179.3 366.21L5.54001 246.91L-238 345.21Z" fill="#677B9E"/>
<path d="M-75.57 371.59L-25.94 374.16L42.61 265.68L-75.57 371.59Z" fill="#677B9E"/>
</g>
</svg>
