<svg width="358" height="247" viewBox="0 0 358 247" fill="none" xmlns="http://www.w3.org/2000/svg">
<g clip-path="url(#clip0_276_2936)">
<path d="M152.128 41.8023C152.128 41.8023 186.655 4.25092 228.068 23.9656C269.48 43.6802 258.563 87.285 258.563 87.285C258.563 87.285 268.155 77.6672 273.046 82.1464C277.943 86.6316 271.057 96.1075 271.057 96.1075C271.057 96.1075 318.201 91.8125 303.107 152.048C288.013 212.284 231.283 174.411 231.283 174.411C231.283 174.411 229.457 183.991 217.047 184.272C204.638 184.554 200.135 172.757 200.135 172.757C200.135 172.757 202.598 212.381 161.244 216.004C119.891 219.633 109.211 186.275 109.211 186.275C109.211 186.275 99.3723 213.411 74.3284 202.329C49.2843 191.24 66.7556 161.517 66.7556 161.517C66.7556 161.517 8.94129 168.043 19.6364 114.388C27.9362 72.7448 63.4146 82.918 63.4146 82.918C63.4146 82.918 56.3806 67.2368 68.1767 62.6078C79.9727 57.9787 88.1136 65.2115 88.1136 65.2115C88.1136 65.2115 82.5816 33.7704 111.802 28.2281C141.023 22.6859 152.114 41.7966 152.114 41.7966L152.128 41.8023Z" fill="black" stroke="black" stroke-width="3.38672" stroke-miterlimit="10"/>
<path d="M43.6416 60.9761C51.0176 60.5895 56.7027 54.6597 56.3396 47.7314C55.9765 40.8031 49.7027 35.4999 42.3268 35.8865C34.9508 36.2731 29.2657 42.2029 29.6288 49.1312C29.9919 56.0595 36.2657 61.3627 43.6416 60.9761Z" fill="black" stroke="black" stroke-width="3.38672" stroke-miterlimit="10"/>
<path d="M236.662 221.259C239.584 214.868 235.856 207.256 228.333 204.257C220.811 201.257 212.344 204.006 209.421 210.397C206.499 216.787 210.228 224.399 217.75 227.399C225.272 230.398 233.739 227.649 236.662 221.259Z" fill="black" stroke="black" stroke-width="3.38672" stroke-miterlimit="10"/>
<path d="M301.944 42.9801C305.809 34.5295 300.883 24.4653 290.941 20.5012C280.999 16.5371 269.807 20.1742 265.942 28.6248C262.078 37.0754 267.004 47.1396 276.946 51.1037C286.888 55.0678 298.08 51.4308 301.944 42.9801Z" fill="black" stroke="black" stroke-width="3.38672" stroke-miterlimit="10"/>
<path d="M146.98 37.9658C146.98 37.9658 181.507 0.414494 222.92 20.1291C264.332 39.8438 253.415 83.4485 253.415 83.4485C253.415 83.4485 263.007 73.8308 267.898 78.31C272.795 82.7952 265.909 92.2711 265.909 92.2711C265.909 92.2711 313.054 87.9761 297.96 148.212C282.866 208.448 226.135 170.575 226.135 170.575C226.135 170.575 224.309 180.154 211.9 180.436C199.49 180.724 194.987 168.921 194.987 168.921C194.987 168.921 197.45 208.545 156.096 212.167C114.743 215.797 104.063 182.439 104.063 182.439C104.063 182.439 94.2244 209.575 69.1806 198.492C44.1364 187.404 61.6078 157.681 61.6078 157.681C61.6078 157.681 3.79347 164.207 14.4886 110.552C22.7884 68.9083 58.2668 79.0816 58.2668 79.0816C58.2668 79.0816 51.2328 63.4004 63.0288 58.7713C74.8249 54.1423 82.9658 61.375 82.9658 61.375C82.9658 61.375 77.4337 29.934 106.655 24.3917C135.875 18.8494 146.967 37.9602 146.967 37.9602L146.98 37.9658Z" fill="white" stroke="black" stroke-width="3.38672" stroke-miterlimit="10"/>
<path d="M38.4938 57.1397C45.8698 56.7531 51.5549 50.8232 51.1918 43.8949C50.8287 36.9667 44.5549 31.6635 37.1789 32.0501C29.803 32.4366 24.1179 38.3665 24.481 45.2948C24.8441 52.2231 31.1178 57.5262 38.4938 57.1397Z" fill="white" stroke="black" stroke-width="3.38672" stroke-miterlimit="10"/>
<path d="M231.515 217.421C234.437 211.03 230.708 203.419 223.186 200.419C215.664 197.42 207.197 200.169 204.274 206.559C201.352 212.95 205.08 220.562 212.603 223.561C220.125 226.56 228.592 223.811 231.515 217.421Z" fill="white" stroke="black" stroke-width="3.38672" stroke-miterlimit="10"/>
<path d="M296.797 39.1422C300.662 30.6916 295.735 20.6275 285.794 16.6633C275.852 12.6992 264.66 16.3363 260.795 24.7869C256.93 33.2375 261.857 43.3017 271.799 47.2658C281.74 51.2299 292.933 47.5929 296.797 39.1422Z" fill="white" stroke="black" stroke-width="3.38672" stroke-miterlimit="10"/>
<path d="M51.2289 189.091C50.6395 187.4 49.129 182.337 46.615 173.62L38.6916 146.392C30.2839 118.057 27.7438 110.779 26.9883 109.146L24.8854 107.629L27.2412 105.58C37.3044 96.8084 46.2759 90.5793 53.9013 87.0714C58.0773 85.1491 61.6716 84.1344 64.9042 83.965C70.7147 83.6605 75.0973 86.1958 77.5909 91.2964C84.4931 105.236 79.7618 125.1 63.5378 150.346C66.1857 159.164 68.967 167.3 71.8301 174.543L72.4773 176.174L52.5101 192.749L51.2424 189.091L51.2289 189.091ZM54.8785 118.63C55.2719 120.326 55.6862 122.033 56.1194 123.714L56.4117 124.773C59.1129 120.792 60.569 117.328 60.7556 114.432C60.7225 114.447 60.6895 114.461 60.6564 114.476C59.7049 114.913 57.9545 115.99 54.8785 118.63Z" fill="black"/>
<path d="M65.0303 86.501C69.734 86.2545 73.0981 88.2076 75.1229 92.3666C81.738 105.737 76.9047 124.945 60.609 149.985C63.3783 159.311 66.2656 167.791 69.2853 175.439L53.7993 188.296C53.2257 186.648 51.699 181.535 49.2187 172.944L41.2953 145.715C33.8752 120.729 29.8026 107.969 29.0641 107.436C38.9783 98.793 47.6491 92.764 55.0628 89.3498C58.8689 87.5994 62.1891 86.6499 65.0235 86.5014M55.2468 130.695C60.5535 124.264 63.2914 118.787 63.4679 114.278C63.4786 113.578 63.3903 113.055 63.2094 112.702C62.8324 111.965 62.2122 111.623 61.3551 111.668C60.822 111.696 60.1953 111.875 59.4749 112.205C57.6775 113.03 55.1562 114.891 51.91 117.769C52.3977 119.975 52.9253 122.165 53.4924 124.335L55.2401 130.695M64.7645 81.4299C61.1675 81.6184 57.226 82.7212 52.7195 84.7944C44.7437 88.4605 35.811 94.6557 25.4049 103.725L20.7 107.823L24.7439 110.739C25.6335 112.993 28.2663 120.75 36.0966 147.106L44.012 174.31C46.5411 183.057 48.0603 188.158 48.6656 189.893L51.2006 197.204L57.3677 192.081L72.8537 179.225L75.6487 176.904L74.3608 173.635C71.6449 166.747 68.9873 159.036 66.4521 150.689C74.172 138.526 79.3066 127.521 81.7209 117.936C84.4155 107.243 83.8452 97.9099 80.0303 90.1962C77.0964 84.1842 71.6747 81.0614 64.7642 81.4235L64.7645 81.4299Z" fill="black"/>
<path d="M110.249 170.59C101.935 171.026 94.9715 167.145 89.5404 159.064C86.6399 154.723 84.5437 149.588 83.3132 143.799C82.1186 138.179 81.7452 131.829 82.2024 124.928C82.9448 113.269 86.1396 101.921 91.7022 91.205C98.7673 77.6517 107.94 69.7022 118.96 67.5674C120.159 67.3393 121.342 67.1883 122.496 67.1278C130.756 66.6949 137.667 70.5915 143.032 78.7134C146.059 83.2585 148.223 88.5353 149.471 94.4004C150.648 99.945 151.05 106.198 150.655 112.994C149.89 124.609 146.647 135.928 141.004 146.661C133.927 160.126 124.793 168.029 113.853 170.147C112.634 170.383 111.424 170.535 110.257 170.596L110.249 170.59ZM122.331 101.804C122.121 101.815 121.893 101.846 121.665 101.89C118.215 102.56 114.923 106.502 112.139 113.29C109.647 119.199 108.216 124.823 107.873 130.021C107.734 132.666 107.886 135.042 108.309 137.048C108.865 139.65 109.912 141.553 111.517 142.861C112.851 143.916 114.419 144.4 116.268 144.303C116.741 144.278 117.238 144.214 117.754 144.117C121.485 143.394 124.438 140.849 126.779 136.334C128.784 132.498 129.922 128.128 130.166 123.342C130.477 117.656 129.643 112.208 127.692 107.129C125.475 101.639 123.107 101.763 122.324 101.804L122.331 101.804Z" fill="black"/>
<path d="M122.629 69.6635C129.87 69.284 135.905 72.7498 140.735 80.0608C143.606 84.3724 145.632 89.3196 146.818 94.9146C147.959 100.277 148.333 106.264 147.956 112.875C147.215 124.184 144.085 135.078 138.577 145.549C131.857 158.334 123.44 165.704 113.317 167.658C112.225 167.868 111.156 168 110.117 168.055C102.815 168.437 96.7195 164.988 91.8306 157.699C89.0918 153.603 87.1347 148.798 85.966 143.285C84.8081 137.847 84.4561 131.776 84.9033 125.072C85.6263 113.688 88.708 102.765 94.1351 92.3045C100.837 79.4439 109.286 72.0282 119.489 70.0569C120.561 69.8482 121.61 69.7169 122.629 69.6635ZM116.401 146.832C117.008 146.8 117.633 146.723 118.277 146.6C122.846 145.719 126.489 142.661 129.205 137.427C131.382 133.258 132.6 128.598 132.864 123.442C133.197 117.399 132.315 111.667 130.231 106.247C128.279 101.41 125.599 99.0841 122.191 99.2627C121.847 99.2807 121.49 99.3248 121.128 99.3946C116.64 100.265 112.8 104.592 109.608 112.387C107.008 118.555 105.527 124.379 105.165 129.871C105.019 132.771 105.18 135.33 105.649 137.55C106.314 140.693 107.679 143.1 109.729 144.773C111.628 146.275 113.85 146.959 116.394 146.826M122.363 64.5924C121.081 64.6596 119.757 64.8243 118.43 65.0782C106.539 67.3794 96.7279 75.7946 89.2755 90.0929C83.5534 101.122 80.2672 112.793 79.5022 124.796C79.0287 131.902 79.4205 138.473 80.6601 144.307C81.9538 150.398 84.1664 155.819 87.2429 160.418C94.7075 171.532 103.944 173.463 110.376 173.126C111.678 173.058 113.023 172.892 114.369 172.631C126.173 170.347 135.947 161.985 143.417 147.774C149.22 136.734 152.561 125.086 153.344 113.159L153.343 113.14L153.342 113.121C153.746 106.114 153.333 99.6456 152.111 93.8935C150.8 87.7267 148.512 82.164 145.309 77.3548C137.945 66.2103 128.761 64.2634 122.35 64.5994L122.363 64.5924ZM110.565 130.122C110.896 125.204 112.267 119.856 114.638 114.234L114.65 114.208L114.663 114.182C118.016 105.99 121.042 104.592 122.194 104.367C122.295 104.349 122.389 104.337 122.463 104.333C123.05 104.303 124.165 105.566 125.168 108.037C126.986 112.779 127.762 117.887 127.472 123.21C127.245 127.659 126.198 131.693 124.359 135.209C121.458 140.795 118.276 141.414 117.224 141.615C116.842 141.686 116.479 141.737 116.135 141.755C114.967 141.816 114.108 141.562 113.262 140.907C112.137 139.975 111.378 138.546 110.955 136.528C110.576 134.73 110.443 132.576 110.565 130.122Z" fill="black"/>
<path d="M171.102 162.761C170.501 162.793 169.893 162.806 169.284 162.806C159.184 162.744 152.027 157.494 148.002 147.197C146.125 142.376 145.217 136.932 145.3 131.022C145.378 125.285 146.422 118.988 148.394 112.325C151.701 101.053 157.343 90.5621 165.146 81.1525C174.505 69.9134 184.613 63.9299 195.174 63.3764C195.782 63.3446 196.397 63.3314 197.006 63.3313C207.031 63.3907 214.108 68.6516 218.045 78.9587C219.994 83.9988 220.937 89.6002 220.858 95.5857C220.783 101.247 219.782 107.452 217.893 114.028C214.577 125.256 208.892 135.705 201.001 145.113C191.645 156.275 181.582 162.212 171.095 162.762L171.102 162.761ZM191.684 97.4897C188.255 97.6693 184.289 100.884 180.214 106.786C176.472 112.087 173.822 117.311 172.34 122.34C171.621 124.901 171.237 127.26 171.209 129.308C171.173 131.967 171.775 134.033 173.057 135.632C174.415 137.277 176.27 138.063 178.876 138.079C179.093 138.08 179.309 138.075 179.518 138.064C183.068 137.878 186.311 135.967 189.416 132.219C192.224 128.849 194.299 124.793 195.606 120.161C197.171 114.65 197.566 109.15 196.779 103.801C195.752 97.5116 193.064 97.4936 192.049 97.4896C191.934 97.4893 191.812 97.4893 191.691 97.4956L191.684 97.4897Z" fill="black"/>
<path d="M195.314 65.9178C195.868 65.8888 196.422 65.8788 196.977 65.8815C205.797 65.9341 211.976 70.5874 215.513 79.8412C217.361 84.6261 218.244 89.8682 218.165 95.5804C218.086 101.057 217.132 106.993 215.295 113.395C212.065 124.326 206.596 134.382 198.896 143.564C190.005 154.168 180.694 159.729 170.976 160.238C170.43 160.266 169.882 160.276 169.327 160.273C160.419 160.219 154.159 155.564 150.547 146.314C148.78 141.766 147.938 136.674 148.015 131.045C148.089 125.492 149.094 119.477 151.014 112.995C154.247 101.988 159.673 91.8954 167.292 82.7116C176.186 72.0308 185.529 66.437 195.328 65.9235M179.644 140.594C183.983 140.366 187.951 138.093 191.535 133.767C194.584 130.111 196.807 125.78 198.203 120.787C199.866 114.928 200.28 109.148 199.446 103.433C198.528 97.7982 196.065 94.9652 192.071 94.9393C191.895 94.9359 191.72 94.945 191.544 94.9542C187.131 95.1855 182.597 98.6713 177.942 105.411C174.036 110.943 171.296 116.362 169.726 121.669C168.94 124.482 168.532 127.02 168.495 129.285C168.453 132.491 169.247 135.119 170.883 137.156C172.762 139.435 175.414 140.587 178.826 140.605C179.097 140.61 179.367 140.602 179.637 140.588M195.048 60.8467C183.664 61.4433 172.896 67.7538 163.028 79.598C154.995 89.2802 149.2 100.072 145.789 111.679C143.753 118.543 142.68 125.051 142.593 131.018C142.506 137.239 143.47 142.979 145.45 148.087C150.998 162.276 161.45 165.307 169.241 165.357C169.898 165.36 170.567 165.344 171.228 165.31C182.532 164.717 193.261 158.453 203.12 146.692C211.235 137.018 217.079 126.262 220.488 114.731L220.487 114.712L220.5 114.692C222.445 107.91 223.476 101.493 223.553 95.6159C223.643 89.3247 222.637 83.4215 220.577 78.0884C215.151 63.8993 204.78 60.8579 197.036 60.8124C196.373 60.809 195.697 60.8254 195.036 60.86L195.048 60.8467ZM174.951 122.966C176.366 118.213 178.887 113.244 182.446 108.201L182.459 108.181L182.471 108.162C187.415 101.006 190.649 100.086 191.81 100.025C191.871 100.022 191.938 100.019 191.999 100.016C192.466 100.016 192.538 100.102 192.711 100.302C192.985 100.619 193.667 101.632 194.092 104.19C194.814 109.193 194.441 114.342 192.98 119.504C191.771 123.813 189.856 127.562 187.284 130.646C184.68 133.783 182.097 135.374 179.371 135.517C179.216 135.525 179.054 135.533 178.891 135.529C176.712 135.516 175.787 134.783 175.18 134.058C174.289 132.929 173.869 131.375 173.896 129.314C173.922 127.482 174.27 125.34 174.937 122.96L174.951 122.966Z" fill="black"/>
<path d="M198.659 158.914L236.159 74.8055L284.359 78.8901L275.859 104.71L273.57 104.411C266.088 103.423 258.949 102.66 252.309 102.124C251.546 103.569 250.823 105.012 250.153 106.426L248.924 108.811L270.59 109.283L263.715 130.2L261.555 130.046C253.696 129.492 246.108 129.19 238.959 129.133C234.729 138.292 230.843 147.547 227.389 156.658L226.758 158.319L198.665 158.914L198.659 158.914Z" fill="black"/>
<path d="M237.877 77.4995L280.788 81.1366L273.952 101.886C265.679 100.794 257.936 99.9859 250.721 99.4423C249.615 101.452 248.602 103.437 247.676 105.399L244.66 111.246L266.956 111.73L261.774 127.505C253.147 126.895 244.957 126.594 237.201 126.581C232.645 136.354 228.527 146.098 224.841 155.819L202.757 156.29L237.884 77.4991M234.434 72.1054L232.89 75.5615L197.763 154.353L194.56 161.544L202.834 161.371L224.917 160.9L228.662 160.819L229.923 157.498C233.163 148.957 236.783 140.288 240.71 131.692C247.266 131.78 254.183 132.072 261.322 132.575L265.642 132.877L266.926 128.976L272.108 113.202L274.134 107.044L277.746 107.522L279.118 103.363L285.955 82.6138L287.922 76.6438L281.315 76.0811L238.404 72.444L234.441 72.105L234.434 72.1054ZM253.133 106.352C253.384 105.837 253.641 105.321 253.905 104.805C259.601 105.289 265.658 105.95 271.974 106.763L267.11 106.656L253.133 106.352Z" fill="black"/>
<path d="M261.919 174.185C258.565 174.361 255.306 173.889 252.25 172.785C248.933 171.605 246.398 169.85 244.715 167.567C242.517 164.485 242.344 161.189 244.214 158.008C246.47 154.171 250.549 151.682 256.346 150.609C257.479 150.409 258.596 150.281 259.682 150.224C262.989 150.051 266.215 150.524 269.257 151.636C272.511 152.774 275.023 154.62 276.697 157.106C278.936 160.193 279.136 163.494 277.272 166.674C275.005 170.543 270.842 172.967 264.894 173.87C263.914 174.029 262.904 174.133 261.919 174.185ZM267.027 141.226L317.979 92.8601L343.591 111.814L340.335 113.739C328.416 120.796 319.25 126.533 313.092 130.797C304.748 136.612 296.32 143.391 288.061 150.949L286.556 152.324L267.02 141.233L267.027 141.226Z" fill="black"/>
<path d="M318.191 96.256L338.91 111.589C326.859 118.716 317.726 124.439 311.502 128.751C303.009 134.669 294.567 141.461 286.186 149.128L271.364 140.713L318.191 96.256ZM259.815 152.76C262.751 152.606 265.567 153.018 268.265 154.001C271.015 154.97 273.07 156.47 274.436 158.509C276.119 160.804 276.281 163.122 274.908 165.457C273.057 168.618 269.574 170.586 264.478 171.362C263.572 171.505 262.677 171.603 261.793 171.649C258.803 171.806 255.953 171.396 253.236 170.413C250.415 169.41 248.317 167.976 246.947 166.109C245.333 163.854 245.212 161.553 246.586 159.218C248.436 156.057 251.862 154.022 256.855 153.099C257.855 152.926 258.843 152.811 259.822 152.759M317.767 89.4642L314.357 92.7003L267.531 137.157L262.696 141.752L268.548 145.075L283.369 153.489L286.94 155.514L289.949 152.763C298.118 145.286 306.448 138.582 314.707 132.829C320.793 128.613 329.901 122.911 341.774 115.888L348.279 112.038L342.274 107.599L321.555 92.2659L317.774 89.4702L317.767 89.4642ZM259.549 147.689C258.348 147.751 257.117 147.892 255.89 148.109L255.87 148.11L255.85 148.111C249.228 149.335 244.515 152.252 241.856 156.784C239.502 160.797 239.715 165.121 242.46 168.956L242.482 168.987L242.504 169.018C244.501 171.729 247.458 173.799 251.306 175.167C254.699 176.394 258.327 176.916 262.072 176.719C263.145 176.663 264.249 176.548 265.35 176.37C272.15 175.327 276.961 172.475 279.657 167.884C282.005 163.877 281.765 159.555 278.971 155.697C276.983 152.763 274.041 150.597 270.235 149.252C266.841 148.018 263.254 147.494 259.57 147.687L259.549 147.689Z" fill="black"/>
<path d="M47.6773 184.466C47.0882 182.781 45.5777 177.718 43.0566 168.995L35.1332 141.767C26.7185 113.426 24.1786 106.154 23.4296 104.515L21.3267 102.998L23.6758 100.949C33.7389 92.1774 42.7104 85.9483 50.3358 82.4404C54.5119 80.5181 58.1061 79.5034 61.3387 79.334C67.1492 79.0295 71.5318 81.5648 74.0255 86.6654C80.9276 100.606 76.1963 120.469 59.9723 145.715C62.6131 154.527 65.4012 162.663 68.2647 169.912L68.9118 171.543L48.9446 188.118L47.6773 184.466ZM51.3269 114.005C51.7132 115.695 52.1339 117.395 52.5677 119.089L52.8601 120.148C55.5613 116.167 57.0174 112.703 57.204 109.807C57.1709 109.821 57.1378 109.836 57.1048 109.85C56.1532 110.288 54.4029 111.365 51.3269 114.005Z" fill="#50B861"/>
<path d="M61.4783 81.8692C66.1821 81.6227 69.5461 83.5758 71.5709 87.7348C78.1861 101.105 73.3527 120.313 57.0571 145.353C59.8263 154.679 62.7137 163.16 65.7333 170.807L50.2473 183.664C49.6737 182.016 48.1471 176.903 45.6667 168.312L37.7433 141.083C30.3232 116.097 26.2506 103.338 25.5121 102.804C35.4264 94.1611 44.0971 88.1322 51.5108 84.718C55.3169 82.9676 58.6372 82.0181 61.4716 81.8696M51.6949 126.063C57.0016 119.632 59.7395 114.155 59.9159 109.646C59.9266 108.946 59.8383 108.423 59.6574 108.07C59.2804 107.334 58.6602 106.991 57.8031 107.036C57.27 107.064 56.6433 107.243 55.923 107.573C54.1256 108.398 51.6042 110.259 48.358 113.137C48.8458 115.343 49.3734 117.534 49.9405 119.703L51.6881 126.063M61.2126 76.798C57.6156 76.9866 53.674 78.0894 49.1675 80.1625C41.1918 83.8286 32.2591 90.0239 21.8529 99.0931L17.1484 103.198L21.1922 106.113C22.0818 108.368 24.7147 116.124 32.545 142.481L40.4603 169.684C42.9895 178.432 44.5087 183.532 45.114 185.268L47.649 192.578L53.8161 187.456L69.3021 174.599L72.0971 172.279L70.8092 169.009C68.0932 162.121 65.4357 154.41 62.9005 146.064C70.6203 133.9 75.755 122.895 78.1693 113.31C80.8639 102.617 80.2936 93.2844 76.4787 85.5707C73.5448 79.5588 68.1231 76.4359 61.2126 76.798Z" fill="black"/>
<path d="M106.698 165.959C98.3833 166.394 91.4196 162.513 85.9885 154.433C83.0812 150.091 80.9918 144.957 79.7613 139.167C78.5667 133.547 78.1933 127.198 78.6508 120.302C79.3932 108.644 82.5881 97.2957 88.1507 86.5798C95.2157 73.0264 104.388 65.077 115.408 62.9421C116.607 62.714 117.791 62.563 118.945 62.5025C127.205 62.0696 134.115 65.9663 139.481 74.0882C142.507 78.6269 144.672 83.91 145.92 89.7751C147.097 95.3198 147.499 101.572 147.104 108.369C146.339 119.984 143.095 131.303 137.452 142.036C130.376 155.501 121.235 163.404 110.302 165.522C109.083 165.757 107.872 165.91 106.705 165.971L106.698 165.959ZM118.779 97.1788C118.57 97.1898 118.341 97.2208 118.114 97.2646C114.664 97.9348 111.372 101.877 108.588 108.665C106.096 114.574 104.665 120.198 104.321 125.396C104.183 128.041 104.334 130.417 104.757 132.422C105.313 135.025 106.36 136.928 107.965 138.236C109.299 139.291 110.868 139.774 112.723 139.677C113.196 139.652 113.693 139.588 114.209 139.491C117.941 138.768 120.893 136.223 123.235 131.708C125.233 127.872 126.378 123.503 126.621 118.716C126.932 113.03 126.098 107.576 124.147 102.504C121.931 97.0137 119.562 97.1378 118.779 97.1788Z" fill="#50B861"/>
<path d="M119.077 65.038C126.319 64.6586 132.354 68.1243 137.183 75.4353C140.055 79.7469 142.08 84.6941 143.267 90.2891C144.407 95.6513 144.782 101.638 144.404 108.25C143.664 119.558 140.533 130.452 135.025 140.924C128.306 153.709 119.888 161.078 109.765 163.033C108.673 163.243 107.604 163.375 106.565 163.429C99.2631 163.812 93.1679 160.362 88.279 153.073C85.5402 148.977 83.5831 144.173 82.4144 138.659C81.2565 133.222 80.9045 127.151 81.3517 120.447C82.0746 109.063 85.1564 98.1399 90.5835 87.679C97.2857 74.8184 105.735 67.4027 115.938 65.4314C117.01 65.2227 118.058 65.0915 119.077 65.038ZM112.849 142.207C113.457 142.175 114.082 142.097 114.725 141.975C119.294 141.093 122.937 138.036 125.654 132.802C127.831 128.632 129.048 123.973 129.313 118.817C129.645 112.774 128.763 107.042 126.679 101.621C124.727 96.7844 122.047 94.4586 118.639 94.6372C118.295 94.6552 117.939 94.6993 117.577 94.7691C113.089 95.64 109.248 99.9665 106.057 107.761C103.457 113.93 101.975 119.754 101.613 125.245C101.468 128.145 101.629 130.705 102.097 132.924C102.763 136.067 104.127 138.475 106.177 140.147C108.076 141.649 110.298 142.334 112.842 142.201M118.812 59.9669C117.529 60.0341 116.205 60.1988 114.878 60.4527C102.987 62.754 93.1763 71.1691 85.7239 85.4674C80.0018 96.4968 76.7156 108.168 75.9506 120.17C75.4771 127.276 75.8689 133.847 77.1084 139.681C78.4021 145.773 80.6148 151.193 83.6913 155.793C91.1559 166.907 100.393 168.838 106.824 168.501C108.127 168.433 109.471 168.267 110.818 168.005C122.622 165.721 132.395 157.359 139.865 143.149C145.668 132.109 149.01 120.467 149.792 108.533L149.791 108.514L149.79 108.495C150.194 101.488 149.781 95.0201 148.559 89.268C147.248 83.1012 144.96 77.5385 141.758 72.7293C134.393 61.5848 125.21 59.6379 118.798 59.9739L118.812 59.9669ZM107.013 125.496C107.344 120.578 108.715 115.231 111.087 109.608L111.099 109.582L111.111 109.556C114.465 101.365 117.491 99.9668 118.643 99.7412C118.743 99.7232 118.837 99.7119 118.912 99.708C119.499 99.6772 120.614 100.941 121.616 103.412C123.435 108.154 124.21 113.262 123.921 118.585C123.694 123.033 122.646 127.067 120.807 130.583C117.906 136.17 114.724 136.788 113.672 136.989C113.29 137.06 112.921 137.111 112.583 137.129C111.416 137.19 110.556 136.937 109.71 136.282C108.585 135.349 107.827 133.92 107.403 131.902C107.025 130.104 106.891 127.95 107.013 125.49L107.013 125.496Z" fill="black"/>
<path d="M167.55 158.136C166.949 158.167 166.341 158.18 165.732 158.18C155.632 158.118 148.475 152.868 144.45 142.572C142.574 137.75 141.673 132.312 141.748 126.397C141.826 120.653 142.87 114.362 144.842 107.699C148.149 96.4278 153.792 85.9365 161.595 76.5269C170.953 65.2878 181.054 59.3047 191.623 58.7508C192.23 58.719 192.845 58.7058 193.454 58.7057C203.479 58.7651 210.556 64.026 214.493 74.3331C216.442 79.3732 217.385 84.9682 217.307 90.9601C217.225 96.6215 216.23 102.827 214.342 109.403C211.025 120.63 205.341 131.079 197.449 140.487C188.093 151.65 178.031 157.586 167.543 158.136L167.55 158.136ZM188.132 92.8641C184.704 93.0437 180.738 96.2582 176.662 102.161C172.92 107.461 170.27 112.685 168.788 117.708C168.069 120.269 167.685 122.628 167.657 124.676C167.621 127.335 168.223 129.401 169.505 131C170.863 132.645 172.718 133.431 175.324 133.447C175.541 133.448 175.757 133.443 175.966 133.432C179.516 133.246 182.759 131.335 185.865 127.587C188.672 124.217 190.754 120.161 192.054 115.529C193.619 110.018 194.014 104.518 193.227 99.1696C192.2 92.8797 189.506 92.862 188.497 92.8576C188.382 92.8573 188.26 92.8573 188.139 92.8637L188.132 92.8641Z" fill="#50B861"/>
<path d="M191.762 61.286C192.316 61.257 192.87 61.247 193.425 61.2497C202.245 61.3023 208.424 65.9555 211.961 75.2094C213.809 79.9942 214.692 85.2364 214.613 90.9486C214.534 96.4255 213.58 102.362 211.743 108.763C208.513 119.694 203.045 129.75 195.344 138.932C186.453 149.536 177.142 155.097 167.424 155.606C166.878 155.635 166.33 155.644 165.775 155.642C156.867 155.587 150.607 150.932 146.996 141.682C145.228 137.134 144.386 132.043 144.463 126.413C144.537 120.86 145.542 114.845 147.462 108.363C150.695 97.3558 156.121 87.2636 163.74 78.0798C172.634 67.399 181.977 61.8052 191.776 61.2916M176.092 135.968C180.432 135.741 184.4 133.467 187.983 129.141C191.033 125.485 193.256 121.155 194.652 116.162C196.314 110.303 196.728 104.522 195.894 98.8072C194.976 93.1727 192.514 90.3397 188.52 90.3138C188.343 90.3104 188.168 90.3195 187.993 90.3287C183.579 90.56 179.045 94.0458 174.391 100.786C170.485 106.317 167.744 111.737 166.175 117.044C165.388 119.856 164.98 122.395 164.943 124.66C164.901 127.866 165.695 130.494 167.332 132.537C169.211 134.816 171.863 135.967 175.274 135.986C175.545 135.991 175.816 135.983 176.086 135.969M191.497 56.2148C180.112 56.8115 169.344 63.1219 159.476 74.9661C151.444 84.6483 145.648 95.4401 142.237 107.048C140.201 113.911 139.128 120.419 139.041 126.386C138.954 132.607 139.918 138.347 141.898 143.456C147.446 157.645 157.898 160.675 165.689 160.725C166.346 160.729 167.015 160.713 167.677 160.678C178.98 160.085 189.709 153.822 199.569 142.06C207.683 132.387 213.528 121.63 216.936 110.099L216.935 110.08L216.948 110.061C218.893 103.278 219.924 96.8614 220.002 90.9904C220.092 84.6992 219.085 78.796 217.026 73.4629C211.599 59.2738 201.229 56.2324 193.478 56.1873C192.815 56.1839 192.139 56.2002 191.484 56.2345L191.497 56.2148ZM171.399 118.34C172.815 113.588 175.336 108.618 178.895 103.575L178.907 103.556L178.92 103.536C183.864 96.3803 187.098 95.4607 188.258 95.3999C188.319 95.3967 188.387 95.3932 188.447 95.39C188.914 95.391 188.986 95.4762 189.159 95.6769C189.433 95.9931 190.115 97.0061 190.541 99.5645C191.263 104.567 190.89 109.716 189.428 114.878C188.219 119.187 186.304 122.936 183.732 126.021C181.129 129.157 178.546 130.748 175.826 130.891C175.671 130.899 175.509 130.907 175.346 130.903C173.167 130.89 172.242 130.157 171.635 129.432C170.744 128.303 170.324 126.749 170.351 124.688C170.377 122.856 170.725 120.715 171.392 118.334L171.399 118.34Z" fill="black"/>
<path d="M195.107 154.289L232.608 70.1803L280.807 74.2649L272.307 100.085L270.018 99.7854C262.529 98.7985 255.39 98.0285 248.758 97.499C247.988 98.9504 247.265 100.387 246.601 101.801L245.373 104.185L267.039 104.658L260.163 125.575L258.003 125.421C250.145 124.867 242.557 124.565 235.414 124.507C231.185 133.672 227.291 142.928 223.844 152.033L223.213 153.693L195.114 154.289L195.107 154.289Z" fill="#50B861"/>
<path d="M234.326 72.8742L277.237 76.5113L270.4 97.2609C262.127 96.1689 254.384 95.3606 247.169 94.8171C246.063 96.8264 245.051 98.8118 244.125 100.774L241.109 106.621L263.404 107.105L258.222 122.88C249.596 122.27 241.405 121.968 233.65 121.955C229.093 131.729 224.975 141.473 221.289 151.194L199.206 151.665L234.332 72.8739M230.883 67.4801L229.338 70.9363L194.211 149.721L191.008 156.913L199.282 156.74L221.366 156.269L225.11 156.187L226.371 152.866C229.611 144.325 233.231 135.656 237.159 127.06C243.714 127.149 250.631 127.441 257.77 127.944L262.09 128.245L263.374 124.345L268.557 108.57L270.582 102.413L274.194 102.891L275.566 98.7318L282.403 77.9822L284.37 72.0122L277.763 71.4495L234.852 67.8124L230.889 67.4798L230.883 67.4801ZM249.582 101.727C249.832 101.212 250.089 100.696 250.353 100.18C256.049 100.664 262.107 101.325 268.422 102.138L263.558 102.031L249.582 101.727Z" fill="black"/>
<path d="M258.368 169.56C255.014 169.735 251.754 169.264 248.698 168.159C245.382 166.979 242.847 165.224 241.164 162.942C238.965 159.86 238.793 156.563 240.663 153.382C242.918 149.546 246.997 147.056 252.794 145.983C253.927 145.784 255.044 145.656 256.131 145.599C259.437 145.426 262.656 145.899 265.706 147.01C268.959 148.149 271.472 149.994 273.145 152.481C275.384 155.567 275.584 158.868 273.721 162.049C271.454 165.918 267.284 168.342 261.342 169.245C260.362 169.404 259.353 169.508 258.374 169.559L258.368 169.56ZM263.475 136.601L314.427 88.2349L340.039 107.188L336.784 109.113C324.858 116.171 315.691 121.908 309.54 126.172C301.19 131.987 292.768 138.765 284.509 146.324L283.004 147.699L263.469 136.608L263.475 136.601Z" fill="#50B861"/>
<path d="M314.639 91.6305L335.358 106.963C323.307 114.091 314.174 119.814 307.951 124.125C299.457 130.043 291.016 136.836 282.634 144.502L267.813 136.087L314.639 91.6305ZM256.263 148.134C259.199 147.98 262.015 148.392 264.713 149.376C267.464 150.344 269.518 151.845 270.884 153.883C272.567 156.179 272.729 158.497 271.356 160.831C269.505 163.992 266.022 165.961 260.926 166.736C260.02 166.879 259.125 166.977 258.241 167.023C255.252 167.18 252.402 166.77 249.684 165.787C246.864 164.785 244.765 163.35 243.395 161.483C241.781 159.229 241.661 156.928 243.034 154.593C244.885 151.432 248.311 149.396 253.304 148.474C254.303 148.301 255.292 148.185 256.27 148.134M314.215 84.8387L310.805 88.0749L263.979 132.532L259.145 137.127L264.996 140.449L279.817 148.864L283.388 150.889L286.397 148.138C294.566 140.66 302.897 133.956 311.156 128.203C317.242 123.988 326.349 118.286 338.223 111.263L344.727 107.413L338.722 102.973L318.003 87.6404L314.223 84.8447L314.215 84.8387ZM255.998 143.063C254.796 143.126 253.559 143.267 252.338 143.484L252.318 143.485L252.298 143.486C245.676 144.71 240.964 147.627 238.305 152.158C235.95 156.172 236.163 160.496 238.909 164.331L238.931 164.361L238.953 164.392C240.949 167.103 243.906 169.173 247.754 170.541C251.148 171.768 254.775 172.29 258.521 172.094C259.6 172.037 260.697 171.923 261.798 171.744C268.598 170.701 273.409 167.849 276.099 163.259C278.447 159.252 278.207 154.93 275.413 151.072C273.425 148.137 270.483 145.972 266.67 144.627C263.276 143.394 259.689 142.87 256.004 143.063L255.998 143.063Z" fill="black"/>
</g>
<defs>
<clipPath id="clip0_276_2936">
<rect width="346" height="228.841" fill="white" transform="translate(0.00250244 18.3994) rotate(-3)"/>
</clipPath>
</defs>
</svg>
