<svg width="112" height="112" viewBox="0 0 112 112" fill="none" xmlns="http://www.w3.org/2000/svg">
<path d="M55.2913 104.777C79.1287 104.777 98.4528 85.4529 98.4528 61.6154C98.4528 37.778 79.1287 18.4539 55.2913 18.4539C31.4538 18.4539 12.1297 37.778 12.1297 61.6154C12.1297 85.4529 31.4538 104.777 55.2913 104.777Z" fill="#67BBF2"/>
<path d="M11.1431 61.6153C10.8369 44.0475 21.9822 27.1381 38.2397 20.4488C67.6244 8.01938 100.255 29.7238 100.282 61.6153C100.443 86.135 79.8219 106.687 55.2912 106.315C31.0603 106.339 10.7494 85.855 11.1431 61.6153ZM13.1141 61.6153C12.8625 78.3584 23.5659 94.4563 39.0753 100.765C66.8609 112.464 97.8906 91.7372 97.8622 61.6153C97.8753 31.4913 66.8697 10.7713 39.0775 22.4678C23.5703 28.7788 12.8669 44.8722 13.1162 61.6153H13.1141Z" fill="black"/>
<path d="M33.2129 92.9295C33.2129 92.9295 38.6335 81.2941 33.5957 65.3888C32.5391 62.0507 28.2297 58.7585 28.2297 58.7585C28.6935 56.6563 28.4922 50.6604 29.1966 44.0498C29.9185 37.2707 30.52 30.076 39.1935 26.1845C55.276 18.9679 67.6616 23.5901 73.7625 33.272C76.4947 37.6076 79.461 42.3238 80.4825 48.8141C81.8541 57.5248 79.1963 61.9632 78.6057 69.8316C78.015 77.7001 82.635 92.061 82.635 92.061C82.635 92.061 78.8135 91.151 77.3588 87.686C77.3588 87.686 77.3347 95.386 74.6638 96.3682C73.3141 96.8648 75.2916 92.2448 69.8447 87.266C69.1535 86.6338 69.2279 97.7682 62.8032 99.6888C61.821 99.982 64.6451 93.5332 60.6922 87.2485C60.2788 86.5901 60.6266 97.3766 54.4907 99.6538C53.1388 100.155 55.1644 92.9776 51.8569 85.936C50.9644 84.0373 51.1329 94.032 43.2294 96.7182C42.35 97.0179 45.7954 90.9301 43.5554 86.1963C43.0063 85.037 42.5491 92.0238 33.2107 92.9295H33.2129Z" fill="#2944C2" stroke="black" stroke-width="1.23047" stroke-linejoin="round"/>
<path d="M32.095 32.2481C32.095 32.2481 35.1465 28.735 40.1975 33.7531C40.1975 33.7531 44.59 27.0856 53.5259 30.3822C62.4618 33.6787 61.6087 40.9937 61.1515 44.1284C60.2853 50.0478 54.7422 53.6506 54.7422 53.6506C54.7422 53.6506 47.2412 56.3828 39.3947 56.5622C31.5481 56.7415 28.514 55.8469 28.514 55.8469C28.514 55.8469 28.2909 44.1437 29.435 39.3509C30.579 34.5581 32.095 32.2481 32.095 32.2481Z" fill="#67BBF2" stroke="black" stroke-width="1.23047" stroke-linejoin="round"/>
<path d="M36.1659 61.3748C36.1659 61.3748 37.0409 63.0241 39.3925 64.2404C43.3125 66.2682 50.5247 67.5194 59.5043 66.3688C71.8637 64.7829 73.4322 57.0829 70.2231 52.8523C63.6125 44.1351 61.834 52.8129 51.4784 54.1079C44.7956 54.9435 45.815 52.3994 33.8012 54.7379C28.1356 55.8404 24.9878 57.4635 23.6293 59.126C22.1047 60.9898 22.715 62.8951 22.2643 64.0282C21.409 66.1676 19.3922 69.276 20.7615 70.1904C22.1287 71.1048 22.004 68.8451 26.5147 67.0535C31.0253 65.2641 32.4581 65.1919 34.3503 63.1204C36.2447 61.0488 36.1681 61.3726 36.1681 61.3726L36.1659 61.3748Z" fill="#F5882D" stroke="black" stroke-width="1.23047" stroke-linejoin="round"/>
<path d="M41.9431 59.5415C41.9431 59.5415 42.8203 65.8152 41.8206 67.2327C40.8209 68.6502 33.0881 68.4971 32.2416 68.0027C31.395 67.5083 32.1212 64.8593 32.1212 64.8593C32.1212 64.8593 33.6131 64.109 35.5469 61.858C37.9947 59.0099 41.9409 59.5415 41.9409 59.5415H41.9431Z" fill="white" stroke="black" stroke-width="1.23047" stroke-linecap="round" stroke-linejoin="round"/>
<path d="M35.3378 59.6862C36.138 59.096 36.4152 58.1139 35.957 57.4926C35.4988 56.8714 34.4786 56.8461 33.6784 57.4363C32.8782 58.0265 32.601 59.0085 33.0592 59.6298C33.5175 60.2511 34.5376 60.2763 35.3378 59.6862Z" fill="black"/>
<path d="M40.2762 46.1453C38.7625 50.6363 34.16 53.2285 30.1153 51.7563C26.134 50.306 24.4693 45.546 26.2675 41.2847C28.0656 37.0235 32.2919 35.0263 35.9997 36.2535C39.7075 37.4806 41.7222 41.8556 40.2762 46.1431V46.1453Z" fill="white" stroke="black" stroke-width="1.23047" stroke-miterlimit="10"/>
<path d="M56.4016 43.6576C56.7284 38.6849 53.0031 34.3914 48.081 34.0679C43.1588 33.7444 38.9037 37.5134 38.5769 42.4862C38.2501 47.459 41.9754 51.7525 46.8975 52.0759C51.8197 52.3994 56.0748 48.6304 56.4016 43.6576Z" fill="white" stroke="black" stroke-width="1.23047" stroke-miterlimit="10"/>
<path d="M29.0281 42.9211C29.0281 42.9211 29.1331 41.9039 28.2406 41.8076C27.3503 41.7114 26.3638 40.8232 26.3638 40.8232" stroke="#D88282" stroke-width="0.527344" stroke-linecap="round" stroke-linejoin="round"/>
<path d="M29.9447 41.9215C29.9447 41.9215 29.3715 41.5211 29.6297 40.8758C29.8878 40.2305 30.065 40.108 30.0781 39.8893C30.0912 39.6705 28.8006 39.4211 28.4309 38.929" stroke="#D88282" stroke-width="0.527344" stroke-linecap="round" stroke-linejoin="round"/>
<path d="M32.1694 39.688C32.1694 39.688 32.5894 39.1389 32.3203 38.522C32.0512 37.9052 31.6181 36.9427 31.7384 36.5117" stroke="#D88282" stroke-width="0.527344" stroke-linecap="round" stroke-linejoin="round"/>
<path d="M33.425 39.8608C33.425 39.8608 34.954 39.3839 35.2187 38.7101C35.4834 38.0364 36.0587 37.0673 36.6975 36.8354" stroke="#D88282" stroke-width="0.527344" stroke-linecap="round" stroke-linejoin="round"/>
<path d="M35.6212 40.9217C35.6212 40.9217 35.9975 40.2151 35.8116 39.4145C35.6256 38.6139 35.3675 38.3689 35.3675 38.3689" stroke="#D88282" stroke-width="0.527344" stroke-linecap="round" stroke-linejoin="round"/>
<path d="M37.0322 40.1824C37.0322 40.1824 37.8219 40.0227 38.0975 39.1608C38.3731 38.2989 38.3972 37.6624 38.3972 37.6624" stroke="#D88282" stroke-width="0.527344" stroke-linecap="round" stroke-linejoin="round"/>
<path d="M25.4974 45.2332C25.4974 45.2332 25.6965 44.881 26.6459 44.6142C27.5952 44.3473 28.374 44.7826 28.8334 44.4829" stroke="#D88282" stroke-width="0.527344" stroke-linecap="round" stroke-linejoin="round"/>
<path d="M26.2369 48.3571C26.2369 48.3571 27.7331 48.694 28.0678 48.0574C28.4025 47.4208 28.8225 45.9836 28.8225 45.9836" stroke="#D88282" stroke-width="0.527344" stroke-linecap="round" stroke-linejoin="round"/>
<path d="M28.0677 48.0574C28.0677 48.0574 28.2099 48.9433 28.5227 49.2036C28.8356 49.4639 29.3846 49.7374 29.5399 50.1508C29.6952 50.5642 29.179 51.4633 29.179 51.4633" stroke="#D88282" stroke-width="0.527344" stroke-linecap="round" stroke-linejoin="round"/>
<path d="M36.4481 43.6474C36.4481 43.6474 37.065 43.9996 37.5637 43.3739C38.0625 42.7483 38.4825 42.208 38.4825 42.208" stroke="#D88282" stroke-width="0.527344" stroke-linecap="round" stroke-linejoin="round"/>
<path d="M35.269 44.4128C35.269 44.4128 34.8971 44.9378 34.8993 45.4694C34.9015 46.001 35.8925 45.9769 35.5796 46.8322C35.4243 47.2522 35.0087 47.4535 34.9103 47.8319C34.8118 48.2103 34.3196 49.5863 34.3196 49.5863C34.3196 49.5863 34.6915 50.0325 34.6368 50.5969C34.5821 51.1613 34.4837 51.8132 34.4837 51.8132" stroke="#D88282" stroke-width="0.527344" stroke-linecap="round" stroke-linejoin="round"/>
<path d="M34.3196 49.5841C34.3196 49.5841 32.7906 49.1554 32.6134 48.5035C32.4362 47.8516 33.1865 47.3157 33.1865 47.3157" stroke="#D88282" stroke-width="0.527344" stroke-linecap="round" stroke-linejoin="round"/>
<path d="M37.4259 46.3118C37.4259 46.3118 37.3778 47.3333 37.7431 47.6133C38.1084 47.8933 39.2394 47.9611 39.2394 47.9611" stroke="#D88282" stroke-width="0.527344" stroke-linecap="round" stroke-linejoin="round"/>
<path d="M43.9775 45.2421C43.9775 45.2421 43.2534 45.1021 42.9953 45.6905C42.7372 46.279 42.6278 46.8193 42.6278 46.8193C42.6278 46.8193 41.79 46.7668 40.9303 47.5674C40.25 48.2018 40.3244 48.4708 40.3244 48.4708" stroke="#D88282" stroke-width="0.527344" stroke-linecap="round" stroke-linejoin="round"/>
<path d="M42.6277 46.8191C42.6277 46.8191 42.5381 46.7951 42.7262 47.832C42.9143 48.8688 43.3474 48.6698 43.2884 49.571C43.2293 50.4723 43.4196 50.9163 43.4196 50.9163" stroke="#D88282" stroke-width="0.527344" stroke-linecap="round" stroke-linejoin="round"/>
<path d="M38.6991 41.5801C38.6991 41.5801 40.2566 42.7985 41.6828 42.6913C41.6828 42.6913 41.6741 42.8729 41.6303 43.4745C41.5866 44.076 41.2628 44.4763 40.4753 44.752C39.6878 45.0276 38.9682 45.7845 38.9682 45.7845" stroke="#D88282" stroke-width="0.527344" stroke-linecap="round" stroke-linejoin="round"/>
<path d="M41.6828 42.6936C41.6828 42.6936 42.9166 42.1533 43.9862 42.3326C45.0559 42.512 45.3753 43.4854 45.3753 43.4854" stroke="#D88282" stroke-width="0.527344" stroke-linecap="round" stroke-linejoin="round"/>
<path d="M43.4481 42.2955C43.4481 42.2955 43.2293 41.9871 43.6362 41.4467C44.0431 40.9064 44.3974 40.7839 44.3974 40.7839" stroke="#D88282" stroke-width="0.527344" stroke-linecap="round" stroke-linejoin="round"/>
<path d="M40.4775 37.8001C40.4775 37.8001 42.3259 37.5179 43.0456 37.9686C43.7653 38.4192 43.5794 39.3029 44.345 39.6289C45.1106 39.9548 45.7778 39.8323 45.7778 39.8323" stroke="#D88282" stroke-width="0.527344" stroke-linecap="round" stroke-linejoin="round"/>
<path d="M43.5357 38.5308C43.5357 38.5308 43.0544 38.9573 42.9625 39.8105" stroke="#D88282" stroke-width="0.527344" stroke-linecap="round" stroke-linejoin="round"/>
<path d="M46.1518 34.1536C46.1518 34.1536 45.9659 35.4551 46.749 36.2623C47.5322 37.0695 48.02 36.7589 48.2059 37.0717C48.3918 37.3845 48.1228 38.3295 48.1228 38.3295" stroke="#D88282" stroke-width="0.527344" stroke-linecap="round" stroke-linejoin="round"/>
<path d="M51.3472 34.928C51.3472 34.928 50.96 35.7199 51.3056 36.5161C51.6512 37.3124 51.9465 37.3583 51.6993 38.0561C51.4522 38.7539 50.5509 39.2374 50.5509 39.2374" stroke="#D88282" stroke-width="0.527344" stroke-linecap="round" stroke-linejoin="round"/>
<path d="M51.6972 38.0562C51.6972 38.0562 52.6028 38.964 52.5241 39.4693" stroke="#D88282" stroke-width="0.527344" stroke-linecap="round" stroke-linejoin="round"/>
<path d="M52.371 41.8362C52.371 41.8362 53.0163 40.9852 54.1057 41.333C55.195 41.6787 56.4222 42.8446 56.4222 42.8446" stroke="#D88282" stroke-width="0.527344" stroke-linecap="round" stroke-linejoin="round"/>
<path d="M54.554 48.6085C54.554 48.6085 53.8037 48.3394 53.655 47.5432C53.5062 46.7469 53.8234 46.6397 53.4821 46.2679C53.1409 45.896 51.6709 45.4541 51.6709 45.4541" stroke="#D88282" stroke-width="0.527344" stroke-linecap="round" stroke-linejoin="round"/>
<path d="M51.2312 48.5015C51.2312 48.5015 52.0209 49.3043 51.9946 49.9605C51.9706 50.6168 51.9334 50.8968 51.9334 50.8968" stroke="#D88282" stroke-width="0.527344" stroke-linecap="round" stroke-linejoin="round"/>
<path d="M47.8406 47.1604C47.8406 47.1604 48.2212 49.1226 47.5825 49.687C47.2281 50.002 46.5981 49.7876 46.259 50.2776C45.9199 50.7676 45.9571 51.5748 45.9571 51.5748" stroke="#D88282" stroke-width="0.527344" stroke-linecap="round" stroke-linejoin="round"/>
<path d="M47.5825 49.6892C47.5825 49.6892 48.5385 50.1814 48.9038 51.0389C49.0569 51.3976 48.9825 51.9708 48.9825 51.9708" stroke="#D88282" stroke-width="0.527344" stroke-linecap="round" stroke-linejoin="round"/>
<path d="M39.7709 47.3572C37.9028 51.0869 33.7793 53.0906 30.1153 51.7563C26.134 50.306 24.4693 45.546 26.2675 41.2847C28.0656 37.0235 32.2919 35.0263 35.9997 36.2535C37.3756 36.7085 38.5131 37.5835 39.329 38.7188" stroke="black" stroke-width="1.23047" stroke-linejoin="round"/>
<path d="M56.4016 43.6576C56.7284 38.6849 53.0031 34.3914 48.081 34.0679C43.1588 33.7444 38.9037 37.5134 38.5769 42.4862C38.2501 47.459 41.9754 51.7525 46.8975 52.0759C51.8197 52.3994 56.0748 48.6304 56.4016 43.6576Z" stroke="black" stroke-width="1.23047" stroke-linejoin="round"/>
<path d="M53.1493 43.3545C53.7652 41.4879 53.1196 39.5969 51.7073 39.1309C50.295 38.6649 48.6508 39.8004 48.0349 41.667C47.419 43.5337 48.0646 45.4246 49.477 45.8906C50.8893 46.3566 52.5334 45.2211 53.1493 43.3545Z" fill="black"/>
<path d="M32.5783 44.7953C33.0151 43.2841 32.3972 41.7782 31.1983 41.4317C29.9993 41.0852 28.6734 42.0293 28.2366 43.5405C27.7999 45.0516 28.4178 46.5575 29.6167 46.904C30.8156 47.2505 32.1416 46.3064 32.5783 44.7953Z" fill="black"/>
<path d="M61.8909 59.3884C61.8909 59.3884 60.9919 59.8894 60.3116 60.1497C59.6312 60.41 58.3494 60.7075 58.3494 60.7075L65.5331 69.0484L69.9737 67.0097C69.9737 67.0097 68.5956 65.334 68.0378 64.6362C67.48 63.9384 61.8931 59.3862 61.8931 59.3862L61.8909 59.3884Z" fill="white" stroke="black" stroke-width="1.23047" stroke-linecap="round" stroke-linejoin="round"/>
<path d="M66.9528 67.0251C66.9528 67.0251 70.5272 64.7741 70.7022 67.9023C70.8837 71.1266 67.6922 71.9951 66.0362 70.5054C64.0916 68.7576 66.9506 67.0229 66.9506 67.0229L66.9528 67.0251Z" fill="#FF431F" stroke="black" stroke-width="1.23047" stroke-linecap="round" stroke-linejoin="round"/>
<path d="M35.9056 61.5234C35.9056 61.5234 37.3735 59.839 40.4141 59.5284C43.4547 59.2178 53.1103 61.7881 58.3472 60.7075C64.3585 59.4672 64.6056 55.7222 64.6056 55.7222" stroke="black" stroke-width="1.23047" stroke-linecap="round" stroke-linejoin="round"/>
<path d="M24.7866 46.1978C24.7866 46.1978 27.6981 48.4553 31.7756 48.4137C36.2316 48.3678 39.2109 47.1449 39.2109 47.1449C39.2109 47.1449 39.7622 53.4953 32.4756 53.6134C24.6925 53.7381 24.7866 46.1978 24.7866 46.1978Z" fill="#67BBF2" stroke="black" stroke-width="1.23047" stroke-linejoin="round"/>
<path d="M56.7678 46.0032C56.7678 46.0032 50.8091 47.6657 46.0513 47.3069C41.2935 46.9482 38.2572 46.3444 38.2572 46.3444C38.2572 46.3444 39.5216 54.2632 48.2038 54.0729C56.8838 53.8825 56.7678 46.0032 56.7678 46.0032Z" fill="#67BBF2" stroke="black" stroke-width="1.23047" stroke-linejoin="round"/>
<path d="M54.2369 7.61689C54.2369 7.61689 45.3775 3.80189 41.3175 5.7247C39.655 6.5122 39.6025 7.90564 39.5369 9.08251C39.445 10.78 39.9328 12.2588 40.6088 12.7597C41.755 13.6085 54.1997 11.5697 54.1997 11.5697C54.1997 11.5697 67.4691 14.2822 68.5409 11.7381C69.0069 10.6291 68.4753 9.43251 68.3419 8.28845C68.1691 6.80533 68.1669 5.44689 66.6619 4.89783C63.9997 3.92439 54.2347 7.61689 54.2347 7.61689H54.2369Z" fill="#F5882D" stroke="black" stroke-width="1.23047" stroke-linejoin="round"/>
<path d="M50.5312 16.1108C50.5312 16.1108 49.6694 4.5871 54.0837 4.5346C58.4959 4.4821 57.085 16.3427 57.085 16.3427" fill="#2944C2"/>
<path d="M50.5312 16.1108C50.5312 16.1108 49.6694 4.5871 54.0837 4.5346C58.4959 4.4821 57.085 16.3427 57.085 16.3427" stroke="black" stroke-width="1.23047" stroke-linejoin="round"/>
<path d="M64.7871 24.1609C63.2275 20.1709 58.4784 16.5462 58.4784 16.5462H58.4675C57.1943 16.334 55.8337 16.1874 54.3812 16.1131C52.7209 16.0277 51.1721 16.0387 49.7262 16.1306C49.4615 16.2531 46.0337 17.9352 43.435 24.3993C41.2321 29.879 41.394 33.6962 41.394 33.6984C44.59 33.3549 48.3 33.1843 52.3512 33.4009C57.4568 33.6743 62.324 34.2693 66.3753 34.8949H66.3578C66.3578 34.8949 66.3446 28.1487 64.785 24.1609H64.7871Z" fill="#FFD957" stroke="black" stroke-width="1.23047" stroke-linejoin="round"/>
<path d="M49.7267 16.1309C49.7267 16.1309 49.7319 16.1309 49.7319 16.1284H49.7241L49.7267 16.1309Z" fill="#2944C2" stroke="black" stroke-width="1.23047" stroke-linejoin="round"/>
<path d="M49.7328 16.1269L49.7467 16.1196C49.7467 16.1196 49.742 16.1196 49.7328 16.1269Z" fill="#2944C2" stroke="black" stroke-width="1.23047" stroke-linejoin="round"/>
<path d="M41.3963 33.6984C34.1753 34.4728 29.5728 36.1199 29.5728 36.1199C29.5728 36.1199 28.8794 17.4737 49.7263 16.1306L49.7438 16.1218C49.7438 16.1218 46.1388 17.6706 43.435 24.3993C41.2322 29.879 41.3941 33.6984 41.3941 33.6984H41.3963Z" fill="#CD4434" stroke="black" stroke-width="1.23047" stroke-linejoin="round"/>
<path d="M66.36 34.8908C66.36 34.8908 66.3468 28.1489 64.7872 24.1589C63.2275 20.1689 58.4784 16.5442 58.4784 16.5442H58.4675C77.5687 19.6854 77.1728 36.9601 77.1728 36.9601C77.1728 36.9601 72.8022 35.8883 66.3775 34.8951H66.36V34.8908Z" fill="#50B861" stroke="black" stroke-width="1.23047" stroke-linejoin="round"/>
</svg>
