<svg width="473" height="305" viewBox="0 0 473 305" fill="none" xmlns="http://www.w3.org/2000/svg">
<path d="M395.095 161.339L447.792 180.663L382.468 184.019L325.538 227.816L335.787 280.138L305.607 236.111C305.607 236.111 227.297 250.947 219.842 250.976L196.037 290.38L188.838 249.144L132.722 233.829L73.9817 271.929L114.042 223.539L79.6085 183.396L12.7979 164.283L76.1036 151.577L115.226 91.7554L99.1506 48.0929L165.649 73.6402L227.865 49.2341L239.554 12.6105L256.359 47.7093L308.155 53.4632L343.412 9.58008L346.235 66.8123L378.225 89.3772L449.014 67.8L391.088 106.38L395.124 161.349L395.095 161.339Z" fill="white"/>
<path d="M398.486 158.731C423.096 166.585 448.426 175.264 472.591 183.732C456.989 185.103 399.557 190.253 382.837 191.73L387.062 190.167L329.298 232.861L331.647 226.589L340.911 279.103L345.354 304.314C336.639 291.071 311.215 252.405 302.102 238.557L306.365 240.331C292.108 243.15 277.861 245.932 263.586 248.645C250.163 251.148 236.627 253.824 223.091 255.771C220.918 255.969 219.832 256.068 219.832 256.068C222.21 255.962 220.779 255.953 219.832 256.068L224.104 253.632C220.902 258.533 196.529 295.549 194.114 299.807L192.683 290.975L186.015 249.643L188.061 251.906L132.144 235.853L133.792 235.594L75.1939 273.915L62.4816 282.229C68.2979 275.305 105.317 229.984 112.052 221.899L112.08 225.237L77.5053 185.218L78.822 186.062L11.945 167.199L0 163.833C6.0625 162.529 67.5495 150.062 75.4308 148.403L73.3752 149.793L112.289 89.8281L111.929 92.9927L95.7022 49.3877L92.8794 41.8117L100.391 44.6695L166.975 69.9771L164.19 69.9867L226.321 45.3504L223.886 47.9588C226.15 40.9774 236.447 7.35541 239.156 1.05488C241.619 6.9814 255.951 39.7978 258.774 46.5107L256.605 44.9572L308.354 51.133L306.298 51.9865L340.694 7.40336L346.406 0L346.784 9.41723L349.086 66.6782L347.845 64.415L379.228 87.8621L377.646 87.6032L448.54 66.4001L456.753 63.9451C454.735 65.4603 397.122 107.234 393.371 109.996L395.275 106.073C396.573 123.613 397.586 141.047 398.458 158.76L398.486 158.731ZM391.694 163.948C389.79 144.135 388.047 124.016 386.617 104.04L388.72 102.765L448.199 66.5631L449.411 69.1907L378.736 91.1515L377.921 91.4008L377.154 90.8925L344.549 69.2195L343.393 68.4523L343.308 66.9563L339.964 9.75287L346.055 11.7667L309.945 54.9402L307.89 55.7937L256.046 50.4618L253.877 50.2412V48.9178L235.699 14.4903L243.589 13.934L231.767 50.5097L231.152 52.4181L229.333 53.1277L167.031 77.3133L165.629 77.8599L164.246 77.3229L97.8431 51.5262L102.532 46.808L118.456 90.5281L119.071 92.2159L118.096 93.6928L78.7557 153.38L78.0073 154.521L76.7001 154.78L13.3564 167.256L13.5838 161.397L80.3281 180.749L81.1238 180.98L81.6448 181.593L115.936 221.861L117.357 223.53L115.964 225.198L75.7339 273.445L72.7121 269.964L131.585 232.074L132.361 231.576L133.233 231.815L189.548 246.382L191.253 246.823L191.594 248.645L199.324 289.786L193.138 288.597L215.522 248.319L216.611 246.363L219.804 245.884C220.542 245.797 221.177 245.816 221.963 245.701C235.329 244.014 248.676 241.626 261.976 239.401C277.142 236.812 292.326 234.136 307.473 231.413L309.074 233.657L340.078 277.108L330.615 281.174L319.38 229.053L318.575 225.304L321.729 222.772L377.836 177.872L379.749 176.338L382.061 176.309L447.507 175.408L446.001 185.602C427.643 178.553 409.446 171.198 391.685 163.938L391.694 163.948Z" fill="black"/>
<path d="M101.167 262.665C95.9385 219.185 88.7677 179.32 79.8539 144.173L79.1719 141.469L115.916 124.159L122.576 166.105L123.248 114.78L145.708 105.325L154.271 168.781L154.347 116.919L192.825 100.386L192.19 106.101C187.293 150.013 185.938 192.515 188.164 232.428L188.297 234.749L146.342 253.526L142.212 225.284L141.777 248.664L101.736 267.22L101.186 262.665H101.167Z" fill="black"/>
<path d="M188.884 105.727C183.949 150.032 182.594 192.324 184.849 232.62L148.976 248.674L139.636 184.901L138.48 246.487L104.454 262.253C99.1781 218.408 92.0452 178.773 83.0557 143.329L113.33 129.069L125.379 204.954L126.526 117.034L142.999 110.1L157.511 217.622L157.653 119.144L188.884 105.727ZM196.746 95.0635L186.289 99.5515L155.057 112.968L151.022 114.703V119.144V119.949L149.573 109.199L148.408 100.558L140.46 103.905L123.987 110.839L119.961 112.536L119.904 116.948L119.772 127.257L118.502 119.249L110.555 122.999L80.2802 137.259L75.2881 139.608L76.6616 145.007C85.5375 180.02 92.6799 219.741 97.8993 263.078L98.9981 272.188L107.239 268.371L141.265 252.605L142.762 251.915L143.709 258.388L151.676 254.821L187.549 238.767L191.745 236.888L191.489 232.246C189.273 192.525 190.618 150.215 195.496 106.485L196.765 95.0635H196.746Z" fill="black"/>
<path d="M203.169 144.643C201.729 145.286 200.279 145.938 198.849 146.609L187.018 152.171L174.959 114.359L250.38 85.3398L258.745 123.91L255.855 124.831C249.035 127.008 242.499 129.213 236.37 131.39C236.91 163.344 239.136 192.669 242.992 218.591L243.333 220.902L210.377 239.247L203.178 144.634L203.169 144.643Z" fill="black"/>
<path d="M247.965 89.8567L254.852 121.628C247.15 124.083 239.875 126.547 233.017 129.031C233.491 162.212 235.717 192.228 239.705 219.089L213.286 233.8L206.124 139.714C203.226 140.942 200.336 142.217 197.466 143.56L189.017 147.53L179.08 116.363L247.965 89.8567ZM252.796 80.8135L245.606 83.5754L176.721 110.082L170.829 112.345L172.762 118.415L182.698 149.582L185 156.803L191.802 153.61L200.223 149.659L206.664 234.318L207.45 244.704L216.468 239.679L242.888 224.968L246.932 222.714L246.241 218.092C242.509 192.976 240.311 164.619 239.705 133.759C245.142 131.851 250.883 129.933 256.822 128.034L262.6 126.193L261.302 120.199L254.416 88.4278L252.768 80.8231L252.796 80.8135Z" fill="black"/>
<path d="M243.295 93.75L304.526 68.4424L311.602 107.089L308.921 108.039C298.937 111.597 289.54 115.222 280.958 118.827C281.005 121.35 281.109 123.824 281.261 126.192L281.403 130.767L308.429 117.408L314.15 148.537L311.706 149.592C301.57 153.965 291.946 158.491 283.051 163.065C284.141 177.987 285.704 192.794 287.712 207.131L288.034 209.432L254.757 227.835L243.285 93.75H243.295Z" fill="black"/>
<path d="M302.016 73.1034L307.832 104.865C296.929 108.749 286.85 112.661 277.624 116.593C277.643 119.95 277.756 123.22 277.965 126.413L278.258 136.061L305.975 122.357L310.409 146.494C299.401 151.251 289.124 156.113 279.594 161.081C280.693 176.894 282.313 192.401 284.444 207.591L257.637 222.417L246.819 95.908L302.016 73.0938M307.046 63.7725L299.506 66.8892L244.308 89.7034L239.79 91.5734L240.207 96.5026L251.025 223.012L251.896 233.254L260.81 228.325L287.617 213.499L291.653 211.264L291.009 206.661C289.105 193.12 287.608 179.138 286.538 165.051C294.807 160.85 303.693 156.698 313.014 152.68L317.902 150.57L316.926 145.277L312.493 121.139L310.901 112.46L303.067 116.334L284.548 125.493C284.454 124.045 284.387 122.558 284.34 121.053C292.288 117.763 300.908 114.455 310.03 111.204L315.382 109.295L314.349 103.647L308.533 71.8855L307.046 63.7821V63.7725Z" fill="black"/>
<path d="M343.658 206.296C342.369 206.296 341.081 206.162 339.831 205.913C334.526 204.743 331.069 201.434 329.799 196.352C328.246 190.157 329.922 183.664 334.782 177.057C338.495 171.984 343.184 168.282 348.707 166.067C351.444 164.926 354.267 164.341 357.062 164.341C358.691 164.341 360.33 164.542 361.94 164.935C366.875 166.134 370.153 169.443 371.413 174.497C372.966 180.711 371.271 187.155 366.364 193.657C362.48 198.644 357.8 202.259 352.429 204.436C349.464 205.673 346.5 206.306 343.648 206.306L343.658 206.296ZM335.483 154.857C335.398 153.878 334.753 151.356 331.447 145.506C328.369 140.069 326.806 136.195 326.522 133.289L326.332 131.333L327.924 130.211C333.891 125.991 339.537 121.215 344.681 116.037C353.67 106.879 354.646 102.275 354.39 100.319C354.248 99.782 352.789 99.7245 352.164 99.7245C351.151 99.7245 349.91 99.8683 348.479 100.146C342.938 101.23 334.195 105.718 322.496 113.476L318.394 116.2L310.93 78.4638L312.928 77.2459C329.212 67.3492 343.26 60.8473 354.674 57.9128C358.984 56.8099 362.897 56.2441 366.316 56.2441C376.499 56.2441 383.054 61.1733 385.29 70.5042C388.757 84.8506 384.665 101.125 373.127 118.875C366.951 128.389 356.2 141.162 341.157 156.861L336.146 162.097L335.483 154.837V154.857Z" fill="black"/>
<path d="M366.317 59.6295C374.956 59.6295 380.204 63.523 382.07 71.3196C385.319 84.7933 381.416 100.041 370.362 117.054C364.28 126.432 353.756 138.928 338.78 154.54C338.571 152.306 337.084 148.738 334.318 143.838C331.552 138.938 330.046 135.313 329.819 132.963C335.966 128.609 341.707 123.766 347.021 118.425C354.779 110.523 358.331 104.309 357.668 99.7726C357.27 97.5094 355.442 96.3778 352.174 96.3778C350.943 96.3778 349.503 96.5408 347.854 96.8573C341.858 98.0369 332.793 102.64 320.677 110.676L314.634 80.1326C330.709 70.3606 344.331 64.0409 355.489 61.1831C359.553 60.1378 363.162 59.6199 366.317 59.6199M357.062 167.697C358.435 167.697 359.799 167.861 361.164 168.196C364.896 169.107 367.236 171.476 368.202 175.312C369.5 180.51 368.012 185.937 363.731 191.605C360.226 196.112 356.048 199.344 351.198 201.31C348.593 202.394 346.074 202.94 343.658 202.94C342.588 202.94 341.527 202.835 340.485 202.624C336.459 201.732 333.968 199.363 333.011 195.527C331.713 190.33 333.191 184.844 337.444 179.061C340.807 174.478 344.965 171.179 349.929 169.184C352.316 168.196 354.694 167.697 357.062 167.697ZM366.317 52.9166C362.622 52.9166 358.435 53.5112 353.86 54.6812C342.124 57.6924 327.782 64.319 311.224 74.3883L307.217 76.8241L308.136 81.4656L314.179 112.009L316.102 121.753L324.315 116.306C338.439 106.936 345.6 104.146 349.114 103.455C349.597 103.359 350.024 103.292 350.393 103.235C349.455 105.258 347.286 108.624 342.313 113.687C337.33 118.703 331.836 123.344 326.02 127.459L322.837 129.712L323.216 133.625C323.548 137.01 325.243 141.316 328.559 147.175C331.931 153.15 332.158 155.087 332.168 155.164L333.494 169.683L343.525 159.21C358.928 143.138 369.509 130.556 375.894 120.726C387.952 102.17 392.196 85.0043 388.502 69.7085C385.906 58.8719 378.025 52.8975 366.307 52.8975L366.317 52.9166ZM357.062 160.985C353.841 160.985 350.611 161.646 347.447 162.96C341.356 165.415 336.203 169.481 332.111 175.062C326.636 182.504 324.77 189.946 326.579 197.177C328.161 203.487 332.594 207.754 339.073 209.183H339.121L339.168 209.202C340.636 209.5 342.142 209.653 343.658 209.653C346.926 209.653 350.308 208.943 353.69 207.534C359.601 205.136 364.725 201.176 368.941 195.757L368.969 195.719L368.997 195.681C374.548 188.335 376.443 180.922 374.634 173.662C373.071 167.419 368.836 163.152 362.717 161.665C360.851 161.215 358.947 160.985 357.062 160.985Z" fill="black"/>
<path d="M402.711 191.154C401.404 191.154 400.106 191.01 398.856 190.742C393.693 189.524 390.311 186.215 389.042 181.152C387.498 174.966 389.108 168.503 393.835 161.934C397.577 156.832 402.266 153.13 407.779 150.915C410.498 149.783 413.254 149.198 415.916 149.198C417.488 149.198 419.061 149.4 420.586 149.803C425.805 150.982 429.225 154.281 430.494 159.335C432.057 165.568 430.295 172.032 425.256 178.563C421.524 183.482 416.892 187.097 411.511 189.274C408.47 190.521 405.505 191.164 402.711 191.164V191.154ZM398.316 40.6893L442.42 37.0068L441.208 41.6099C436.197 60.665 432.673 75.6251 430.722 86.0876C428.098 100.357 426.374 115.759 425.597 131.85L425.474 134.44L395.332 140.788L398.316 40.6893Z" fill="black"/>
<path d="M438.006 40.7469C432.957 59.9553 429.442 74.8579 427.472 85.4643C424.81 99.9737 423.086 115.385 422.3 131.687L398.779 136.636L401.545 43.7868L438.015 40.7469M415.916 152.545C417.232 152.545 418.53 152.718 419.799 153.054C423.825 153.945 426.316 156.314 427.273 160.15C428.571 165.348 427.027 170.795 422.632 176.482C419.24 180.96 415.12 184.182 410.27 186.148C407.608 187.241 405.079 187.798 402.701 187.798C401.621 187.798 400.57 187.682 399.556 187.462C395.644 186.541 393.21 184.163 392.243 180.317C390.946 175.12 392.366 169.644 396.506 163.9C399.869 159.316 404.027 156.017 408.991 154.022C411.359 153.034 413.661 152.545 415.906 152.545M446.825 33.2764L437.456 34.0627L400.987 37.1027L395.085 37.5918L394.905 43.5855L392.139 136.434L391.883 144.94L400.115 143.205L423.636 138.256L428.656 137.202L428.903 132.013C429.67 116.065 431.375 100.818 433.97 86.6918C435.903 76.3252 439.408 61.4417 444.4 42.473L446.815 33.2764H446.825ZM415.925 145.832C412.837 145.832 409.682 146.494 406.528 147.798C400.437 150.253 395.284 154.319 391.192 159.901L391.173 159.92L391.154 159.939C385.811 167.352 384.021 174.765 385.821 181.957C387.393 188.229 391.741 192.506 398.06 193.993H398.097L398.135 194.012C399.613 194.338 401.148 194.501 402.701 194.501C405.931 194.501 409.313 193.782 412.761 192.362C418.663 189.974 423.759 186.004 427.87 180.596C433.554 173.211 435.514 165.779 433.696 158.501C432.133 152.238 427.747 147.99 421.353 146.523C419.572 146.063 417.744 145.823 415.906 145.823L415.925 145.832Z" fill="black"/>
<path d="M97.3031 258.925C92.0742 215.454 84.9034 175.58 75.9896 140.433L75.3076 137.728L112.052 120.419L118.711 162.365L119.374 111.04L141.834 101.584L150.397 165.04L150.473 113.178L188.951 96.6455L188.316 102.361C183.419 146.273 182.064 188.775 184.291 228.688L184.423 231.009L142.469 249.786L138.339 221.544L137.903 244.924L97.862 263.48L97.3126 258.925H97.3031Z" fill="#42BDF6"/>
<path d="M185.02 101.997C180.085 146.302 178.73 188.593 180.985 228.89L145.112 244.943L135.772 181.17L134.616 242.756L100.59 258.522C95.3139 214.677 88.181 175.043 79.1914 139.599L109.466 125.338L121.515 201.223L122.661 113.303L139.134 106.37L153.646 213.891L153.789 115.413L185.02 101.997ZM192.882 91.3232L182.424 95.8113L151.193 109.227L147.158 110.963V115.403V116.209L145.708 105.459L144.543 96.8182L136.596 100.165L120.123 107.099L116.097 108.796L116.04 113.207L115.907 123.516L114.638 115.509L106.691 119.258L76.4159 133.519L71.4238 135.868L72.7974 141.267C81.6732 176.28 88.8156 216.001 94.0351 259.337L95.1339 268.448L103.375 264.631L137.401 248.865L138.898 248.175L139.845 254.648L147.811 251.08L183.684 235.027L187.881 233.147L187.625 228.506C185.408 188.785 186.753 146.474 191.632 102.745L192.901 91.3232H192.882Z" fill="black"/>
<path d="M199.304 140.903C197.864 141.546 196.415 142.198 194.985 142.869L183.153 148.431L171.095 110.618L246.516 81.5996L254.88 120.17L251.991 121.091C245.171 123.267 238.635 125.473 232.506 127.65C233.046 159.603 235.272 188.929 239.127 214.85L239.468 217.162L206.513 235.507L199.314 140.894L199.304 140.903Z" fill="#42BDF6"/>
<path d="M244.091 86.1166L250.978 117.888C243.276 120.343 236.001 122.807 229.143 125.291C229.617 158.472 231.843 188.488 235.831 215.349L209.412 230.06L202.25 135.974C199.352 137.202 196.462 138.477 193.592 139.82L185.143 143.79L175.206 112.623L244.091 86.1166ZM248.922 77.083L241.732 79.8449L172.847 106.351L166.955 108.614L168.888 114.685L178.824 145.852L181.126 153.073L187.928 149.88L196.349 145.928L202.79 230.588L203.576 240.973L212.594 235.948L239.014 221.238L243.058 218.984L242.367 214.362C238.635 189.236 236.437 160.889 235.831 130.029C241.268 128.12 247.008 126.202 252.948 124.303L258.726 122.462L257.428 116.469L250.542 84.6973L248.894 77.0926L248.922 77.083Z" fill="black"/>
<path d="M239.43 90.0097L300.662 64.7021L307.738 103.349L305.057 104.299C295.073 107.856 285.676 111.481 277.094 115.087C277.141 117.609 277.245 120.084 277.397 122.452L277.539 127.027L304.564 113.668L310.286 144.797L307.842 145.851C297.706 150.224 288.082 154.751 279.187 159.325C280.276 174.247 281.839 189.054 283.848 203.39L284.17 205.692L250.892 224.095L239.421 90.0097H239.43Z" fill="#42BDF6"/>
<path d="M298.142 69.3719L303.958 101.134C293.055 105.017 282.976 108.93 273.75 112.862C273.769 116.218 273.883 119.488 274.091 122.682L274.385 132.329L302.102 118.625L306.535 142.763C295.528 147.52 285.25 152.382 275.72 157.349C276.819 173.163 278.439 188.67 280.57 203.86L253.763 218.686L242.945 92.1766L298.142 69.3623M303.182 60.041L295.641 63.1577L240.444 85.972L235.926 87.842L236.343 92.7712L247.16 219.28L248.032 229.522L256.946 224.593L283.753 209.767L287.789 207.533L287.144 202.93C285.24 189.389 283.744 175.407 282.673 161.319C290.943 157.119 299.828 152.967 309.149 148.948L314.037 146.839L313.062 141.545L308.628 117.407L307.037 108.729L299.203 112.603L280.684 121.761C280.589 120.313 280.523 118.827 280.476 117.321C288.423 114.032 297.053 110.723 306.166 107.472L311.518 105.564L310.485 99.9156L304.669 68.154L303.182 60.0506V60.041Z" fill="black"/>
<path d="M339.785 202.556C338.496 202.556 337.208 202.422 335.958 202.173C330.653 201.003 327.196 197.694 325.926 192.612C324.373 186.417 326.049 179.924 330.909 173.317C334.632 168.244 339.311 164.542 344.834 162.327C347.571 161.186 350.394 160.601 353.188 160.601C354.818 160.601 356.457 160.802 358.067 161.195C363.002 162.394 366.28 165.703 367.54 170.756C369.093 176.971 367.397 183.415 362.491 189.917C358.607 194.904 353.927 198.519 348.556 200.696C345.591 201.933 342.626 202.566 339.775 202.566L339.785 202.556ZM331.61 151.126C331.525 150.148 330.88 147.626 327.574 141.776C324.496 136.339 322.933 132.455 322.649 129.558L322.459 127.602L324.051 126.48C330.018 122.261 335.664 117.485 340.808 112.306C349.797 103.148 350.773 98.5449 350.517 96.5886C350.375 96.0516 348.916 95.994 348.291 95.994C347.278 95.994 346.037 96.1379 344.606 96.416C339.065 97.4996 330.322 101.988 318.623 109.746L314.521 112.469L307.057 74.7333L309.055 73.5154C325.339 63.6187 339.387 57.1168 350.801 54.1823C355.111 53.0795 359.024 52.5137 362.443 52.5137C372.626 52.5137 379.181 57.4428 381.417 66.7738C384.884 81.1202 380.792 97.3941 369.254 115.145C363.078 124.658 352.326 137.441 337.284 153.13L332.263 158.366L331.6 151.107L331.61 151.126Z" fill="#42BDF6"/>
<path d="M362.452 55.8893C371.092 55.8893 376.339 59.7924 378.205 67.5793C381.455 81.053 377.552 96.3009 366.497 113.313C360.416 122.692 349.892 135.188 334.915 150.8C334.707 148.566 333.22 144.998 330.454 140.098C327.688 135.197 326.182 131.572 325.954 129.223C332.102 124.869 337.842 120.026 343.157 114.685C350.915 106.783 354.467 100.568 353.804 96.0324C353.406 93.7692 351.578 92.6376 348.31 92.6376C347.078 92.6376 345.638 92.8006 343.99 93.1171C337.994 94.2966 328.929 98.8997 316.813 106.936L310.77 76.3924C326.845 66.6203 340.466 60.3006 351.625 57.4429C355.689 56.3976 359.298 55.8797 362.452 55.8797M353.188 163.957C354.562 163.957 355.926 164.12 357.29 164.456C361.022 165.367 363.362 167.736 364.328 171.572C365.626 176.769 364.139 182.197 359.857 187.865C356.352 192.372 352.175 195.604 347.325 197.57C344.72 198.653 342.2 199.2 339.775 199.2C338.705 199.2 337.644 199.094 336.602 198.883C332.576 197.992 330.084 195.623 329.128 191.787C327.83 186.589 329.308 181.104 333.561 175.321C336.924 170.737 341.082 167.438 346.046 165.444C348.433 164.456 350.811 163.957 353.179 163.957M362.452 49.1764C358.758 49.1764 354.571 49.771 349.996 50.9409C338.259 53.9521 323.918 60.5787 307.359 70.6481L303.353 73.0839L304.271 77.7254L310.315 108.269L312.238 118.012L320.451 112.565C334.574 103.196 341.736 100.405 345.25 99.7149C345.733 99.619 346.159 99.5518 346.529 99.4943C345.591 101.518 343.422 104.884 338.449 109.947C333.466 114.963 327.972 119.604 322.156 123.718L318.973 125.972L319.352 129.885C319.683 133.27 321.379 137.576 324.694 143.435C328.067 149.409 328.294 151.347 328.304 151.423L329.63 165.942L339.661 155.47C355.064 139.398 365.645 126.816 372.029 116.986C384.088 98.4298 388.332 81.264 384.637 65.9682C382.042 55.1317 374.161 49.1572 362.443 49.1572L362.452 49.1764ZM353.188 157.244C349.967 157.244 346.737 157.906 343.573 159.22C337.483 161.675 332.329 165.741 328.247 171.322C322.771 178.764 320.905 186.206 322.715 193.436C324.297 199.747 328.73 204.014 335.209 205.443H335.256L335.304 205.462C336.772 205.759 338.278 205.913 339.794 205.913C343.062 205.913 346.444 205.203 349.825 203.793C355.736 201.396 360.861 197.435 365.076 192.017L365.105 191.979L365.133 191.94C370.684 184.595 372.579 177.182 370.769 169.922C369.206 163.679 364.972 159.412 358.853 157.925C356.987 157.475 355.083 157.244 353.198 157.244H353.188Z" fill="black"/>
<path d="M398.847 187.423C397.54 187.423 396.242 187.279 394.991 187.011C389.829 185.793 386.447 182.485 385.178 177.412C383.634 171.226 385.244 164.763 389.971 158.194C393.713 153.092 398.392 149.39 403.915 147.175C406.643 146.043 409.39 145.458 412.052 145.458C413.624 145.458 415.197 145.66 416.722 146.062C421.941 147.242 425.361 150.541 426.63 155.595C428.193 161.828 426.431 168.292 421.392 174.822C417.659 179.742 413.027 183.357 407.647 185.534C404.606 186.781 401.641 187.423 398.847 187.423ZM394.442 36.9491L438.547 33.2666L437.334 37.8697C432.333 56.9152 428.799 71.8753 426.848 82.3474C424.224 96.6171 422.5 112.018 421.723 128.11L421.6 130.699L391.458 137.048L394.442 36.9491Z" fill="#42BDF6"/>
<path d="M434.132 37.0066C429.083 56.2151 425.569 71.1177 423.598 81.7241C420.937 96.2335 419.213 111.644 418.426 127.947L394.906 132.895L397.672 40.0466L434.141 37.0066M412.051 148.815C413.368 148.815 414.666 148.987 415.935 149.323C419.961 150.215 422.452 152.583 423.409 156.419C424.707 161.617 423.163 167.064 418.767 172.751C415.376 177.229 411.256 180.452 406.406 182.417C403.744 183.511 401.215 184.067 398.837 184.067C397.757 184.067 396.706 183.952 395.692 183.731C391.78 182.811 389.345 180.432 388.379 176.587C387.081 171.389 388.502 165.913 392.642 160.169C396.005 155.585 400.163 152.286 405.127 150.291C407.495 149.304 409.797 148.815 412.042 148.815M442.961 29.5361L433.592 30.3225L397.122 33.3625L391.221 33.8516L391.041 39.8452L388.275 132.694L388.019 141.2L396.251 139.465L419.771 134.516L424.792 133.461L425.038 128.273C425.806 112.325 427.511 97.0774 430.106 82.9516C432.039 72.5849 435.543 57.7015 440.536 38.7328L442.951 29.5361H442.961ZM412.051 142.102C408.963 142.102 405.799 142.763 402.654 144.068C396.563 146.523 391.41 150.589 387.328 156.17L387.309 156.189L387.29 156.208C381.947 163.621 380.157 171.034 381.957 178.227C383.529 184.498 387.877 188.776 394.195 190.262H394.233L394.271 190.281C395.749 190.607 397.283 190.77 398.837 190.77C402.067 190.77 405.449 190.051 408.897 188.632C414.798 186.244 419.895 182.274 424.006 176.855C429.689 169.471 431.65 162.039 429.831 154.76C428.268 148.498 423.883 144.25 417.489 142.783C415.708 142.322 413.879 142.083 412.042 142.083L412.051 142.102Z" fill="black"/>
</svg>
