<svg width="500" height="500" viewBox="0 0 500 500" fill="none" xmlns="http://www.w3.org/2000/svg">
<g clip-path="url(#clip0_10_15490)">
<mask id="mask0_10_15490" style="mask-type:luminance" maskUnits="userSpaceOnUse" x="0" y="0" width="501" height="501">
<path d="M430.41 -0.000265062L0 69.5908L69.5911 500.001L500.001 430.41L430.41 -0.000265062Z" fill="white"/>
</mask>
<g mask="url(#mask0_10_15490)">
<path d="M114.409 240.903C114.856 255.029 95.0741 286.815 95.0741 286.815C95.0741 286.815 130.906 282.488 158.509 312.996C177.025 333.457 182.487 364.413 182.487 364.413C182.487 364.413 206.996 342.922 234.899 336.875C245.567 334.563 284.116 345.065 284.116 345.065C284.116 345.065 310.623 315.341 319.44 309.904C337.999 298.458 380.425 300.233 380.425 300.233C380.425 300.233 372.567 272.442 381.05 246.158C389.532 219.874 403.79 206.312 403.79 206.312C403.79 206.312 373.262 198.524 363.98 181.72C354.699 164.916 362.708 142.159 362.708 142.159C362.708 142.159 333.278 141.854 325.603 137.763C309.12 128.973 293.643 101.111 293.643 101.111C293.643 101.111 250.298 137.776 228.57 142.264C206.851 146.759 173.163 122.678 173.163 122.678C173.163 122.678 156.076 167.822 143.999 180.626C128.86 196.686 92.2344 202.082 92.2344 202.082C92.2344 202.082 113.792 221.24 114.408 240.895L114.409 240.903Z" fill="black"/>
<path d="M118.236 240.776C118.028 249.997 113.899 258.126 110.27 266.252C106.578 273.992 102.617 281.395 98.325 288.835L94.6139 283.008C105.932 281.946 117.338 283.716 128.063 287.365C162.34 299.291 180.563 329.409 188.158 363.419L178.682 360.086C179.514 359.416 180.748 358.458 181.611 357.818C197.281 346.218 214.49 336.026 233.6 331.349C235.212 330.967 236.989 330.809 238.618 330.745C245.329 330.582 252.099 331.644 258.568 332.548C267.581 333.868 277.268 335.632 286.244 337.26L278.07 339.686C289.282 330.549 299.487 320.894 310.638 311.75C312.753 310.054 315.022 308.186 317.605 306.716C319.55 305.625 321.645 304.709 323.696 303.894C330.578 301.323 337.719 299.824 344.918 298.625C354.335 297.06 363.852 296.168 373.393 296.005C375.787 295.981 378.129 296.007 380.599 296.082L376.425 301.372C371.592 281.296 372.028 259.452 380.111 240.246C385.484 227.327 392.646 215.015 402.543 205.004C402.543 205.004 403.35 208.074 403.342 208.075C388.802 205.009 372.548 198.856 362.93 187.014C353.544 174.738 354.111 157.92 358.609 143.909C358.921 142.961 359.249 142.106 359.663 141.09L362.678 145.39C355.336 145.327 348.088 145.049 340.736 144.392C335.124 143.721 328.804 143.371 323.567 140.698C309.704 132.743 298.481 116.469 290.415 102.91L296.05 103.94C292.522 106.503 285.51 111.579 281.948 114.087C272.769 120.643 262.788 127.58 253.212 133.441C245.665 137.931 237.95 142.551 229.205 144.646C223.141 145.98 216.94 145.292 211.027 143.936C196.572 140.589 183.325 133.725 170.674 126.17L177.195 124.192C173.544 133.84 169.668 143.265 165.416 152.657C162.201 159.715 158.793 166.753 154.825 173.476C152.052 178.151 148.824 182.995 144.594 186.603C130.81 198.286 110.445 203.9 92.9816 207.077L95.6001 198.303C96.3096 198.956 97.1015 199.906 97.7548 200.586C107.685 211.799 117.484 225.241 118.252 240.765L118.236 240.776ZM110.581 241.022C109.654 228.621 101.03 218.12 91.8642 210.302C90.5043 209.254 89.1213 208.063 87.6666 207.229L76.844 197.859C82.2499 196.882 93.1799 195.072 98.2521 193.898C112.8 190.347 131.891 184.81 140.661 172.997C148.874 160.999 154.487 147.169 160.151 133.754C163.089 126.369 166.467 117.706 169.156 110.223L177.862 116.105C179.797 117.88 182.019 119.617 184.129 121.199C192.859 127.655 202.458 133.297 212.835 136.553C217.681 137.926 222.909 138.944 227.806 138.075C235.59 136.385 243.101 132.264 250.021 128.22C264.474 119.44 278.086 108.768 289.878 96.6566L295.843 92.2588C298.187 97.2023 300.862 102.756 303.764 107.368C310.136 117.431 317.435 127.845 327.811 133.974C332.091 135.74 336.747 136.1 341.502 136.703C346.768 137.154 352.134 137.425 357.446 137.412C359.216 137.419 361.024 137.402 362.755 137.329L369.639 137.597L367.272 143.767C363.614 154.754 362.053 167.454 366.636 178.349C372.595 191.516 391.352 199.49 404.471 203.64L409.192 204.938C407.613 206.539 405.093 208.767 403.69 210.443C399.052 215.851 395.233 221.998 392.232 228.461C390.534 232.152 389.004 235.97 387.731 239.834C386.411 243.679 385.694 247.78 384.89 251.559C382.642 265.181 384.341 279.157 386.822 292.635C387.625 296.749 389.523 304.482 390.473 308.547C380.587 308.17 369.595 307.626 359.795 307.408C348.629 307.169 337.112 307.004 326.406 310.521C322.066 311.904 318.843 314.055 315.309 316.956C311.756 319.842 308.232 322.905 304.849 326.1C299.779 330.914 294.757 335.815 289.957 340.912C288.09 342.81 286.357 344.841 284.489 346.731L283.723 346.475C272.897 342.903 261.773 340.043 250.485 338.358C246.043 337.722 241.44 337.155 236.986 337.512C225.929 339.55 215.588 344.897 206.306 351.082C199.357 355.803 192.837 361.256 187.266 367.557C186.917 367.958 186.524 368.41 186.269 368.753L178.392 375.203L176.792 365.412C176.713 364.924 176.587 364.254 176.466 363.662C172.339 344.592 164.676 325.37 150.429 311.628C136.44 297.932 116.833 290.147 97.2444 290.528C93.483 290.739 90.7951 291.027 87.6425 291.269L91.8053 284.791C99.0195 274.67 111.015 253.468 110.564 241.025L110.581 241.022Z" fill="black"/>
<path d="M106.774 236.841C107.221 250.968 87.4393 282.754 87.4393 282.754C87.4393 282.754 123.272 278.427 150.874 308.934C169.39 329.395 174.853 360.351 174.853 360.351C174.853 360.351 199.361 338.86 227.264 332.813C237.932 330.502 276.481 341.004 276.481 341.004C276.481 341.004 302.988 311.279 311.805 305.843C330.364 294.397 372.79 296.172 372.79 296.172C372.79 296.172 364.932 268.381 373.415 242.097C381.898 215.813 396.155 202.25 396.155 202.25C396.155 202.25 365.627 194.462 356.346 177.658C347.064 160.854 355.073 138.097 355.073 138.097C355.073 138.097 325.643 137.792 317.968 133.702C301.486 124.911 286.008 97.0498 286.008 97.0498C286.008 97.0498 242.664 133.715 220.935 138.203C199.217 142.698 165.528 118.617 165.528 118.617C165.528 118.617 148.441 163.76 136.364 176.565C121.225 192.625 84.5996 198.02 84.5996 198.02C84.5996 198.02 106.157 217.179 106.773 236.833L106.774 236.841Z" fill="white"/>
<path d="M110.601 236.715C110.393 245.935 106.264 254.065 102.635 262.191C98.9435 269.93 94.982 277.334 90.69 284.773L86.9789 278.947C98.2973 277.884 109.703 279.655 120.429 283.303C154.705 295.229 172.928 325.347 180.523 359.357L171.048 356.024C171.88 355.355 173.113 354.396 173.976 353.756C189.646 342.157 206.855 331.964 225.965 327.287C227.577 326.906 229.354 326.748 230.983 326.683C237.694 326.521 244.464 327.583 250.934 328.486C259.946 329.807 269.634 331.57 278.609 333.198L270.436 335.624C281.648 326.488 291.853 316.833 303.003 307.689C305.118 305.993 307.387 304.125 309.97 302.655C311.916 301.564 314.01 300.647 316.061 299.832C322.943 297.262 330.085 295.762 337.283 294.564C346.7 292.998 356.217 292.106 365.758 291.944C368.152 291.919 370.494 291.946 372.964 292.021L368.791 297.311C363.957 277.234 364.394 255.391 372.476 236.185C377.849 223.265 385.011 210.953 394.908 200.943C394.908 200.943 395.715 204.012 395.707 204.014C381.168 200.947 364.913 194.794 355.295 182.953C345.909 170.677 346.476 153.859 350.974 139.847C351.287 138.9 351.614 138.044 352.028 137.029L355.043 141.329C347.701 141.265 340.453 140.988 333.101 140.33C327.489 139.659 321.17 139.309 315.933 136.637C302.069 128.682 290.846 112.407 282.78 98.8486L288.415 99.8783C284.887 102.441 277.876 107.517 274.313 110.026C265.134 116.582 255.153 123.518 245.577 129.379C238.03 133.869 230.315 138.489 221.571 140.585C215.506 141.919 209.305 141.231 203.392 139.875C188.937 136.527 175.69 129.663 163.039 122.108L169.56 120.131C165.909 129.778 162.033 139.204 157.781 148.595C154.566 155.654 151.158 162.692 147.19 169.415C144.418 174.09 141.19 178.934 136.96 182.542C123.175 194.225 102.81 199.838 85.3467 203.015L87.9652 194.242C88.6746 194.895 89.4666 195.845 90.1199 196.524C100.05 207.737 109.849 221.18 110.617 236.704L110.601 236.715ZM102.946 236.96C102.02 224.559 93.3948 214.058 84.2292 206.241C82.8693 205.193 81.4863 204.002 80.0316 203.167L69.209 193.798C74.6149 192.82 85.5449 191.01 90.6171 189.836C105.165 186.285 124.257 180.748 133.026 168.936C141.239 156.937 146.853 143.108 152.516 129.692C155.454 122.308 158.832 113.644 161.522 106.162L170.228 112.043C172.162 113.818 174.384 115.555 176.494 117.138C185.224 123.593 194.823 129.235 205.201 132.492C210.046 133.865 215.274 134.883 220.172 134.013C227.955 132.324 235.467 128.202 242.387 124.159C256.839 115.378 270.451 104.707 282.243 92.5951L288.209 88.1973C290.552 93.1408 293.227 98.6949 296.129 103.307C302.501 113.37 309.8 123.783 320.176 129.912C324.456 131.679 329.112 132.039 333.868 132.641C339.133 133.092 344.5 133.363 349.811 133.35C351.581 133.357 353.39 133.341 355.12 133.268L362.004 133.535L359.638 139.706C355.979 150.692 354.418 163.392 359.001 174.288C364.96 187.454 383.717 195.428 396.836 199.579L401.557 200.877C399.979 202.478 397.458 204.706 396.055 206.381C391.417 211.789 387.598 217.936 384.597 224.4C382.899 228.09 381.369 231.909 380.096 235.772C378.777 239.617 378.059 243.718 377.256 247.497C375.007 261.119 376.706 275.095 379.187 288.573C379.99 292.688 381.888 300.421 382.838 304.485C372.952 304.108 361.961 303.565 352.16 303.347C340.994 303.108 329.477 302.943 318.771 306.459C314.432 307.842 311.208 309.994 307.675 312.894C304.122 315.781 300.597 318.843 297.215 322.039C292.144 326.852 287.123 331.753 282.322 336.851C280.456 338.749 278.722 340.78 276.854 342.669L276.088 342.413C265.263 338.841 254.138 335.982 242.85 334.296C238.408 333.66 233.805 333.093 229.351 333.451C218.294 335.489 207.953 340.836 198.671 347.02C191.722 351.741 185.203 357.195 179.631 363.495C179.282 363.897 178.889 364.349 178.634 364.692L170.757 371.141L169.157 361.35C169.078 360.863 168.953 360.193 168.831 359.6C164.704 340.531 157.041 321.308 142.794 307.567C128.805 293.87 109.198 286.085 89.6094 286.466C85.848 286.677 83.1601 286.965 80.0076 287.208L84.1703 280.729C91.3845 270.609 103.38 249.407 102.93 236.963L102.946 236.96Z" fill="black"/>
<path d="M97.6754 294.685L98.1665 293.881C102.545 286.712 111.454 273.091 124.652 253.403L148.43 218.004C139.521 220.367 130.068 223.198 120.228 226.471L117.272 227.45L112.083 185.537L194.284 165.492L194.336 168.693C194.469 176.987 194.744 189.355 195.153 205.438L195.171 206.297L194.663 206.992C190.174 213.213 181.341 226.554 168.417 246.655C163.955 253.311 159.532 259.995 155.244 266.555C151.362 272.47 148.305 277.467 146.1 281.49L188.636 271.619L190.664 313.508L188.48 313.922C155.654 320.143 128.118 326.649 106.644 333.243L103.826 334.113L97.6643 294.67L97.6754 294.685Z" fill="black"/>
<path d="M191.782 168.744C191.916 176.883 192.182 189.141 192.595 205.516C188.078 211.775 179.3 225.03 166.273 245.294C161.817 251.932 157.429 258.568 153.108 265.184C147.404 273.87 143.49 280.55 141.35 285.243L186.239 274.828L188.019 311.444C154.959 317.712 127.588 324.173 105.91 330.835L100.351 295.228C104.724 288.077 113.529 274.62 126.774 254.846L154.295 213.891C143.411 216.573 131.795 219.961 119.433 224.065L114.901 187.498L191.792 168.751M196.782 162.268L190.566 163.782L113.675 182.529L109.252 183.606L109.809 188.122L114.341 224.689L115.108 230.871L121.018 228.906C128.411 226.452 135.577 224.249 142.456 222.3L122.508 251.991C109.29 271.717 100.361 285.367 95.9608 292.565L94.9856 294.163L95.2847 296.013L100.835 331.621L101.743 337.452L107.381 335.721C128.772 329.149 156.208 322.668 188.942 316.461L193.311 315.634L193.093 311.192L191.314 274.577L191.016 268.466L185.055 269.853L151.224 277.703C152.95 274.828 154.996 271.581 157.357 267.991C161.643 261.423 166.06 254.757 170.495 248.148L170.524 248.109L170.552 248.07C183.456 228.007 192.268 214.695 196.722 208.523L197.729 207.127L197.685 205.409C197.275 189.326 197.003 176.975 196.871 168.689L196.769 162.296L196.782 162.268Z" fill="black"/>
<path d="M180.299 316.468C191.3 265.693 199.118 216.519 203.545 170.326L203.702 168.679L265.555 147.731L265.525 151.333C265.137 190.921 269.586 237.646 278.742 290.217L279.096 292.248L234.579 310.409L233.572 285.772L225.926 288.578L224.621 306.223L179.377 320.793L180.316 316.466L180.299 316.468ZM228.598 255.384L232.254 254.042L231.07 223.774L228.598 255.384Z" fill="black"/>
<path d="M262.96 151.317C262.575 191.241 266.988 237.687 276.217 290.661L236.969 306.676L235.967 282.176L223.484 286.757L222.185 304.331L182.795 317.014C193.869 265.89 201.633 217.079 206.088 170.579L262.96 151.317ZM231.975 181.783L231.782 181.814L225.741 259.159L234.877 255.801L231.975 181.783ZM268.144 144.164L261.324 146.475L204.451 165.737L201.319 166.796L201.006 170.09C196.589 216.186 188.789 265.254 177.806 315.932L175.929 324.594L184.366 321.876L223.755 309.192L227.027 308.137L227.283 304.706L228.345 290.413L231.154 289.381L231.87 306.88L232.166 314.156L238.908 311.409L278.156 295.394L281.967 293.837L281.26 289.785C272.13 237.373 267.697 190.801 268.084 151.368L268.154 144.171L268.144 144.164Z" fill="black"/>
<path d="M272.374 299.813C272.302 296.858 272.446 288.148 272.82 273.172L273.909 226.234C274.838 174.999 274.42 163.188 274.05 160.954L272.526 158.836L275.244 157.508C294.287 148.201 310.468 142.428 323.347 140.346C334.359 138.565 342.331 139.64 347.737 143.622C351.625 146.487 353.996 150.805 354.779 156.449C358.397 181.329 341.92 210.458 305.791 243.041C305.537 258.592 305.837 273.096 306.676 286.176L306.786 287.926L272.456 303.682L272.365 299.806L272.374 299.813ZM308.008 188.303C307.755 191.484 307.536 194.72 307.378 197.954L307.169 203.491C315.154 197.18 320.158 191.152 322.062 185.539C322.374 184.531 322.331 184.159 322.328 184.142C322.29 183.906 322.234 183.829 322.234 183.829C322.152 183.747 321.526 183.504 319.92 183.763C317.323 184.183 313.326 185.709 308.017 188.302L308.008 188.303Z" fill="black"/>
<path d="M323.755 142.868C341.064 140.069 350.562 144.718 352.25 156.807C355.78 181.097 339.448 209.461 303.251 241.891C302.956 257.992 303.246 272.808 304.124 286.347L274.919 299.756C274.85 296.877 274.999 288.037 275.368 273.244L276.464 226.295C277.251 183.149 277.213 160.986 276.367 159.811C295.266 150.571 311.062 144.929 323.756 142.876M304.412 208.742C315.38 200.922 322.066 193.457 324.472 186.357C324.819 185.249 324.945 184.374 324.842 183.736C324.49 181.558 322.707 180.725 319.505 181.243C316.302 181.761 311.785 183.543 305.577 186.652C305.257 190.387 305.006 194.111 304.821 197.824L304.412 208.742ZM322.939 137.824C309.817 139.946 293.389 145.793 274.123 155.214L268.687 157.87L271.592 161.912C271.922 165.18 272.225 178.312 271.358 226.198L270.267 273.12C269.89 288.13 269.744 296.883 269.815 299.882L270.007 307.632L277.058 304.396L306.263 290.987L309.46 289.522L309.229 286.013C308.408 273.31 308.103 259.256 308.333 244.192C325.904 228.239 338.94 212.993 347.083 198.85C355.798 183.716 359.234 169.324 357.307 156.075C356.422 149.749 353.707 144.857 349.252 141.575C343.267 137.159 334.659 135.938 322.941 137.832L322.939 137.824ZM310.434 189.964C314.496 188.039 317.152 187.075 318.871 186.607C317.217 190.144 314.226 193.888 309.932 197.8C310.07 195.181 310.239 192.549 310.434 189.964Z" fill="black"/>
<path d="M362.562 291.598C359.107 292.157 355.841 291.969 352.871 291.043C347.643 289.335 344.45 285.642 343.596 280.362C342.52 273.704 344.87 267.01 350.593 260.469C355.14 255.352 360.582 251.824 366.787 249.975C367.962 249.612 369.166 249.323 370.335 249.134C373.907 248.556 377.353 248.845 380.567 249.998C385.876 251.676 389.127 255.351 389.981 260.631C391.063 267.322 388.552 273.991 382.516 280.462C377.984 285.404 372.606 288.844 366.544 290.67C365.196 291.086 363.858 291.397 362.563 291.607L362.562 291.598ZM354.8 235.006L367.638 126.715L414.823 126.979L413.589 130.388C406.095 151.052 400.656 167.346 397.429 178.814C393.074 194.451 389.617 211.434 387.163 229.281L386.893 231.24L354.793 235.015L354.8 235.006Z" fill="black"/>
<path d="M369.909 129.291L411.189 129.526C403.636 150.354 398.232 166.548 394.971 178.126C390.555 193.97 387.117 210.907 384.64 228.931L357.721 232.102L369.909 129.291ZM370.749 251.647C373.919 251.135 376.927 251.39 379.757 252.407C384.191 253.795 386.76 256.667 387.466 261.03C388.42 266.931 386.146 272.819 380.655 278.71C376.401 283.349 371.461 286.511 365.811 288.218C364.561 288.602 363.341 288.894 362.164 289.084C359.087 289.582 356.249 289.419 353.642 288.607C349.334 287.199 346.832 284.317 346.127 279.954C345.174 274.061 347.301 268.119 352.52 262.142C356.746 257.388 361.75 254.137 367.527 252.418C368.619 252.078 369.699 251.817 370.758 251.646M365.369 124.15L364.833 128.679L352.645 231.491L351.881 237.92L358.315 237.164L385.234 233.994L389.162 233.531L389.701 229.614C392.141 211.889 395.573 195.022 399.901 179.485C403.105 168.09 408.529 151.858 415.998 131.259L418.469 124.45L411.224 124.405L369.944 124.17L365.376 124.14L365.369 124.15ZM369.934 246.603C368.656 246.81 367.343 247.117 366.029 247.528C359.372 249.518 353.539 253.291 348.693 258.75L348.679 258.769L348.665 258.789C342.429 265.939 339.871 273.331 341.074 280.771C342.091 287.059 345.889 291.448 352.046 293.463L352.074 293.476L352.102 293.489C355.454 294.534 359.112 294.753 362.962 294.131C364.366 293.904 365.828 293.555 367.3 293.11C373.774 291.158 379.537 287.483 384.391 282.186C390.977 275.118 393.708 267.732 392.494 260.225C391.479 253.946 387.632 249.573 381.375 247.583C377.76 246.295 373.912 245.969 369.918 246.614L369.934 246.603Z" fill="black"/>
<path d="M87.5338 292.573L88.0249 291.769C92.4038 284.6 101.312 270.979 114.51 251.291L138.288 215.892C129.38 218.255 119.926 221.086 110.086 224.359L107.131 225.337L101.941 183.425L184.143 163.38L184.194 166.58C184.328 174.874 184.602 187.243 185.012 203.325L185.03 204.185L184.521 204.88C180.032 211.1 171.199 224.441 158.275 244.542C153.813 251.199 149.391 257.883 145.103 264.442C141.22 270.358 138.163 275.355 135.959 279.378L178.494 269.507L180.523 311.396L178.338 311.809C145.512 318.031 117.977 324.536 96.5027 331.131L93.6845 332.001L87.5227 292.557L87.5338 292.573Z" fill="#FCB527"/>
<path d="M181.641 166.631C181.775 174.77 182.041 187.028 182.454 203.403C177.937 209.662 169.159 222.917 156.132 243.181C151.676 249.819 147.288 256.455 142.967 263.071C137.263 271.757 133.348 278.437 131.209 283.131L176.098 272.715L177.877 309.331C144.817 315.599 117.447 322.06 95.7684 328.722L90.2096 293.115C94.5828 285.964 103.388 272.507 116.633 252.733L144.153 211.778C133.269 214.46 121.654 217.848 109.292 221.952L104.76 185.385L181.651 166.638M186.649 160.154L180.433 161.668L103.542 180.414L99.1186 181.492L99.6763 186.008L104.209 222.575L104.975 228.757L110.886 226.792C118.278 224.337 125.444 222.135 132.323 220.186L112.375 249.876C99.1575 269.602 90.228 283.252 85.828 290.451L84.8528 292.049L85.1518 293.898L90.7022 329.507L91.6105 335.338L97.2482 333.607C118.64 327.034 146.076 320.554 178.809 314.347L183.178 313.52L182.96 309.078L181.181 272.463L180.883 266.352L174.922 267.738L141.091 275.589C142.818 272.714 144.863 269.467 147.224 265.876C151.511 259.309 155.928 252.643 160.363 246.034L160.391 245.995L160.419 245.956C173.323 225.892 182.135 212.581 186.589 206.409L187.597 205.012L187.552 203.294C187.143 187.212 186.871 174.86 186.739 166.575L186.637 160.182L186.649 160.154Z" fill="black"/>
<path d="M170.168 314.355C181.169 263.579 188.987 214.405 193.413 168.212L193.57 166.565L255.423 145.618L255.393 149.22C255.005 188.808 259.454 235.533 268.61 288.104L268.964 290.134L224.448 308.296L223.44 283.659L215.794 286.465L214.489 304.109L169.245 318.679L170.184 314.352L170.168 314.355ZM218.459 253.28L222.116 251.938L220.931 221.671L218.459 253.28Z" fill="#FCB527"/>
<path d="M252.828 149.204C252.443 189.128 256.856 235.574 266.085 288.548L226.837 304.564L225.835 280.063L213.351 284.644L212.052 302.218L172.663 314.902C183.737 263.778 191.501 214.966 195.956 168.466L252.828 149.204ZM221.835 179.671L221.641 179.703L215.601 257.047L224.736 253.69L221.835 179.671ZM258.004 142.053L251.183 144.363L194.311 163.626L191.178 164.684L190.865 167.978C186.449 214.075 178.648 263.143 167.666 313.82L165.788 322.483L174.225 319.764L213.615 307.081L216.886 306.026L217.142 302.595L218.204 288.302L221.013 287.27L221.729 304.769L222.026 312.044L228.767 309.298L268.015 293.282L271.826 291.726L271.119 287.674C261.989 235.262 257.556 188.69 257.943 149.257L258.013 142.06L258.004 142.053Z" fill="black"/>
<path d="M262.234 297.702C262.161 294.746 262.306 286.036 262.679 271.061L263.768 224.122C264.697 172.888 264.28 161.077 263.91 158.842L262.386 156.725L265.104 155.397C284.147 146.09 300.328 140.317 313.206 138.234C324.219 136.454 332.191 137.528 337.596 141.511C341.484 144.376 343.856 148.694 344.639 154.338C348.256 179.218 331.78 208.347 295.651 240.93C295.396 256.481 295.697 270.985 296.535 284.065L296.645 285.815L262.316 301.57L262.224 297.695L262.234 297.702ZM297.868 186.192C297.614 189.373 297.396 192.608 297.237 195.843L297.028 201.38C305.014 195.069 310.017 189.041 311.922 183.428C312.233 182.42 312.19 182.047 312.187 182.03C312.149 181.795 312.094 181.718 312.094 181.718C312.012 181.636 311.385 181.392 309.78 181.652C307.182 182.072 303.185 183.598 297.876 186.19L297.868 186.192Z" fill="#FCB527"/>
<path d="M313.622 140.754C330.931 137.956 340.43 142.605 342.117 154.694C345.647 178.984 329.315 207.348 293.118 239.778C292.823 255.879 293.113 270.695 293.991 284.234L264.786 297.643C264.717 294.764 264.867 285.924 265.235 271.131L266.331 224.182C267.118 181.036 267.08 158.873 266.235 157.698C285.133 148.458 300.93 142.815 313.623 140.763M294.281 206.637C305.249 198.817 311.935 191.353 314.341 184.252C314.688 183.144 314.814 182.27 314.71 181.631C314.358 179.453 312.576 178.62 309.373 179.138C306.17 179.656 301.654 181.438 295.445 184.547C295.126 188.282 294.874 192.006 294.69 195.719L294.281 206.637ZM312.807 135.711C299.684 137.832 283.256 143.68 263.99 153.101L258.554 155.757L261.459 159.799C261.789 163.066 262.092 176.198 261.226 224.084L260.134 271.006C259.758 286.017 259.611 294.77 259.682 297.769L259.874 305.519L266.925 302.283L296.13 288.874L299.327 287.408L299.096 283.9C298.276 271.197 297.97 257.143 298.2 242.079C315.771 226.126 328.808 210.88 336.95 196.736C345.665 181.603 349.101 167.211 347.174 153.962C346.289 147.636 343.575 142.743 339.119 139.461C333.135 135.046 324.526 133.824 312.808 135.719L312.807 135.711ZM300.302 187.859C304.365 185.934 307.021 184.97 308.74 184.502C307.086 188.039 304.094 191.784 299.801 195.695C299.938 193.077 300.108 190.444 300.302 187.859Z" fill="black"/>
<path d="M352.429 289.483C348.974 290.042 345.709 289.854 342.739 288.928C337.511 287.22 334.317 283.527 333.464 278.248C332.387 271.59 334.738 264.895 340.461 258.354C345.008 253.237 350.45 249.709 356.655 247.86C357.83 247.498 359.034 247.208 360.202 247.019C363.775 246.442 367.22 246.73 370.435 247.884C375.744 249.561 378.995 253.237 379.848 258.516C380.93 265.207 378.42 271.876 372.384 278.347C367.852 283.289 362.474 286.729 356.411 288.555C355.064 288.971 353.725 289.282 352.431 289.492L352.429 289.483ZM344.669 232.899L357.508 124.609L404.692 124.873L403.458 128.281C395.964 148.945 390.525 165.24 387.298 176.708C382.943 192.344 379.486 209.327 377.033 227.175L376.763 229.134L344.662 232.909L344.669 232.899Z" fill="#FCB527"/>
<path d="M359.768 127.177L401.048 127.412C393.495 148.241 388.091 164.434 384.83 176.012C380.414 191.856 376.976 208.793 374.499 226.817L347.58 229.988L359.768 127.177ZM360.608 249.533C363.778 249.021 366.786 249.276 369.616 250.294C374.05 251.682 376.619 254.553 377.325 258.916C378.279 264.817 376.005 270.705 370.514 276.597C366.26 281.235 361.32 284.397 355.67 286.105C354.42 286.488 353.2 286.78 352.023 286.97C348.946 287.468 346.108 287.306 343.501 286.494C339.193 285.085 336.691 282.203 335.986 277.84C335.033 271.947 337.16 266.005 342.379 260.029C346.605 255.274 351.608 252.023 357.386 250.304C358.478 249.964 359.558 249.703 360.617 249.532M355.238 122.043L354.702 126.573L342.513 229.384L341.75 235.813L348.184 235.057L375.103 231.887L379.03 231.424L379.57 227.507C382.009 209.782 385.441 192.915 389.77 177.378C392.974 165.983 398.398 149.751 405.867 129.152L408.337 122.343L401.093 122.298L359.813 122.063L355.245 122.034L355.238 122.043ZM359.793 244.489C358.515 244.696 357.202 245.003 355.888 245.414C349.231 247.405 343.398 251.177 338.552 256.636L338.538 256.656L338.524 256.675C332.288 263.825 329.73 271.217 330.933 278.657C331.95 284.945 335.748 289.334 341.905 291.349L341.933 291.362L341.961 291.375C345.313 292.42 348.971 292.639 352.821 292.017C354.225 291.79 355.687 291.441 357.159 290.996C363.633 289.044 369.396 285.369 374.25 280.073C380.836 273.004 383.567 265.618 382.353 258.111C381.338 251.832 377.491 247.459 371.234 245.469C367.619 244.181 363.771 243.855 359.777 244.5L359.793 244.489Z" fill="black"/>
<path d="M390.691 28.9971L350.542 68.1907L372.522 78.8097L345.185 113.594L403.12 65.1068L369.733 65.2948L390.691 28.9971Z" fill="black"/>
<path d="M53.4375 94.1182L79.4055 133.991L107.142 123.019L131.259 150.433L114.533 103.321L84.3167 112.615L53.4375 94.1182Z" fill="black"/>
<path d="M139.145 341.395L105.776 387.42L125.469 386.185L100.419 432.823L151.496 374.196L128.183 375.766L139.145 341.395Z" fill="black"/>
</g>
</g>
<defs>
<clipPath id="clip0_10_15490">
<rect width="500" height="500" fill="white"/>
</clipPath>
</defs>
</svg>
